<svg width="73" height="59" viewBox="0 0 73 59" fill="none" xmlns="http://www.w3.org/2000/svg">
<g clip-path="url(#clip0_1561_388)">
<path d="M30.6244 20.1569C28.6711 20.2351 26.7961 20.3479 24.9166 20.3696C21.3118 20.3907 17.7145 20.0373 14.1827 19.3149C14.0156 19.2698 13.839 19.2731 13.6738 19.3246C13.5085 19.3761 13.3613 19.4736 13.2495 19.6057C12.3814 20.4738 11.4829 21.2768 10.6148 22.1275C10.4677 22.2991 10.2697 22.4195 10.0497 22.471C9.82955 22.5225 9.59876 22.5025 9.39078 22.414C8.38379 22.0581 7.3551 21.7542 6.35245 21.4113C5.61457 21.1596 5.48436 20.795 5.8533 20.1092C6.75612 18.4859 7.65026 16.8582 8.60082 15.2652C8.76878 15.0473 8.85657 14.7781 8.84945 14.503C8.84234 14.228 8.74074 13.9637 8.56175 13.7547C5.83593 9.75716 3.15353 5.73789 0.458098 1.72295C0.33027 1.55012 0.214252 1.36886 0.110852 1.1804C0.0323563 1.071 -0.0137082 0.941695 -0.0220587 0.807307C-0.0304091 0.672919 -0.000705641 0.53889 0.0636434 0.420615C0.127992 0.302339 0.22439 0.204609 0.341758 0.138619C0.459126 0.0726299 0.592714 0.0410605 0.727205 0.0475393C2.3245 0.0214965 3.92179 0.025837 5.50172 0.0475393C5.75824 0.0743017 5.99901 0.184025 6.18751 0.360054C7.36378 1.40611 8.52269 2.47387 9.69027 3.52426C10.0896 3.88452 10.3327 4.29685 9.89427 4.74826C9.45589 5.19967 9.02618 4.95661 8.64856 4.60069C7.68064 3.71089 6.73008 2.80373 5.72309 1.97036C5.37439 1.71548 4.96043 1.56495 4.52946 1.53632C3.77856 1.46687 3.01897 1.51462 2.13351 1.51462C2.30279 1.80543 2.40697 2.00509 2.53284 2.18739C4.95772 5.81313 7.38694 9.43018 9.82049 13.0386C10.0202 13.3381 10.1634 13.6115 10.6452 13.503C12.6461 13.0689 14.6514 12.6609 16.6567 12.2399C16.7674 12.2072 16.8761 12.1681 16.9823 12.1227L13.1236 8.65035C12.9803 8.52448 12.746 8.40294 12.7243 8.25537C12.6313 7.92124 12.6511 7.56574 12.7807 7.24403C13.0585 6.86207 13.5012 6.98795 13.8441 7.29178L16.7652 9.92645C17.3295 10.4386 17.8851 10.9638 18.471 11.4499C18.5525 11.5251 18.6484 11.5831 18.7528 11.6204C18.8572 11.6576 18.968 11.6735 19.0787 11.667C23.0893 10.6513 27.0956 9.61393 31.2841 8.53315C30.9629 8.29443 30.8153 8.16856 30.6547 8.06439C29.0372 7.0111 27.4196 5.95636 25.8021 4.90018C24.8863 4.3012 24.908 3.75864 25.8672 3.22477L26.1797 3.05548C27.2562 2.49122 28.2848 1.63615 29.4177 1.45385C30.5506 1.27155 31.8006 1.75769 32.9986 1.96169C36.9441 2.63446 40.8852 3.32025 44.8307 3.97566C45.1569 4.00612 45.4859 3.96463 45.7943 3.85413C50.0566 2.55199 54.3277 1.31062 58.7246 0.55538C61.6457 0.0562261 64.5885 -0.312714 67.5314 0.351377C69.949 0.893936 71.7894 2.13965 72.2798 4.77432C72.5359 6.13288 72.4101 7.59127 70.6001 8.37256C68.1578 9.42874 65.7098 10.4762 63.256 11.5151C62.7916 11.7147 62.3879 11.6496 62.1839 11.1591C61.9799 10.6687 62.2924 10.3128 62.7612 10.1174C64.7636 9.29274 66.7646 8.46516 68.7641 7.63469C69.0071 7.53485 69.2415 7.422 69.4759 7.30481C71.147 6.48446 71.4074 4.95661 70.1096 3.49387C68.1947 4.67917 66.1106 5.5661 63.9288 6.1242C63.4909 6.28016 63.0137 6.28681 62.5717 6.14313C62.1296 5.99944 61.7476 5.7135 61.4851 5.3299C60.0397 3.48954 60.1048 2.89055 62.0103 1.57972C60.3826 1.85751 58.7463 2.08756 57.1273 2.41743C50.8206 3.71957 44.7309 5.77695 38.6195 7.76055C30.1517 10.5107 21.544 12.8101 12.8328 14.6489C12.7894 14.6489 12.746 14.6793 12.5203 14.7531L14.5386 15.6515C14.8207 15.7774 15.1115 15.8902 15.385 16.0335C16.0057 16.359 16.0881 16.8452 15.602 17.3356C15.4208 17.4901 15.2261 17.6281 15.0204 17.748L15.1289 17.9607C16.2748 18.1343 17.4206 18.3339 18.5709 18.4772C22.7618 19.0024 27.002 19.0024 31.193 18.4772C31.5017 18.4194 31.7758 18.2434 31.9569 17.9867C32.825 16.6455 33.6149 15.2565 34.4917 13.9284C34.7391 13.5682 35.102 13.3033 35.5204 13.1775C39.612 12.1763 43.7123 11.2083 47.8213 10.2737C48.0029 10.239 48.1901 10.248 48.3675 10.3001C48.5449 10.3522 48.7073 10.4458 48.8413 10.5732C48.8828 10.7545 48.8816 10.9429 48.8379 11.1236C48.7942 11.3044 48.7092 11.4725 48.5896 11.6149C47.5652 12.8085 46.4758 13.9457 45.408 15.0873C45.2067 15.2816 45.0575 15.5234 44.974 15.7904L49.0106 14.701L50.3822 14.3147C50.8987 14.1627 51.3154 14.2843 51.4456 14.8355C51.5758 15.3868 51.2286 15.6255 50.7641 15.7514C48.3291 16.4111 45.8898 17.0535 43.4635 17.7393C43.0829 17.8446 42.7361 18.0464 42.4565 18.3253C39.3863 21.624 36.3335 24.9372 33.2981 28.2649C33.1172 28.4823 32.8879 28.6544 32.6287 28.7675C32.3695 28.8805 32.0874 28.9314 31.805 28.916C30.186 28.8813 28.5626 28.916 26.9436 28.916C25.9149 28.916 25.6155 28.3734 26.1537 27.4923C27.5773 25.1543 29.0054 22.8176 30.4377 20.4825C30.5028 20.4043 30.5506 20.3002 30.6244 20.1569ZM45.9809 12.3094C45.7335 12.3311 45.638 12.3311 45.5469 12.3484C42.4174 13.0776 39.2879 13.7981 36.1671 14.5577C35.8684 14.6778 35.6202 14.8969 35.464 15.1784C33.0854 19.0241 30.7198 22.8784 28.3673 26.7414C28.2501 26.9324 28.1459 27.1364 27.9723 27.4576C29.2007 27.4576 30.3118 27.4923 31.4187 27.4576C31.803 27.4273 32.1651 27.2647 32.443 26.9975C34.6133 24.671 36.7835 22.3142 38.9537 19.966L45.9809 12.3094ZM27.4298 4.20137C29.3005 5.4167 31.1235 6.619 32.9682 7.78659C33.2017 7.87534 33.4596 7.87534 33.6931 7.78659C36.2597 6.98216 38.8192 6.16904 41.3714 5.34725C41.5276 5.2995 41.6752 5.21704 41.9139 5.11287C41.6969 5.04777 41.5884 5.00001 41.4799 4.97831C38.3157 4.44009 35.1341 3.98434 31.9959 3.32893C30.3639 2.98604 28.9229 3.02076 27.5904 4.07984L27.4298 4.20137ZM7.53306 20.1526C9.37776 21.1118 9.56006 21.0901 10.9403 19.7793L12.2425 18.5466C12.7677 18.0475 13.2929 17.5483 13.8745 16.9884L10.2242 15.3954L7.53306 20.1526ZM62.0059 3.572C62.1431 3.7397 62.2706 3.91504 62.3879 4.09719C62.4477 4.23831 62.5365 4.36525 62.6487 4.46968C62.7608 4.57412 62.8938 4.65373 63.0388 4.70329C63.1838 4.75286 63.3376 4.77128 63.4902 4.75734C63.6429 4.7434 63.7908 4.69742 63.9244 4.6224C65.4132 4.00605 66.9063 3.42008 68.3951 2.80807C68.5646 2.70927 68.7232 2.59289 68.8682 2.46084C67.7964 1.93085 66.6216 1.64195 65.4262 1.61444C65.3101 1.60723 65.1943 1.6328 65.092 1.68824C64.0981 2.2959 63.078 2.91225 62.0059 3.572Z" fill="#F47170"/>
<path d="M48.4289 40.3377C48.3985 40.1684 48.4289 39.947 48.3291 39.8385C47.7257 39.1202 47.4239 38.1962 47.487 37.2603C47.487 33.0413 47.487 28.8224 47.487 24.6034C47.487 22.4332 48.7284 21.1918 50.903 21.1875C55.8598 21.1875 60.818 21.1875 65.7777 21.1875C67.9089 21.1875 69.1633 22.4245 69.172 24.5557C69.172 28.8962 69.172 33.2801 69.172 37.6422C69.1678 38.1061 69.0673 38.564 68.8768 38.9869C68.6862 39.4098 68.4099 39.7885 68.0652 40.0989C69.0808 40.967 69.1937 42.0912 69.172 43.2892C69.1459 44.9125 69.172 46.5315 69.172 48.1548C69.172 48.6931 69.0982 49.2269 68.4254 49.2269C67.7527 49.2269 67.6615 48.7148 67.6658 48.1635C67.6658 46.3492 67.6658 44.5378 67.6658 42.7293C67.6658 41.4271 67.0669 40.8325 65.7994 40.8238C64.532 40.8151 63.282 40.8238 61.9191 40.8238V41.6224C61.9191 43.5539 61.9408 45.4855 61.8974 47.417C61.8952 47.6057 61.8531 47.7919 61.7738 47.9632C61.6945 48.1345 61.5798 48.2871 61.4373 48.4109C61.2376 48.5368 60.7341 48.3328 60.4476 48.1462C59.855 47.7483 59.2882 47.3134 58.7505 46.844C58.7012 46.7856 58.6397 46.7386 58.5704 46.7063C58.501 46.6741 58.4255 46.6574 58.349 46.6574C58.2726 46.6574 58.197 46.6741 58.1276 46.7063C58.0583 46.7386 57.9968 46.7856 57.9475 46.844C57.367 47.3384 56.7599 47.8006 56.1289 48.2286C56.0063 48.3209 55.8655 48.3861 55.7159 48.4198C55.5662 48.4535 55.4111 48.4549 55.2608 48.4239C55.1291 48.32 55.0219 48.1884 54.9469 48.0383C54.8719 47.8883 54.8309 47.7236 54.8267 47.5559C54.7877 45.6026 54.805 43.6494 54.805 41.6919V40.8498C53.2772 40.8498 51.7667 40.7847 50.2996 40.8759C49.4836 40.928 49.0279 41.6485 48.9975 42.6121C48.9758 43.8751 48.9975 45.1382 48.9975 46.4013C48.9975 49.4049 48.9975 52.4085 48.9975 55.4121C48.9975 56.9486 49.5661 57.5086 51.1243 57.5086H65.5694C67.145 57.5086 67.6875 56.9703 67.6919 55.4208C67.6919 54.8956 67.6919 54.3747 67.6919 53.8495C67.6919 53.3243 67.9523 52.9814 68.4645 53.0162C68.5675 53.0165 68.6693 53.0388 68.7631 53.0816C68.8568 53.1244 68.9404 53.1867 69.0082 53.2643C69.076 53.3419 69.1264 53.4331 69.1561 53.5318C69.1859 53.6305 69.1942 53.7344 69.1807 53.8365C69.2061 54.6689 69.1858 55.5021 69.1199 56.3323C69.0384 57.0523 68.6964 57.7176 68.1583 58.2028C67.6203 58.6881 66.9233 58.9599 66.1988 58.967C60.9902 58.9887 55.7599 59.0104 50.5384 58.9409C49.7527 58.9409 48.9714 58.4244 48.0599 58.0989C47.3872 58.8411 46.3238 58.9973 45.1562 58.993C40.3816 58.9626 35.5724 58.993 30.7849 58.993C28.5626 58.993 27.3125 57.7603 27.3125 55.5554C27.3125 51.2872 27.3125 47.0205 27.3125 42.7553C27.3125 40.5851 28.5495 39.361 30.7371 39.361C35.4552 39.361 40.1777 39.361 44.8957 39.361C46.1415 39.361 47.3351 39.4001 48.2379 40.4635L48.4289 40.3377ZM61.9538 22.6633C61.9538 22.9063 61.9234 23.0669 61.9234 23.2275C61.9234 25.2762 61.9234 27.3249 61.9234 29.3736C61.9606 29.5454 61.9394 29.7247 61.8632 29.8831C61.787 30.0414 61.6602 30.1699 61.5028 30.2481C61.3454 30.3263 61.1664 30.3498 60.9942 30.3148C60.8219 30.2799 60.6663 30.1885 60.5518 30.0551C59.9364 29.6464 59.3492 29.1968 58.7939 28.7095C58.7419 28.6444 58.6758 28.5918 58.6007 28.5557C58.5256 28.5195 58.4433 28.5008 58.3599 28.5008C58.2765 28.5008 58.1942 28.5195 58.1191 28.5557C58.0439 28.5918 57.9779 28.6444 57.9258 28.7095C57.3881 29.1826 56.8181 29.6177 56.22 30.0117C56.1068 30.163 55.9437 30.2695 55.7596 30.3124C55.5756 30.3554 55.3823 30.332 55.2137 30.2464C55.0452 30.1609 54.9122 30.0186 54.8383 29.8446C54.7643 29.6707 54.7541 29.4763 54.8094 29.2955C54.7747 27.3423 54.8094 25.3891 54.8094 23.4359V22.711C54.6531 22.6806 54.6097 22.6633 54.562 22.6589H51.133C49.5791 22.6589 49.0105 23.2145 49.0105 24.7554C49.0105 28.9222 49.0105 33.0905 49.0105 37.2603C49.0105 38.7881 49.5921 39.3567 51.1417 39.361H60.5041C62.288 39.361 64.0763 39.361 65.8646 39.361C67.0104 39.361 67.6962 38.7577 67.7006 37.716C67.7179 33.2367 67.7179 28.7515 67.7006 24.2606C67.7083 24.0504 67.673 23.8408 67.5969 23.6447C67.5208 23.4486 67.4055 23.2701 67.2579 23.1202C67.1104 22.9702 66.9339 22.852 66.739 22.7727C66.5442 22.6933 66.3353 22.6546 66.125 22.6589C64.7491 22.6372 63.3905 22.6633 61.9538 22.6633ZM34.5828 40.8455H30.7198C29.4176 40.8455 28.7883 41.4749 28.7839 42.777C28.7839 47.0422 28.7839 51.3075 28.7839 55.5727C28.7839 56.9139 29.4176 57.5346 30.7632 57.5389H36.2712C39.392 57.5389 42.5172 57.5389 45.638 57.5389C46.7752 57.5389 47.487 56.9313 47.4913 55.9026C47.5087 51.4174 47.5087 46.9323 47.4913 42.4471C47.5149 42.0706 47.3929 41.6993 47.1506 41.4101C46.9082 41.121 46.5641 40.9359 46.1892 40.8932C44.7265 40.8151 43.255 40.8715 41.7402 40.8715C41.7402 43.1242 41.7402 45.3162 41.7185 47.5038C41.7128 47.6829 41.6683 47.8588 41.5881 48.0191C41.5079 48.1794 41.394 48.3205 41.2541 48.4326C41.0501 48.5542 40.577 48.3806 40.3122 48.2026C39.57 47.6948 38.8755 47.1175 38.142 46.5619C37.3433 47.1739 36.6011 47.7729 35.8285 48.3285C35.2078 48.7625 34.6479 48.4847 34.5958 47.7251C34.5958 47.4864 34.5958 47.2477 34.5958 47.009L34.5828 40.8455ZM56.2851 28.1236C56.8407 27.6895 57.2965 27.3683 57.7305 27.0124C57.8932 26.8507 58.1132 26.76 58.3425 26.76C58.5719 26.76 58.7919 26.8507 58.9545 27.0124C59.3886 27.3597 59.8226 27.6939 60.3652 28.0975V22.7067H56.2851V28.1236ZM56.2851 46.2841L57.5091 45.3422C58.2601 44.7606 58.412 44.7649 59.1846 45.3422L60.3522 46.2103V40.8672H56.2851V46.2841ZM40.1516 46.245V40.8672H36.0933V46.2581C36.5837 45.8804 37.0135 45.594 37.3954 45.2511C37.4891 45.1427 37.6051 45.0557 37.7354 44.9961C37.8657 44.9365 38.0073 44.9056 38.1507 44.9056C38.294 44.9056 38.4356 44.9365 38.5659 44.9961C38.6962 45.0557 38.8122 45.1427 38.9059 45.2511C39.2879 45.5809 39.6915 45.8631 40.1646 46.2277L40.1516 46.245Z" fill="#F47170"/>
<path d="M54.9838 14.5131C54.7494 14.2787 54.3978 14.0791 54.3544 13.8447C54.3424 13.6925 54.3687 13.5397 54.4309 13.4002C54.493 13.2607 54.5891 13.139 54.7103 13.0461C55.9647 12.5556 57.2451 12.1259 58.5429 11.7439C58.6987 11.718 58.8586 11.7452 58.997 11.8212C59.1353 11.8973 59.2441 12.0176 59.3058 12.163C59.3674 12.3083 59.3783 12.4702 59.3368 12.6225C59.2953 12.7748 59.2037 12.9087 59.0768 13.0027C57.753 13.5452 56.4074 13.9966 54.9838 14.5131Z" fill="#F47170"/>
</g>
<defs>
<clipPath id="clip0_1561_388">
<rect width="72.4121" height="59" fill="white"/>
</clipPath>
</defs>
</svg>
