<svg width="57" height="59" viewBox="0 0 57 59" fill="none" xmlns="http://www.w3.org/2000/svg">
<g clip-path="url(#clip0_1562_393)">
<path d="M14.3776 49.5338C14.1665 48.7761 13.9825 48.0995 13.7877 47.4284L9.71218 33.4645C9.08976 31.3267 9.79877 29.73 11.8068 28.7666C12.4075 28.4744 13.0029 28.1604 13.6145 27.9061C13.7712 27.8583 13.905 27.7549 13.9907 27.6153C14.0765 27.4758 14.1082 27.3097 14.0799 27.1483C14.0799 23.4463 14.0799 19.7388 14.0799 16.0368C14.0799 14.11 14.789 13.4064 16.7428 13.4064H20.7588V2.45179C20.7588 0.828088 21.5869 0 23.1835 0H34.4195C36.0108 0 36.8226 0.811843 36.828 2.39225C36.828 4.71415 36.828 7.03604 36.828 9.36335C36.8339 9.54176 36.8035 9.71951 36.7388 9.88586C36.674 10.0522 36.5762 10.2037 36.4513 10.3312C36.3263 10.4587 36.1768 10.5595 36.0118 10.6276C35.8468 10.6956 35.6697 10.7296 35.4912 10.7273C35.313 10.7224 35.1375 10.6823 34.9749 10.6094C34.8122 10.5365 34.6656 10.4322 34.5434 10.3024C34.4212 10.1726 34.3258 10.02 34.2628 9.8533C34.1997 9.68658 34.1702 9.50904 34.176 9.33088C34.176 9.1631 34.176 8.99532 34.176 8.82754V2.75488H30.1438C30.1438 3.60462 30.1438 4.45977 30.1438 5.30951C30.1545 5.53054 30.1097 5.75072 30.0135 5.95001C29.9173 6.1493 29.7728 6.32136 29.5931 6.45048C29.4134 6.57961 29.2042 6.66171 28.9847 6.68931C28.7651 6.7169 28.5421 6.68912 28.3361 6.60847C28.0663 6.51188 27.8358 6.32914 27.6803 6.08849C27.5248 5.84784 27.4528 5.56268 27.4755 5.27704V2.73865H23.5028V13.3956H41.0172C42.7762 13.3956 43.5448 14.1641 43.5448 15.9231C43.5448 18.1205 43.5448 20.3179 43.5448 22.5154C43.5448 23.4246 43.1226 23.9821 42.4136 24.0849C41.5205 24.2148 40.8602 23.5816 40.8548 22.5641C40.8548 20.6589 40.8548 18.7754 40.8548 16.8486V16.1126H36.8389C36.8389 16.9352 36.8389 17.7363 36.8389 18.5535C36.8389 19.4899 36.3355 20.0636 35.5345 20.0744C34.7335 20.0852 34.1868 19.5061 34.176 18.5481C34.176 17.7525 34.176 16.9569 34.176 16.1126H30.1438C30.1438 17.3863 30.1438 18.6491 30.1438 19.9012C30.1438 20.3829 29.9977 20.9837 30.2142 21.3138C30.4306 21.644 31.0206 21.6386 31.4211 21.855C34.7443 23.4391 38.0621 25.0285 41.3744 26.6233L45.7801 28.745C47.788 29.7138 48.4862 31.305 47.88 33.4429C46.4368 38.4222 44.9935 43.398 43.5502 48.3701C43.5069 48.5271 43.4744 48.6895 43.3986 49.0196L44.3241 48.316C45.4025 47.3936 46.7749 46.8868 48.194 46.8868C49.613 46.8868 50.9854 47.3936 52.0638 48.316C52.9731 49.0196 53.8661 49.6421 55.0947 49.6421C55.4242 49.6723 55.7285 49.8314 55.9413 50.0848C56.1542 50.3382 56.2584 50.6653 56.2313 50.9951C56.217 51.3231 56.0809 51.634 55.8498 51.8672C55.6186 52.1003 55.3089 52.239 54.9811 52.2562C53.6966 52.3282 52.4278 51.9449 51.3981 51.1737C51.0084 50.8977 50.6349 50.5838 50.2507 50.3024C49.6705 49.8436 48.9525 49.594 48.2129 49.594C47.4733 49.594 46.7553 49.8436 46.1752 50.3024C45.2063 51.0384 44.2808 51.834 43.0522 52.1101C42.1059 52.3549 41.1146 52.3682 40.1621 52.1486C39.2096 51.9291 38.324 51.4833 37.5803 50.849C36.7793 50.1887 35.9566 49.5067 34.8471 49.6475C34.1589 49.7613 33.4913 49.9766 32.8662 50.2861C32.4553 50.5354 32.0692 50.8236 31.7134 51.1467C30.6857 51.902 29.4437 52.3093 28.1683 52.3093C26.8929 52.3093 25.6509 51.902 24.6232 51.1467C24.266 50.8869 23.925 50.6054 23.5732 50.3456C22.9844 49.8642 22.2473 49.6012 21.4867 49.6012C20.7262 49.6012 19.989 49.8642 19.4003 50.3456C18.4639 51.0493 17.5709 51.8286 16.391 52.1047C15.5301 52.3424 14.6272 52.3861 13.7475 52.2326C12.8677 52.0791 12.0329 51.7322 11.3034 51.217C10.9137 50.941 10.5403 50.6325 10.156 50.3456C9.56507 49.8667 8.82749 49.6053 8.06682 49.6053C7.30615 49.6053 6.56859 49.8667 5.97766 50.3456C4.93849 51.1304 3.93179 51.9694 2.59494 52.1696C2.16212 52.2415 1.72389 52.2759 1.28515 52.2724C1.11721 52.2746 0.950527 52.2435 0.794688 52.1808C0.638849 52.1182 0.496944 52.0254 0.377184 51.9076C0.257424 51.7899 0.162172 51.6496 0.0969203 51.4948C0.031669 51.34 -0.00229113 51.1739 -0.0029921 51.006C-0.0177641 50.8382 0.00150047 50.6693 0.0536288 50.5092C0.105757 50.3491 0.189687 50.2012 0.300379 50.0743C0.41107 49.9474 0.546247 49.8442 0.697798 49.7709C0.84935 49.6975 1.01414 49.6555 1.18231 49.6475C2.23242 49.5874 3.22911 49.1646 4.00216 48.4513C6.61091 46.3946 9.4145 46.4 12.0503 48.4513C13.1923 49.2902 13.3655 49.3985 14.3776 49.5338ZM27.4376 24.2635C27.1291 24.3934 26.8964 24.4692 26.7178 24.5666L12.8838 31.2347C12.1531 31.5865 12.0341 31.8787 12.2722 32.7014C13.766 37.8323 15.2616 42.9668 16.759 48.1049C16.8186 48.2998 16.8944 48.4892 16.9756 48.7274C17.3544 48.4459 17.6792 48.1861 18.0201 47.9588C18.7508 47.4236 19.6014 47.0752 20.4976 46.9441C21.3938 46.813 22.3085 46.9031 23.1619 47.2065C24.1597 47.6168 25.0958 48.1632 25.9438 48.8302C26.5415 49.3156 27.2862 49.5836 28.0561 49.5905C28.826 49.5974 29.5754 49.3427 30.1817 48.8681C30.4144 48.6949 30.6471 48.5163 30.8745 48.3268C32.0881 47.3044 33.6545 46.7991 35.2368 46.9196C36.5803 47.0301 37.8539 47.5645 38.8739 48.4459C39.334 48.8085 39.8427 49.1062 40.3515 49.4472C40.4055 49.3496 40.4525 49.2483 40.4922 49.1441C42.1051 43.6055 43.718 38.0704 45.3308 32.539C45.5257 31.8571 45.3308 31.5486 44.6381 31.2076L30.8041 24.5342C30.6093 24.4422 30.4036 24.3772 30.133 24.269V37.1179C30.133 38.3356 29.6459 39.0014 28.7636 38.9851C27.8814 38.9689 27.4376 38.3302 27.4376 37.1449V24.2635ZM16.8024 26.3744C18.767 25.4272 20.6397 24.5017 22.5286 23.6195C24.0765 22.8996 25.6569 22.2447 27.2103 21.5357C27.2871 21.4831 27.3512 21.414 27.398 21.3335C27.4448 21.253 27.4731 21.1631 27.4809 21.0703C27.5134 20.4911 27.4809 19.9012 27.4809 19.3167V16.1288H23.4595C23.4595 17.0218 23.4595 17.8553 23.4595 18.6888C23.4669 18.8718 23.4367 19.0542 23.3709 19.2251C23.3051 19.3959 23.205 19.5515 23.0768 19.6822C22.9487 19.8129 22.7951 19.9161 22.6256 19.9853C22.4561 20.0544 22.2743 20.0882 22.0912 20.0845C21.9082 20.0808 21.7279 20.0397 21.5613 19.9637C21.3947 19.8878 21.2455 19.7785 21.1227 19.6427C20.9999 19.5069 20.9062 19.3474 20.8474 19.1741C20.7885 19.0007 20.7657 18.8172 20.7804 18.6347C20.7804 17.8066 20.7804 16.9731 20.7804 16.1126H16.8024V26.3744Z" fill="#516EFF"/>
<path d="M8.11521 53.5968C9.59424 53.5969 11.0231 54.1334 12.1366 55.1068C12.7294 55.6932 13.4828 56.0906 14.3015 56.2488C14.822 56.3121 15.3499 56.2617 15.8489 56.101C16.3479 55.9402 16.8061 55.673 17.1917 55.3179C18.3403 54.225 19.8605 53.6081 21.4458 53.5914C22.7111 53.5761 23.9473 53.9711 24.9693 54.7171C25.359 54.9986 25.7324 55.3017 26.1167 55.5885C26.6915 56.0359 27.3971 56.2824 28.1255 56.2902C28.8538 56.2981 29.5646 56.0668 30.1489 55.6318C30.4899 55.3882 30.8092 55.1176 31.1393 54.8687C32.1998 54.0311 33.5117 53.5755 34.863 53.5755C36.2144 53.5755 37.5263 54.0311 38.5867 54.8687L39.4256 55.5236C40.0133 56.0085 40.7499 56.2765 41.5118 56.2824C42.2736 56.2883 43.0143 56.0318 43.6094 55.556C43.8908 55.3504 44.1506 55.1176 44.4483 54.9011C45.4994 54.0531 46.8057 53.5844 48.1561 53.5706C49.5066 53.5569 50.8222 53.9989 51.8903 54.8254C52.1771 55.0364 52.4315 55.2584 52.7346 55.4803C53.2978 55.9576 54.0049 56.232 54.7426 56.2596C55.6898 56.2975 56.2797 56.8929 56.231 57.6831C56.1823 58.4733 55.4895 58.9983 54.5261 58.9442C53.0936 58.8494 51.738 58.2624 50.6887 57.2826C49.747 56.4599 48.6699 56.0107 47.4413 56.3733C46.757 56.622 46.1215 56.9883 45.5632 57.4558C44.6239 58.2289 43.4921 58.7321 42.2888 58.9117C41.4995 59.0425 40.6913 58.9999 39.9202 58.7868C39.1491 58.5737 38.4337 58.1952 37.8236 57.6777C35.7777 55.8591 34.0349 55.8266 31.8267 57.6777C30.8066 58.5177 29.5308 58.9851 28.2094 59.0028C26.8881 59.0205 25.6002 58.5875 24.5579 57.7751C24.2169 57.5261 23.8922 57.2663 23.5621 57.012C22.9669 56.54 22.2297 56.2831 21.4702 56.2831C20.7106 56.2831 19.9734 56.54 19.3783 57.012C19.0103 57.2826 18.6585 57.5803 18.2958 57.8509C17.2805 58.585 16.0611 58.9833 14.8082 58.9901C13.5554 58.9969 12.3317 58.6118 11.3085 57.8888C10.8972 57.5965 10.5075 57.2772 10.1015 56.9795C9.51444 56.5344 8.79788 56.2934 8.0611 56.2934C7.32432 56.2934 6.60774 56.5344 6.02063 56.9795C5.58223 57.3042 5.16007 57.6452 4.71625 57.9591C3.76438 58.6246 2.63027 58.9799 1.46885 58.9766C1.29077 58.9899 1.11184 58.968 0.942262 58.912C0.772682 58.8561 0.615796 58.7673 0.480574 58.6506C0.345351 58.534 0.234436 58.3919 0.154194 58.2324C0.0739526 58.0728 0.0259453 57.8991 0.0129229 57.721C-0.002633 57.5473 0.0174161 57.3722 0.0718231 57.2064C0.12623 57.0407 0.213857 56.8878 0.329359 56.7571C0.44486 56.6265 0.585807 56.5207 0.743577 56.4463C0.901346 56.3719 1.07262 56.3305 1.24694 56.3246C2.34019 56.2521 3.37216 55.7937 4.15878 55.031C5.25511 54.0806 6.6645 53.5697 8.11521 53.5968Z" fill="#516EFF"/>
</g>
<defs>
<clipPath id="clip0_1562_393">
<rect width="56.2668" height="59" fill="white"/>
</clipPath>
</defs>
</svg>
