<svg width="59" height="47" viewBox="0 0 59 47" fill="none" xmlns="http://www.w3.org/2000/svg">
<g clip-path="url(#clip0_1562_397)">
<path d="M-0.00320331 35.6076C0.320989 35.1359 0.765025 35.0022 1.33351 35.0222C2.40904 35.0575 3.4738 35.0314 4.60617 35.0314V19.6745C4.60617 18.2287 5.31602 17.5234 6.75721 17.5234H16.5905V2.15886C16.5905 0.719195 17.305 0.0078125 18.7523 0.0078125H40.2428C41.6993 0.0078125 42.403 0.706903 42.403 2.15886C42.403 7.03762 42.403 11.9154 42.403 16.7921V17.5234H52.2948C53.6653 17.5234 54.3859 18.2471 54.3874 19.6238C54.3874 24.5025 54.3874 29.3808 54.3874 34.2585V35.0375H56.1636C56.6629 35.0375 57.1638 35.0683 57.6601 35.0298C58.2255 34.9868 58.6711 35.1451 58.9968 35.6137V40.9099C58.7125 41.1434 58.4268 41.3708 58.0749 41.6612C58.0749 42.6691 58.0749 43.7815 58.0749 44.8878C58.0749 45.7851 57.7676 46.0893 56.8565 46.0893H48.7379C47.1277 46.0893 47.0124 45.974 47.0124 44.3592V41.5321H35.028C35.028 42.6722 35.028 43.7662 35.028 44.8586C35.028 45.7974 34.7208 46.0877 33.7866 46.0877H25.207C24.2636 46.0877 23.9686 45.7927 23.9655 44.8586C23.9655 43.7523 23.9655 42.6445 23.9655 41.5198H12.0349C12.0144 41.5639 11.9994 41.6104 11.9904 41.6581C11.9904 42.7521 11.9904 43.846 11.9796 44.94C11.9796 45.7682 11.6554 46.0923 10.8304 46.0939C7.91417 46.0939 4.99489 46.0939 2.07255 46.0939C1.24133 46.0939 0.917135 45.7728 0.914062 44.9508C0.914062 43.8199 0.914062 42.6876 0.914062 41.6597L-0.0078125 40.9083L-0.00320331 35.6076ZM32.7234 1.86693C32.7234 3.34654 32.7234 4.76622 32.7234 6.18437C32.7234 7.05401 32.4161 7.37206 31.5526 7.37513C30.2466 7.37513 28.9406 7.37513 27.6346 7.37513C26.5299 7.37513 26.2718 7.12161 26.2718 6.03073V1.88383H18.4758V17.4881H40.5255V1.86693H32.7234ZM6.48372 19.3826V34.9914H28.5288V19.3995H20.739C20.739 20.8883 20.739 22.3433 20.739 23.7983C20.739 24.5543 20.3994 24.8908 19.6481 24.8954C18.2274 24.9025 16.8067 24.9025 15.386 24.8954C14.63 24.8954 14.2951 24.5573 14.2905 23.806C14.2812 22.6537 14.2905 21.5013 14.2905 20.349V19.3933L6.48372 19.3826ZM38.2546 19.3979H30.4463V34.993H52.5099V19.3872H44.7077C44.7077 20.8483 44.7077 22.2834 44.7077 23.7184C44.7077 24.5758 44.3882 24.8877 43.5185 24.8908C42.1552 24.8908 40.7918 24.8908 39.4285 24.8908C38.5711 24.8908 38.2592 24.5712 38.2577 23.7015C38.2531 22.2819 38.2546 20.8622 38.2546 19.3995V19.3979ZM1.8682 39.6023H57.1069V36.9043H1.8682V39.6023ZM10.1113 41.5152H2.7993V44.2102H10.1113V41.5152ZM33.1582 44.2256V41.5245H25.8523V44.2286L33.1582 44.2256ZM56.2235 41.5337H48.8946V44.2086H56.2173L56.2235 41.5337ZM30.8719 1.89305H28.1524V5.48836H30.8673L30.8719 1.89305ZM16.1772 19.3733V23.0086H18.8522V19.3733H16.1772ZM42.8302 19.3995H40.1429V23.0194H42.8302V19.3995Z" fill="#157292"/>
</g>
<defs>
<clipPath id="clip0_1562_397">
<rect width="59" height="46.0953" fill="white"/>
</clipPath>
</defs>
</svg>
