<svg width="63" height="63" viewBox="0 0 63 63" fill="none" xmlns="http://www.w3.org/2000/svg">
<circle cx="31.165" cy="31.165" r="31.165" fill="#ED1D24"/>
<path d="M40.1755 22.2422H22.3806C21.1572 22.2422 20.1674 23.2588 20.1674 24.5013L20.1562 38.056C20.1562 39.2985 21.1572 40.3151 22.3806 40.3151H40.1755C41.3989 40.3151 42.3999 39.2985 42.3999 38.056V24.5013C42.3999 23.2588 41.3989 22.2422 40.1755 22.2422ZM39.7306 27.0428L31.8675 32.0355C31.5116 32.2614 31.0445 32.2614 30.6886 32.0355L22.8255 27.0428C22.714 26.9792 22.6163 26.8933 22.5384 26.7903C22.4605 26.6873 22.404 26.5693 22.3724 26.4434C22.3407 26.3176 22.3345 26.1865 22.3541 26.0582C22.3737 25.9298 22.4188 25.8069 22.4866 25.6967C22.5544 25.5866 22.6434 25.4915 22.7484 25.4174C22.8534 25.3432 22.9721 25.2914 23.0974 25.2652C23.2227 25.239 23.3519 25.2389 23.4772 25.2648C23.6025 25.2908 23.7213 25.3423 23.8264 25.4162L31.2781 30.1491L38.7297 25.4162C38.8348 25.3423 38.9536 25.2908 39.0789 25.2648C39.2043 25.2389 39.3334 25.239 39.4587 25.2652C39.584 25.2914 39.7027 25.3432 39.8077 25.4174C39.9127 25.4915 40.0017 25.5866 40.0695 25.6967C40.1373 25.8069 40.1824 25.9298 40.202 26.0582C40.2217 26.1865 40.2154 26.3176 40.1838 26.4434C40.1521 26.5693 40.0956 26.6873 40.0177 26.7903C39.9398 26.8933 39.8421 26.9792 39.7306 27.0428Z" fill="white"/>
</svg>
