<svg width="23" height="19" viewBox="0 0 23 19" fill="none" xmlns="http://www.w3.org/2000/svg">
<path d="M20.1755 0.570312H2.38061C1.15721 0.570312 0.167372 1.58692 0.167372 2.82943L0.15625 16.3841C0.15625 17.6266 1.15721 18.6432 2.38061 18.6432H20.1755C21.3989 18.6432 22.3999 17.6266 22.3999 16.3841V2.82943C22.3999 1.58692 21.3989 0.570312 20.1755 0.570312ZM19.7306 5.37094L11.8675 10.3636C11.5116 10.5895 11.0445 10.5895 10.6886 10.3636L2.82548 5.37094C2.71396 5.30735 2.6163 5.22145 2.53842 5.11843C2.46053 5.0154 2.40404 4.8974 2.37235 4.77156C2.34067 4.64572 2.33446 4.51466 2.35409 4.38631C2.37373 4.25796 2.4188 4.13499 2.48658 4.02484C2.55436 3.9147 2.64345 3.81966 2.74844 3.7455C2.85343 3.67133 2.97215 3.61957 3.09741 3.59335C3.22266 3.56713 3.35186 3.56699 3.47717 3.59295C3.60248 3.61891 3.7213 3.67042 3.82645 3.74437L11.2781 8.47722L18.7297 3.74437C18.8348 3.67042 18.9536 3.61891 19.0789 3.59295C19.2043 3.56699 19.3334 3.56713 19.4587 3.59335C19.584 3.61957 19.7027 3.67133 19.8077 3.7455C19.9127 3.81966 20.0017 3.9147 20.0695 4.02484C20.1373 4.13499 20.1824 4.25796 20.202 4.38631C20.2217 4.51466 20.2154 4.64572 20.1838 4.77156C20.1521 4.8974 20.0956 5.0154 20.0177 5.11843C19.9398 5.22145 19.8421 5.30735 19.7306 5.37094Z" fill="white"/>
</svg>
