<svg width="63" height="63" viewBox="0 0 63 63" fill="none" xmlns="http://www.w3.org/2000/svg">
<circle cx="31.1656" cy="31.1656" r="31.1656" fill="#ED1D24"/>
<path fill-rule="evenodd" clip-rule="evenodd" d="M30.2522 45.478C30.2522 45.478 20.1562 36.7301 20.1562 28.1224C20.1562 25.0876 21.328 22.1771 23.4138 20.0312C25.4996 17.8853 28.3285 16.6797 31.2783 16.6797C34.228 16.6797 37.0569 17.8853 39.1427 20.0312C41.2285 22.1771 42.4003 25.0876 42.4003 28.1224C42.4003 36.7301 32.3043 45.478 32.3043 45.478C31.7426 46.0101 30.8181 46.0044 30.2522 45.478ZM31.2783 33.1285C31.9172 33.1285 32.55 32.999 33.1403 32.7474C33.7307 32.4959 34.2671 32.1271 34.7189 31.6622C35.1708 31.1974 35.5292 30.6455 35.7737 30.0381C36.0183 29.4308 36.1441 28.7798 36.1441 28.1224C36.1441 27.4649 36.0183 26.814 35.7737 26.2066C35.5292 25.5992 35.1708 25.0473 34.7189 24.5825C34.2671 24.1176 33.7307 23.7488 33.1403 23.4973C32.55 23.2457 31.9172 23.1162 31.2783 23.1162C29.9877 23.1162 28.7501 23.6436 27.8376 24.5825C26.925 25.5213 26.4124 26.7946 26.4124 28.1224C26.4124 29.4501 26.925 30.7234 27.8376 31.6622C28.7501 32.6011 29.9877 33.1285 31.2783 33.1285Z" fill="white"/>
</svg>
