<svg width="23" height="30" viewBox="0 0 23 30" fill="none" xmlns="http://www.w3.org/2000/svg">
<path fill-rule="evenodd" clip-rule="evenodd" d="M10.2522 29.478C10.2522 29.478 0.15625 20.7301 0.15625 12.1224C0.15625 9.08757 1.32803 6.17708 3.41381 4.03117C5.49959 1.88525 8.32851 0.679688 11.2783 0.679688C14.228 0.679688 17.0569 1.88525 19.1427 4.03117C21.2285 6.17708 22.4003 9.08757 22.4003 12.1224C22.4003 20.7301 12.3043 29.478 12.3043 29.478C11.7426 30.0101 10.8181 30.0044 10.2522 29.478ZM11.2783 17.1285C11.9172 17.1285 12.55 16.999 13.1403 16.7474C13.7307 16.4959 14.2671 16.1271 14.7189 15.6622C15.1708 15.1974 15.5292 14.6455 15.7737 14.0381C16.0183 13.4308 16.1441 12.7798 16.1441 12.1224C16.1441 11.4649 16.0183 10.814 15.7737 10.2066C15.5292 9.5992 15.1708 9.04733 14.7189 8.58246C14.2671 8.11759 13.7307 7.74884 13.1403 7.49726C12.55 7.24568 11.9172 7.11619 11.2783 7.11619C9.98774 7.11619 8.75009 7.64362 7.83756 8.58246C6.92503 9.5213 6.41238 10.7946 6.41238 12.1224C6.41238 13.4501 6.92503 14.7234 7.83756 15.6622C8.75009 16.6011 9.98774 17.1285 11.2783 17.1285Z" fill="white"/>
</svg>
