<svg width="63" height="63" viewBox="0 0 63 63" fill="none" xmlns="http://www.w3.org/2000/svg">
<circle cx="31.165" cy="31.165" r="31.165" fill="#ED1D24"/>
<path d="M40.2517 35.3249L37.1065 34.9658C36.7367 34.9223 36.3618 34.9633 36.0101 35.0855C35.6584 35.2078 35.339 35.4082 35.0758 35.6716L32.7974 37.95C29.2825 36.1619 26.4255 33.3048 24.6374 29.7899L26.9281 27.4991C27.4606 26.9667 27.7206 26.2237 27.6339 25.4684L27.2748 22.348C27.2049 21.7438 26.9151 21.1865 26.4606 20.7823C26.0062 20.3781 25.4189 20.1553 24.8107 20.1563H22.6685C21.2693 20.1563 20.1054 21.3202 20.192 22.7194C20.8483 33.2941 29.3056 41.739 39.8678 42.3953C41.267 42.482 42.431 41.318 42.431 39.9188V37.7766C42.4434 36.526 41.5023 35.4735 40.2517 35.3249Z" fill="white"/>
</svg>
