<svg width="23" height="23" viewBox="0 0 23 23" fill="none" xmlns="http://www.w3.org/2000/svg">
<path d="M20.2048 15.3249L17.0596 14.9658C16.6898 14.9223 16.315 14.9633 15.9633 15.0855C15.6115 15.2078 15.2921 15.4082 15.0289 15.6716L12.7505 17.95C9.23564 16.1619 6.37859 13.3048 4.59049 9.78988L6.88125 7.4991C7.41369 6.96665 7.67372 6.2237 7.58705 5.46837L7.22795 2.34796C7.15801 1.74381 6.8682 1.18651 6.41376 0.782306C5.95932 0.378103 5.37203 0.155259 4.76384 0.156253H2.62167C1.22245 0.156253 0.0584963 1.32021 0.145174 2.71944C0.801445 13.2941 9.25868 21.739 19.8209 22.3953C21.2202 22.482 22.3841 21.318 22.3841 19.9188V17.7766C22.3965 16.526 21.4554 15.4735 20.2048 15.3249Z" fill="white"/>
</svg>
