<svg width="23" height="25" viewBox="0 0 23 25" fill="none" xmlns="http://www.w3.org/2000/svg">
<path d="M11.9422 24.197L11.93 24.1992L11.851 24.2382L11.8287 24.2426L11.8132 24.2382L11.7342 24.1992C11.7223 24.1955 11.7134 24.1974 11.7075 24.2048L11.7031 24.2159L11.6842 24.692L11.6897 24.7142L11.7008 24.7287L11.8165 24.811L11.8332 24.8155L11.8465 24.811L11.9622 24.7287L11.9756 24.7109L11.98 24.692L11.9611 24.217C11.9581 24.2052 11.9518 24.1985 11.9422 24.197ZM12.2369 24.0713L12.2225 24.0735L12.0167 24.177L12.0056 24.1881L12.0022 24.2003L12.0223 24.6786L12.0278 24.692L12.0367 24.6998L12.2603 24.8032C12.2744 24.8069 12.2851 24.804 12.2925 24.7943L12.297 24.7787L12.2592 24.0958C12.2554 24.0824 12.248 24.0743 12.2369 24.0713ZM11.4417 24.0735C11.4368 24.0706 11.4309 24.0696 11.4253 24.0708C11.4198 24.0721 11.4149 24.0754 11.4117 24.0802L11.405 24.0958L11.3672 24.7787C11.3679 24.7921 11.3742 24.801 11.3861 24.8054L11.4028 24.8032L11.6263 24.6998L11.6374 24.6909L11.6419 24.6786L11.6608 24.2003L11.6575 24.187L11.6463 24.1759L11.4417 24.0735Z" fill="white"/>
<path d="M11.2781 0.554688C17.4206 0.554688 22.3999 5.53455 22.3999 11.6779C22.3999 17.8213 17.4206 22.8011 11.2781 22.8011C5.13548 22.8011 0.15625 17.8213 0.15625 11.6779C0.15625 5.53455 5.13548 0.554688 11.2781 0.554688ZM11.2781 2.77933C8.91831 2.77933 6.65521 3.71686 4.98661 5.38566C3.31802 7.05447 2.38061 9.31786 2.38061 11.6779C2.38061 14.038 3.31802 16.3013 4.98661 17.9701C6.65521 19.639 8.91831 20.5765 11.2781 20.5765C13.6378 20.5765 15.9009 19.639 17.5695 17.9701C19.2381 16.3013 20.1755 14.038 20.1755 11.6779C20.1755 9.31786 19.2381 7.05447 17.5695 5.38566C15.9009 3.71686 13.6378 2.77933 11.2781 2.77933ZM11.2781 5.00398C11.5505 5.00401 11.8134 5.10404 12.017 5.28508C12.2205 5.46612 12.3506 5.71558 12.3825 5.98616L12.3902 6.1163V11.2174L15.4009 14.2285C15.6004 14.4286 15.7162 14.6972 15.7248 14.9797C15.7334 15.2622 15.6342 15.5373 15.4473 15.7493C15.2605 15.9613 14.9999 16.0942 14.7186 16.121C14.4373 16.1478 14.1564 16.0665 13.9328 15.8936L13.8283 15.8013L10.4917 12.4643C10.3189 12.2913 10.2079 12.0661 10.1759 11.8236L10.1659 11.6779V6.1163C10.1659 5.82129 10.2831 5.53837 10.4916 5.32977C10.7002 5.12117 10.9831 5.00398 11.2781 5.00398Z" fill="white"/>
</svg>
