<svg width="63" height="63" viewBox="0 0 63 63" fill="none" xmlns="http://www.w3.org/2000/svg">
<circle cx="31.165" cy="31.165" r="31.165" fill="#ED1D24"/>
<path d="M31.9422 42.8689L31.93 42.8711L31.851 42.91L31.8287 42.9145L31.8132 42.91L31.7342 42.8711C31.7223 42.8674 31.7134 42.8692 31.7075 42.8767L31.7031 42.8878L31.6842 43.3639L31.6897 43.3861L31.7008 43.4006L31.8165 43.4829L31.8332 43.4873L31.8465 43.4829L31.9622 43.4006L31.9756 43.3828L31.98 43.3639L31.9611 42.8889C31.9581 42.877 31.9518 42.8704 31.9422 42.8689ZM32.2369 42.7432L32.2225 42.7454L32.0167 42.8489L32.0056 42.86L32.0022 42.8722L32.0223 43.3505L32.0278 43.3639L32.0367 43.3716L32.2603 43.4751C32.2744 43.4788 32.2851 43.4758 32.2925 43.4662L32.297 43.4506L32.2592 42.7677C32.2554 42.7543 32.248 42.7462 32.2369 42.7432ZM31.4417 42.7454C31.4368 42.7424 31.4309 42.7415 31.4253 42.7427C31.4198 42.744 31.4149 42.7473 31.4117 42.7521L31.405 42.7677L31.3672 43.4506C31.3679 43.464 31.3742 43.4729 31.3861 43.4773L31.4028 43.4751L31.6263 43.3716L31.6374 43.3627L31.6419 43.3505L31.6608 42.8722L31.6575 42.8589L31.6463 42.8477L31.4417 42.7454Z" fill="white"/>
<path d="M31.2781 19.2266C37.4206 19.2266 42.3999 24.2064 42.3999 30.3498C42.3999 36.4931 37.4206 41.473 31.2781 41.473C25.1355 41.473 20.1562 36.4931 20.1562 30.3498C20.1562 24.2064 25.1355 19.2266 31.2781 19.2266ZM31.2781 21.4512C28.9183 21.4512 26.6552 22.3887 24.9866 24.0575C23.318 25.7263 22.3806 27.9897 22.3806 30.3498C22.3806 32.7098 23.318 34.9732 24.9866 36.642C26.6552 38.3108 28.9183 39.2484 31.2781 39.2484C33.6378 39.2484 35.9009 38.3108 37.5695 36.642C39.2381 34.9732 40.1755 32.7098 40.1755 30.3498C40.1755 27.9897 39.2381 25.7263 37.5695 24.0575C35.9009 22.3887 33.6378 21.4512 31.2781 21.4512ZM31.2781 23.6759C31.5505 23.6759 31.8134 23.7759 32.017 23.957C32.2205 24.138 32.3506 24.3875 32.3825 24.658L32.3902 24.7882V29.8893L35.4009 32.9003C35.6004 33.1005 35.7162 33.3691 35.7248 33.6516C35.7334 33.9341 35.6342 34.2092 35.4473 34.4212C35.2605 34.6332 34.9999 34.766 34.7186 34.7928C34.4373 34.8196 34.1564 34.7384 33.9328 34.5655L33.8283 34.4732L30.4917 31.1362C30.3189 30.9632 30.2079 30.738 30.1759 30.4955L30.1659 30.3498V24.7882C30.1659 24.4932 30.2831 24.2102 30.4916 24.0016C30.7002 23.793 30.9831 23.6759 31.2781 23.6759Z" fill="white"/>
</svg>
