<svg width="23" height="23" viewBox="0 0 23 23" fill="none" xmlns="http://www.w3.org/2000/svg">
<g clip-path="url(#clip0_1203_1528)">
<path d="M0.1875 22.7277C0.358349 22.1035 0.520445 21.5111 0.682892 20.9187C1.01969 19.6912 1.36069 18.4649 1.68803 17.2347C1.71988 17.1053 1.70552 16.969 1.64742 16.849C-1.36099 11.392 0.747661 4.52755 6.3069 1.70137C12.4512 -1.42363 19.9198 1.71881 21.9441 8.2802C23.7296 14.0724 20.4453 20.2753 14.6239 22.0537C11.7331 22.9334 8.9281 22.6579 6.22673 21.3033C6.11179 21.2504 5.98246 21.2372 5.85912 21.2656C4.05261 21.7287 2.24609 22.2019 0.439922 22.6722C0.367802 22.6928 0.29393 22.704 0.1875 22.7277ZM2.84266 20.1208C3.95318 19.8307 5.01748 19.557 6.07899 19.2711C6.25929 19.2226 6.39688 19.247 6.55582 19.3408C8.60391 20.5658 10.8134 20.9685 13.1531 20.5048C18.1144 19.5221 21.33 14.7426 20.3949 9.78273C19.4661 4.85532 14.6134 1.56468 9.65806 2.50337C3.46129 3.67533 0.233363 10.5582 3.34995 16.0122C3.67275 16.5771 3.73857 17.0415 3.53726 17.6367C3.26663 18.4353 3.07758 19.2634 2.84266 20.1201V20.1208Z" fill="white"/>
<path d="M7.7764 6.44024C8.24448 6.32448 8.4745 6.60553 8.6387 7.02884C8.88972 7.67602 9.16385 8.31448 9.43937 8.95189C9.5353 9.17367 9.5269 9.37033 9.38266 9.56002C9.16385 9.85013 8.95414 10.1476 8.72272 10.4269C8.56622 10.6159 8.55222 10.7843 8.67756 10.9942C9.58116 12.5058 10.8422 13.5993 12.487 14.2521C12.7132 14.3417 12.8917 14.3009 13.0433 14.1126C13.3146 13.775 13.5919 13.4424 13.8608 13.1014C14.0582 12.8517 14.172 12.7896 14.456 12.9187C15.2374 13.2741 16.0119 13.6444 16.7796 14.0296C16.8745 14.077 16.9595 14.2514 16.9578 14.3654C16.9403 15.5405 16.593 16.1036 15.3361 16.6302C14.623 16.9286 13.8825 16.8586 13.1469 16.6546C10.4785 15.9143 8.51231 14.2433 6.93931 12.041C6.45092 11.3568 6.01014 10.6514 5.82284 9.82189C5.55326 8.62796 5.84805 7.59303 6.72925 6.72896C7.01563 6.44861 7.36223 6.39317 7.7764 6.44024Z" fill="white"/>
</g>
<defs>
<clipPath id="clip0_1203_1528">
<rect width="22.2436" height="22.2436" fill="white" transform="translate(0.1875 0.484375)"/>
</clipPath>
</defs>
</svg>
