<svg width="63" height="63" viewBox="0 0 63 63" fill="none" xmlns="http://www.w3.org/2000/svg">
<circle cx="31.165" cy="31.165" r="31.165" fill="#ED1D24"/>
<g clip-path="url(#clip0_1203_1521)">
<path d="M20.1875 42.3996C20.3583 41.7754 20.5204 41.183 20.6829 40.5905C21.0197 39.3631 21.3607 38.1368 21.688 36.9066C21.7199 36.7772 21.7055 36.6409 21.6474 36.5209C18.639 31.0638 20.7477 24.1994 26.3069 21.3732C32.4512 18.2482 39.9198 21.3907 41.9441 27.9521C43.7296 33.7443 40.4453 39.9472 34.6239 41.7255C31.7331 42.6053 28.9281 42.3298 26.2267 40.9751C26.1118 40.9223 25.9825 40.909 25.8591 40.9375C24.0526 41.4006 22.2461 41.8737 20.4399 42.3441C20.3678 42.3647 20.2939 42.3759 20.1875 42.3996ZM22.8427 39.7927C23.9532 39.5026 25.0175 39.2289 26.079 38.9429C26.2593 38.8945 26.3969 38.9189 26.5558 39.0127C28.6039 40.2377 30.8134 40.6404 33.1531 40.1766C38.1144 39.194 41.33 34.4144 40.3949 29.4546C39.4661 24.5272 34.6134 21.2366 29.6581 22.1752C23.4613 23.3472 20.2334 30.2301 23.35 35.684C23.6727 36.2489 23.7386 36.7134 23.5373 37.3086C23.2666 38.1071 23.0776 38.9353 22.8427 39.792V39.7927Z" fill="white"/>
<path d="M27.7764 26.1121C28.2445 25.9964 28.4745 26.2774 28.6387 26.7007C28.8897 27.3479 29.1638 27.9864 29.4394 28.6238C29.5353 28.8455 29.5269 29.0422 29.3827 29.2319C29.1638 29.522 28.9541 29.8194 28.7227 30.0988C28.5662 30.2877 28.5522 30.4562 28.6776 30.6661C29.5812 32.1777 30.8422 33.2712 32.487 33.9239C32.7132 34.0136 32.8917 33.9728 33.0433 33.7845C33.3146 33.4469 33.5919 33.1143 33.8608 32.7732C34.0582 32.5236 34.172 32.4615 34.456 32.5905C35.2374 32.946 36.0119 33.3163 36.7796 33.7015C36.8745 33.7489 36.9595 33.9232 36.9578 34.0373C36.9403 35.2124 36.593 35.7755 35.3361 36.302C34.623 36.6005 33.8825 36.5304 33.1469 36.3264C30.4785 35.5862 28.5123 33.9152 26.9393 31.7129C26.4509 31.0287 26.0101 30.3233 25.8228 29.4938C25.5533 28.2998 25.848 27.2649 26.7292 26.4008C27.0156 26.1205 27.3622 26.065 27.7764 26.1121Z" fill="white"/>
</g>
<defs>
<clipPath id="clip0_1203_1521">
<rect width="22.2436" height="22.2436" fill="white" transform="translate(20.1875 20.1562)"/>
</clipPath>
</defs>
</svg>
