<svg width="69" height="69" viewBox="0 0 69 69" fill="none" xmlns="http://www.w3.org/2000/svg">
<circle cx="34.5683" cy="34.4355" r="33.6933" fill="url(#paint0_linear_1183_6462)"/>
<path d="M32.5749 24.5625C33.0383 24.5625 33.4356 24.728 33.7666 25.0591C34.0315 25.3901 34.1639 25.7874 34.1639 26.2508C34.1639 26.7805 34.0646 27.3102 33.8659 27.8398L28.6023 41.4458C28.2713 42.1079 27.9402 42.6376 27.6092 43.0348C27.2119 43.4983 26.583 43.73 25.7222 43.73L22.4449 43.73C21.9152 43.73 21.518 43.5314 21.2531 43.1341C20.9221 42.7369 20.8228 42.2072 20.9552 41.5451L23.1401 27.4426C23.2063 26.6481 23.4711 25.9529 23.9346 25.357C24.3981 24.8273 25.0933 24.5625 26.0202 24.5625L32.5749 24.5625ZM48.465 24.5625C48.9285 24.5625 49.3258 24.728 49.6568 25.0591C49.9216 25.3901 50.0541 25.7874 50.0541 26.2508C50.0541 26.7805 49.9547 27.3102 49.7561 27.8398L44.4925 41.4458C44.1614 42.1079 43.7973 42.6376 43.4 43.0348C43.0028 43.4983 42.4069 43.73 41.6124 43.73H38.3351C37.8054 43.73 37.4081 43.5314 37.1433 43.1341C36.8122 42.7369 36.7129 42.2072 36.8454 41.5451L39.0303 27.4426C39.0965 26.6481 39.3613 25.9529 39.8248 25.357C40.2882 24.8273 40.9503 24.5625 41.811 24.5625L48.465 24.5625Z" fill="#091242"/>
<defs>
<linearGradient id="paint0_linear_1183_6462" x1="-1.03545" y1="15.3426" x2="83.7375" y2="21.3627" gradientUnits="userSpaceOnUse">
<stop stop-color="white"/>
<stop offset="0.507189" stop-color="#FFF8E1"/>
<stop offset="1" stop-color="#FFDCB2"/>
</linearGradient>
</defs>
</svg>
