<svg width="85" height="85" viewBox="0 0 85 85" fill="none" xmlns="http://www.w3.org/2000/svg">
<path d="M42.0875 84.175C65.3318 84.175 84.175 65.3318 84.175 42.0875C84.175 18.8432 65.3318 0 42.0875 0C18.8432 0 0 18.8432 0 42.0875C0 65.3318 18.8432 84.175 42.0875 84.175Z" fill="#ED1D24"/>
<path d="M34.9149 51.7339H22.6829L20.6589 57.5859H14.1909L25.2349 26.8299H32.4069L43.4509 57.5859H36.9389L34.9149 51.7339ZM33.2429 46.8059L28.7989 33.9579L24.3549 46.8059H33.2429ZM73.055 26.8739V57.5859H66.895V44.5179H53.739V57.5859H47.579V26.8739H53.739V39.5019H66.895V26.8739H73.055Z" fill="white"/>
</svg>
