<svg width="59" height="59" viewBox="0 0 59 59" fill="none" xmlns="http://www.w3.org/2000/svg">
<g clip-path="url(#clip0_1202_1395)">
<path d="M44.1708 59.0022C43.6269 58.6235 43.0168 58.3142 42.5531 57.8555C39.0098 54.3601 35.5049 50.8324 31.9801 47.3201C31.5071 46.8491 31.1836 46.3289 31.3007 45.6347C31.4547 44.7297 32.1434 44.1787 33.1494 44.1648C34.1554 44.151 35.1876 44.1648 36.2059 44.1648C36.3939 44.1648 36.5818 44.1494 36.8422 44.1371V43.4368C36.8422 37.9985 36.8422 32.5648 36.8422 27.1357C36.8589 26.9496 36.823 26.7625 36.7386 26.5957C36.6541 26.4289 36.5246 26.2891 36.3646 26.1922C31.5703 22.8831 29.2779 16.9682 30.5643 11.2225C31.1939 8.4424 32.6389 5.91294 34.7146 3.95735C36.7903 2.00176 39.4024 0.70885 42.2173 0.243814C47.3582 -0.579628 51.7227 1.00261 55.3123 4.75966C55.6297 5.09212 55.8546 5.49999 55.5419 5.88478C55.4266 6.01093 55.2872 6.1127 55.1318 6.18408C54.9765 6.25546 54.8084 6.29499 54.6375 6.30034C54.3941 6.30034 54.123 6.00329 53.9181 5.78781C52.3897 4.15103 50.4541 2.9486 48.3088 2.30319C39.5628 -0.334903 31.0049 6.79903 32.034 15.8692C32.7349 22.0396 37.9391 26.8895 44.0722 27.0849C50.4826 27.2912 55.9932 22.8815 57.0994 16.6773C57.544 14.2647 57.2731 11.7748 56.3198 9.51408C56.2752 9.40788 56.2228 9.30475 56.1889 9.19547C56.0348 8.70449 56.2182 8.27199 56.6418 8.08421C57.0948 7.88566 57.6062 8.03804 57.7711 8.55827C58.1963 9.90502 58.7417 11.2548 58.8911 12.6401C59.5073 18.358 57.3936 22.9092 52.7595 26.3108C52.6672 26.3825 52.5904 26.4723 52.534 26.5748C52.4775 26.6772 52.4426 26.79 52.4314 26.9064C52.4129 32.5325 52.4088 38.1581 52.4191 43.7831C52.4191 43.8924 52.4406 44.0032 52.4576 44.1664C53.5961 44.1664 54.7053 44.1664 55.8145 44.1664C56.1016 44.1607 56.3884 44.1871 56.6696 44.2449C56.9366 44.3079 57.1843 44.4348 57.3915 44.6147C57.5986 44.7945 57.7589 45.0219 57.8586 45.2773C57.9583 45.5327 57.9944 45.8085 57.9639 46.0809C57.9334 46.3534 57.8371 46.6143 57.6833 46.8414C57.5253 47.0586 57.3468 47.2601 57.1502 47.4432C53.6747 50.9201 50.2037 54.4047 46.705 57.8601C46.2428 58.3219 45.6266 58.6297 45.0874 59.0052L44.1708 59.0022ZM38.5707 27.4959V28.3024C38.5707 33.3123 38.5353 38.3222 38.5892 43.3321C38.6092 45.1129 38.1101 46.0318 36.0087 45.8979C35.0643 45.8394 34.1122 45.8887 33.0569 45.8887C33.2279 46.0888 33.3065 46.1965 33.3974 46.2842C36.9418 49.8294 40.4851 53.372 44.0275 56.912C44.522 57.4076 44.7254 57.4076 45.2245 56.912C48.773 53.371 52.3189 49.8278 55.8623 46.2827C55.958 46.1725 56.0465 46.0563 56.1273 45.9348C56.0692 45.9178 56.01 45.905 55.9501 45.8964C54.9117 45.8964 53.8739 45.8964 52.8366 45.8964C51.2775 45.8964 50.6798 45.3038 50.6798 43.7416C50.6798 38.5772 50.6798 33.4139 50.6798 28.2516V27.4974C46.6234 29.2536 42.6363 29.2413 38.5707 27.4959Z" fill="#516EFF"/>
<path d="M0 43.3333C0.191033 42.419 0.325063 41.4863 0.585423 40.5936C1.52826 37.3444 3.41241 34.7448 6.18393 32.8055C6.33043 32.7216 6.45023 32.5981 6.52954 32.4491C6.60886 32.3002 6.64446 32.1319 6.63224 31.9636C6.60913 30.6384 6.623 29.3132 6.62454 27.988C6.62454 27.8341 6.62454 27.6802 6.62454 27.5262C6.67076 26.9722 7.00044 26.632 7.48419 26.6305C7.96794 26.6289 8.32535 26.9706 8.33614 27.5247C8.35925 28.619 8.34538 29.7134 8.34692 30.8077C8.34692 31.0124 8.34692 31.2171 8.34692 31.5173C12.4018 29.7749 16.3873 29.7595 20.4698 31.5173V30.7923C20.4698 25.6285 20.4945 20.4631 20.4529 15.2977C20.4421 13.9433 21.1323 13.0183 22.6667 13.1152C23.7004 13.1799 24.7419 13.1229 25.7787 13.1152C25.808 13.1152 25.8357 13.0783 25.9081 13.0275C25.7802 12.889 25.6616 12.7489 25.5322 12.6196C22.0597 9.14425 18.5836 5.66938 15.1039 2.19502C14.4877 1.57936 14.3337 1.57936 13.7405 2.17962L3.26451 12.6458C3.14588 12.7659 3.03804 12.8951 2.86242 13.086C3.10429 13.1045 3.26451 13.126 3.42627 13.126C4.4446 13.126 5.46293 13.126 6.48126 13.126C7.65828 13.1337 8.32997 13.7986 8.35308 14.9853C8.36078 15.2731 8.35308 15.5609 8.35308 15.8503C8.35308 18.2298 8.35308 20.6104 8.35308 22.9919C8.35308 23.2213 8.41008 23.5137 8.29454 23.6661C8.0958 23.9277 7.78461 24.2633 7.51346 24.2694C7.24232 24.2756 6.91417 23.9616 6.70157 23.7076C6.5814 23.5645 6.62916 23.2659 6.62762 23.0366C6.62762 20.5596 6.62762 18.0831 6.62762 15.6071V14.8514H4.80818C4.19195 14.8514 3.57571 14.8514 2.95947 14.8514C2.16145 14.8514 1.52827 14.5436 1.2032 13.7863C0.865812 12.9967 1.11847 12.3334 1.70235 11.7516C5.35971 8.10276 9.01605 4.45191 12.6714 0.799013C13.739 -0.264536 15.0716 -0.264535 16.1423 0.78824C17.347 1.97492 18.5364 3.17545 19.7319 4.36983C22.1804 6.81912 24.6279 9.26328 27.0743 11.7023C27.5365 12.1641 27.8446 12.6674 27.7522 13.3353C27.6274 14.2388 26.9264 14.8298 25.9358 14.8499C24.9175 14.8714 23.8992 14.8499 22.8809 14.8499H22.1999V15.5933C22.1999 21.008 22.1999 26.4222 22.1999 31.8358C22.1999 32.276 22.3047 32.5608 22.6929 32.8301C25.0341 34.4671 26.8345 36.7634 27.8645 39.4264C28.8945 42.0894 29.1075 44.9985 28.4764 47.7829C27.8453 50.5673 26.3986 53.101 24.3208 55.0609C22.243 57.0208 19.6281 58.3182 16.8094 58.7878C16.4335 58.8509 16.0607 58.9263 15.6878 58.9971H13.1459C13.0211 58.9554 12.8941 58.921 12.7653 58.894C6.88644 58.0244 2.8809 54.8106 0.807268 49.2574C0.402093 48.18 0.2619 46.9964 0 45.8621V43.3333ZM27.099 44.6369C27.1063 42.1304 26.3695 39.678 24.9817 37.5898C23.5939 35.5017 21.6175 33.8715 19.3024 32.9056C16.9872 31.9396 14.4374 31.6812 11.9753 32.1631C9.51321 32.6449 7.24942 33.8453 5.47019 35.6126C3.69097 37.3798 2.47624 39.6344 1.97961 42.0914C1.48297 44.5483 1.72674 47.0972 2.68009 49.4157C3.63344 51.7342 5.25355 53.7183 7.33554 55.1169C9.41754 56.5155 11.8679 57.266 14.3768 57.2733C17.7395 57.2778 20.9669 55.9503 23.3516 53.5816C25.7363 51.213 27.0839 47.9964 27.099 44.6369Z" fill="#516EFF"/>
<path d="M37.0825 18.4114C35.9009 18.3591 35.0166 18.042 34.2971 17.334C33.835 16.8861 33.8042 16.4105 34.1801 16.0196C34.5236 15.6656 35.0197 15.6687 35.4603 16.0642C35.9594 16.5137 36.5387 16.7784 37.1919 16.626C37.4769 16.5598 37.7049 16.2474 37.9622 16.0458C37.7712 15.8133 37.6248 15.5009 37.3783 15.3639C36.95 15.1223 36.454 14.9899 35.9918 14.8052C34.6607 14.2773 34.0938 13.42 34.3326 12.2887C34.4572 11.7092 34.7962 11.1979 35.2817 10.8572C35.7673 10.5165 36.3636 10.3714 36.9516 10.451C37.6664 10.5341 38.3751 10.8511 39.0345 11.1744C39.1462 11.2225 39.2456 11.2952 39.3252 11.3871C39.4049 11.4789 39.4628 11.5875 39.4947 11.7048C39.5265 11.8222 39.5314 11.9451 39.5091 12.0646C39.4868 12.1841 39.4377 12.297 39.3657 12.3949C39.0899 12.8228 38.6416 12.8566 38.1024 12.6135C37.6214 12.4078 37.1127 12.274 36.5926 12.2164C36.4201 12.1979 36.209 12.5057 36.0149 12.6658C36.169 12.8197 36.2876 13.0213 36.4663 13.106C36.95 13.3353 37.4615 13.5062 37.9561 13.714C39.301 14.2773 39.9249 15.3023 39.6507 16.4844C39.3996 17.6034 38.1887 18.4453 37.0825 18.4114Z" fill="#516EFF"/>
<path d="M42.5888 12.1812V13.5556C43.0926 13.5556 43.5686 13.5418 44.0431 13.5556C44.6116 13.5756 44.9536 13.8881 44.9675 14.3698C44.9813 14.8516 44.6393 15.2333 44.0539 15.2656C43.5779 15.2918 43.1003 15.2656 42.5873 15.2656V16.6293C43.1188 16.6293 43.6318 16.6185 44.1448 16.6293C44.7703 16.6462 45.1631 16.9848 45.1678 17.4897C45.1724 17.9945 44.7841 18.3408 44.1587 18.3516C43.3915 18.3619 42.6212 18.3619 41.8478 18.3516C41.1329 18.3408 40.8217 18.0438 40.8187 17.3358C40.8104 15.378 40.8104 13.4207 40.8187 11.4639C40.8187 10.779 41.1268 10.4635 41.7877 10.4496C42.595 10.4327 43.4022 10.4342 44.208 10.4496C44.7903 10.4619 45.1662 10.8175 45.1616 11.3069C45.157 11.7964 44.7795 12.1458 44.1972 12.1658C43.6842 12.1935 43.148 12.1812 42.5888 12.1812Z" fill="#516EFF"/>
<path d="M48.0918 16.6802C48.5416 16.6802 48.9391 16.6695 49.3366 16.6802C49.9266 16.7003 50.284 17.0373 50.2794 17.5391C50.2748 18.0409 49.9328 18.3748 49.3782 18.3918C48.6495 18.4133 47.9192 18.3995 47.1921 18.3702C46.6667 18.3487 46.374 18.0239 46.3709 17.5145C46.3555 15.4448 46.3555 13.3747 46.3709 11.304C46.3665 11.1882 46.3858 11.0727 46.4277 10.9646C46.4696 10.8565 46.5333 10.7581 46.6146 10.6755C46.696 10.5929 46.7935 10.5278 46.901 10.4842C47.0085 10.4406 47.1238 10.4195 47.2398 10.4221C47.7174 10.4221 48.081 10.7899 48.0856 11.3271C48.0995 12.8801 48.0856 14.4331 48.0856 15.9846L48.0918 16.6802Z" fill="#516EFF"/>
<path d="M53.1441 16.6803C53.5925 16.6803 53.9899 16.668 54.3874 16.6803C54.9374 16.7003 55.301 17.0235 55.3272 17.4899C55.3534 17.9562 54.9759 18.3764 54.4121 18.3918C53.6849 18.4133 52.9562 18.3995 52.229 18.3687C51.7052 18.3472 51.4233 18.0286 51.4202 17.5099C51.412 15.4413 51.412 13.3732 51.4202 11.3056C51.4143 11.1901 51.4322 11.0746 51.473 10.9663C51.5137 10.8581 51.5764 10.7594 51.6571 10.6765C51.7378 10.5935 51.8348 10.5281 51.9419 10.4844C52.0491 10.4406 52.1641 10.4194 52.2799 10.4221C52.7698 10.4221 53.1318 10.8069 53.1364 11.3841C53.1519 12.9232 53.1364 14.4485 53.1364 15.9815L53.1441 16.6803Z" fill="#516EFF"/>
<path d="M4.67239 44.5674C4.67239 43.6085 4.67239 42.6512 4.67239 41.6938C4.68163 40.9073 4.9728 40.6056 5.7508 40.5995C6.40144 40.5698 7.05339 40.5889 7.70119 40.6564C8.04004 40.6997 8.36447 40.82 8.64963 41.0079C8.93479 41.1958 9.17312 41.4465 9.34636 41.7406C9.5196 42.0348 9.62315 42.3646 9.64908 42.7049C9.67501 43.0452 9.62264 43.387 9.49597 43.7039C9.43623 43.8168 9.41489 43.9461 9.43518 44.0721C9.45547 44.1982 9.51629 44.3142 9.60844 44.4027C9.92109 44.7455 10.1272 45.1717 10.2016 45.6295C10.276 46.0873 10.2155 46.5568 10.0275 46.9808C9.65004 47.9043 8.93828 48.4645 7.93382 48.5461C7.14983 48.5997 6.36358 48.6125 5.57825 48.5846C4.99591 48.5707 4.68934 48.2306 4.68009 47.6118C4.6616 46.596 4.68009 45.5802 4.68009 44.5659L4.67239 44.5674ZM6.44099 46.8361C6.91241 46.8361 7.34839 46.8684 7.77822 46.8269C7.97331 46.8173 8.15669 46.731 8.28831 46.5868C8.41993 46.4426 8.4891 46.2522 8.48073 46.0573C8.48999 45.9559 8.4786 45.8538 8.44722 45.757C8.41585 45.6601 8.36514 45.5707 8.29818 45.494C8.23122 45.4173 8.14939 45.355 8.05763 45.3108C7.96588 45.2666 7.86611 45.2415 7.76435 45.2369C7.32367 45.2114 6.88198 45.2083 6.44099 45.2277V46.8361ZM6.44099 42.1833V43.5685C6.90218 43.4816 7.35713 43.3644 7.80287 43.2176C7.88144 43.1883 7.89993 42.6619 7.82444 42.6281C7.37174 42.4503 6.9081 42.3017 6.43636 42.1833H6.44099Z" fill="#516EFF"/>
<path d="M17.2984 43.7815C17.2984 44.4341 17.3077 45.0867 17.2984 45.7393C17.2723 47.3062 16.0105 48.5098 14.3328 48.5868C12.7691 48.656 11.3132 47.4709 11.2378 45.9517C11.1653 44.4772 11.2039 42.9966 11.2208 41.5175C11.2154 41.4016 11.2334 41.2858 11.2736 41.1769C11.3138 41.068 11.3754 40.9683 11.4548 40.8837C11.5342 40.799 11.6298 40.7311 11.736 40.684C11.8421 40.6369 11.9566 40.6115 12.0728 40.6094C12.5734 40.6094 12.9309 40.9741 12.9355 41.5544C12.9478 42.8781 12.9355 44.2033 12.9355 45.5269C12.9355 46.3334 13.4901 46.8798 14.2589 46.8614C15.0584 46.8414 15.5622 46.3227 15.5653 45.5085C15.5653 44.2217 15.5653 42.9366 15.5653 41.6498C15.5653 41.0126 15.8826 40.6309 16.3972 40.6125C16.9118 40.594 17.283 40.9942 17.2907 41.6514C17.3046 42.364 17.2984 43.072 17.2984 43.7815Z" fill="#516EFF"/>
<path d="M21.3064 42.9443C21.7347 42.2917 22.1044 41.7129 22.488 41.1435C22.83 40.6355 23.3338 40.497 23.7621 40.7787C24.1904 41.0603 24.2597 41.5667 23.9254 42.0947C23.4416 42.855 22.924 43.5938 22.4634 44.368C22.2947 44.6589 22.1961 44.9851 22.1753 45.3207C22.1321 46.0903 22.166 46.8598 22.1522 47.6217C22.1429 48.2127 21.8117 48.5791 21.3126 48.5868C20.8134 48.5945 20.4467 48.2204 20.4329 47.6479C20.4144 46.8429 20.4529 46.0364 20.4206 45.2314C20.4044 44.9326 20.3161 44.6422 20.1633 44.3849C19.6872 43.5984 19.1619 42.8458 18.6674 42.0654C18.3253 41.5252 18.3993 41.0434 18.843 40.7571C19.2867 40.4709 19.7596 40.6032 20.114 41.1311C20.5007 41.7022 20.8781 42.2824 21.3064 42.9443Z" fill="#516EFF"/>
</g>
<defs>
<clipPath id="clip0_1202_1395">
<rect width="59" height="59" fill="white"/>
</clipPath>
</defs>
</svg>
