<svg width="59" height="59" viewBox="0 0 59 59" fill="none" xmlns="http://www.w3.org/2000/svg">
<path d="M32.8172 54.1138C31.3741 54.6234 30.0232 55.1427 28.6432 55.5798C25.5139 56.5732 22.3862 57.5764 19.2294 58.4828C15.4425 59.5682 12.3213 58.4037 9.79131 55.4798C9.75405 55.4362 9.70384 55.4024 9.53701 55.2588C9.53701 55.6636 9.53701 55.9636 9.53701 56.262C9.53701 56.8458 9.55321 57.4312 9.52243 58.0135C9.49652 58.5279 9.18553 58.8198 8.66884 58.8569C8.15215 58.894 7.76018 58.6731 7.64032 58.1376C7.60296 57.8993 7.59156 57.6575 7.60631 57.4167C7.60631 55.7701 7.60631 54.1218 7.60631 52.4445L5.87644 52.2026C5.33708 52.1268 4.98884 51.851 4.74264 51.3414C3.22011 48.2578 1.63278 45.2048 0.155595 42.1018C-0.0792643 41.6083 -0.0258124 40.8519 0.166934 40.3132C0.545465 39.2363 1.03394 38.2008 1.62468 37.2232C2.79898 35.3023 4.39602 33.7218 5.99792 32.1606C6.74947 31.4317 7.4913 30.693 8.22342 29.9721C7.59659 28.698 7.60954 28.6254 8.59433 27.6433L11.5698 24.6919C10.9883 23.5355 10.436 22.4453 9.88363 21.3615C9.80336 21.2537 9.68943 21.1754 9.55969 21.1389C6.77377 20.0906 5.86349 17.3683 7.45405 14.8298L7.58849 14.6056C6.69764 13.7621 6.70088 12.6396 6.72679 11.501C6.75109 10.3946 6.72679 9.28664 6.72679 8.18027C6.72679 4.6499 8.27201 2.3388 11.586 1.10341C14.57 -0.0332166 17.8178 -0.298417 20.9479 0.338954C24.1112 0.984065 26.05 3.02423 26.8631 6.12882C26.9085 6.30461 26.9441 6.48202 26.9879 6.65781C27.0099 6.70714 27.0359 6.7546 27.0656 6.79974H30.4913C32.6374 6.79974 34.1341 7.85288 35.0848 9.70273C35.9368 11.3542 35.4995 12.9783 33.9818 14.0572C32.8318 14.8781 31.5036 15.2007 30.1301 15.3684C29.4725 15.4491 28.8084 15.4797 28.1103 15.5297C27.9095 19.1004 27.6066 22.6469 24.9989 25.5741C25.8427 26.4063 26.6089 27.3723 27.5791 28.0497C28.2108 28.49 29.1389 28.5125 30.0086 28.7432V28.0061C30.0086 26.1353 30.0086 24.2629 30.0086 22.3921C30.0086 21.6147 30.3326 21.2905 31.1198 21.2905C40.0703 21.2905 49.0209 21.2905 57.9715 21.2905C58.7716 21.2905 59 21.5405 59 22.3469V47.8288C59 49.119 58.8056 49.3125 57.4823 49.3125H51.2966C51.2577 49.6077 51.2399 49.8641 51.1897 50.1189C50.8658 51.7317 49.6672 52.7574 47.7608 53.0509C47.2246 53.132 46.6833 53.1741 46.141 53.1767C43.7358 53.1848 41.3305 53.1267 38.9284 53.1848C37.5484 53.2171 36.1749 53.4267 34.7706 53.559C34.7706 55.1298 34.782 56.5362 34.7706 57.9425C34.7609 58.7795 33.9786 59.2827 33.3339 58.8295C33.055 58.5876 32.8838 58.2454 32.8577 57.878C32.7978 56.8555 32.8351 55.8265 32.8351 54.7992L32.8172 54.1138ZM31.975 23.221V45.4322C32.2325 45.3628 32.4609 45.2935 32.6893 45.2435C33.8506 44.9871 35.0039 44.5758 36.1749 44.5194C38.5543 44.4032 40.9417 44.4597 43.326 44.4887C44.6995 44.5065 45.7556 45.4564 46.0374 46.8127C46.073 46.9885 46.1135 47.1627 46.1556 47.3465H57.1373V23.263H49.4145V23.7839C49.4145 25.816 49.4242 27.8497 49.4145 29.8818C49.4145 30.8043 48.7666 31.172 47.9568 30.7543C47.0044 30.2705 46.0536 29.7866 45.0817 29.3383C44.8214 29.2372 44.5323 29.2372 44.2719 29.3383C43.2806 29.7866 42.3169 30.2947 41.3418 30.7769C40.4153 31.2349 39.7432 30.8253 39.7302 29.7834C39.7189 28.8157 39.7302 27.8481 39.7302 26.8804V23.2581C39.5974 23.242 39.5213 23.2226 39.4451 23.2226L31.975 23.221ZM22.349 30.9624C21.9084 32.0816 21.5132 33.0686 21.1293 34.0605C20.9755 34.4556 20.7098 34.7653 20.2838 34.6879C19.9599 34.6314 19.6586 34.4072 19.3962 34.204C19.2569 34.0911 19.2181 33.8508 19.1403 33.6654C18.7646 32.7622 18.392 31.8574 17.9838 30.8753L15.4587 34.0766C14.6926 35.0443 14.346 35.0798 13.3887 34.2814C12.1836 33.2767 10.9753 32.2784 9.73138 31.2462C9.11265 31.8703 8.51335 32.4397 7.94969 33.0428C6.47088 34.6346 4.92567 36.1765 3.57644 37.8683C2.86539 38.7537 2.47827 39.902 1.9875 40.9535C1.90828 41.1967 1.92745 41.4612 2.04095 41.6905C3.40799 44.5129 4.79123 47.3283 6.19067 50.1367C6.2897 50.3205 6.45719 50.4583 6.65715 50.5205C9.38314 51.1221 11.965 49.7802 13.1004 47.2224C13.2818 46.8143 13.2883 46.5031 13.0388 46.1128C12.229 44.8403 11.445 43.5485 10.6724 42.2518C10.2351 41.5196 10.5315 40.8083 11.3041 40.6761C11.8564 40.5809 12.1577 40.9148 12.4072 41.3422C13.6106 43.4114 14.8092 45.4838 16.0321 47.5433C16.9667 49.1174 18.6868 49.8012 20.4053 49.248C23.4164 48.2803 26.4145 47.2627 29.4207 46.2757C29.5467 46.2517 29.6587 46.1804 29.7334 46.0765C29.8082 45.9727 29.84 45.8442 29.8224 45.7176C29.8127 40.8868 29.8127 36.0571 29.8224 31.2285C29.8224 30.8898 29.7333 30.7204 29.3818 30.6575C28.8659 30.563 28.3555 30.4408 27.8528 30.2914C27.5208 30.1914 27.3474 30.2592 27.2049 30.5882C26.8243 31.4301 26.4096 32.2574 25.9982 33.0864C25.5123 34.0734 24.7024 34.1363 24.04 33.2477C23.4925 32.5106 22.9596 31.7881 22.349 30.9559V30.9624ZM9.84476 52.3042C10.6676 53.6251 11.573 54.7476 12.7473 55.6265C13.233 55.9844 13.7508 56.297 14.2941 56.5603C15.9576 57.3796 17.6777 57.0958 19.3153 56.5926C23.3014 55.3701 27.2648 54.0702 31.2186 52.7461C33.8344 51.8704 36.4762 51.2027 39.2605 51.2301C41.6641 51.2543 44.0678 51.272 46.4699 51.2301C47.1337 51.1907 47.7878 51.0521 48.4103 50.8189C49.0079 50.6205 49.3173 50.1205 49.3934 49.4093C49.1553 49.4093 48.9415 49.4093 48.7261 49.4093C46.425 49.377 44.1234 49.3437 41.8213 49.3093C41.0746 49.298 40.6875 48.9674 40.6875 48.3513C40.6875 47.7352 41.0729 47.3836 41.8067 47.3836C42.5728 47.3756 43.3373 47.3836 44.1083 47.3836C44.003 46.674 43.7196 46.416 43.0182 46.416C41.06 46.416 39.1001 46.3837 37.1419 46.4273C36.3178 46.4524 35.4982 46.5572 34.6945 46.7401C33.6929 46.971 32.7036 47.2519 31.7304 47.582C28.2642 48.711 24.8126 49.8947 21.3431 51.0188C18.899 51.8123 16.5666 51.0834 14.9469 49.0835C14.8593 48.9566 14.7803 48.8241 14.7104 48.6868C13.5442 50.6253 11.9876 51.7865 9.84476 52.2978V52.3042ZM25.705 11.4429L25.5512 11.4252C25.3892 11.6461 25.2272 11.8719 25.0474 12.0864C24.5518 12.6944 24.095 13.3395 23.5427 13.8911C23.0339 14.4233 22.4176 14.8422 21.7345 15.1201C21.0513 15.3981 20.3168 15.5289 19.5793 15.5039C16.39 15.4474 13.1992 15.4781 10.01 15.5039C9.7006 15.5039 9.273 15.6168 9.10941 15.8345C8.56194 16.557 8.53926 17.415 8.82757 18.2537C9.07863 18.9843 9.70546 19.2955 10.4311 19.3423C11.1567 19.3891 11.4661 19.7858 11.7155 20.41C12.0686 21.3002 12.4185 22.2259 12.966 23.0001C14.4739 25.1289 16.5504 26.2805 19.2197 26.0869C22.085 25.8789 24.0789 24.4225 25.1592 21.7534C26.1651 19.2826 26.2655 16.707 26.063 14.1008C25.995 13.2073 25.8265 12.3267 25.705 11.4429ZM14.5014 2.3517C13.1619 2.55652 11.9099 2.9323 10.8133 3.67901C9.66983 4.45153 8.85997 5.49984 8.77412 6.87876C8.66236 8.84313 8.69476 10.8155 8.69476 12.7847C8.69476 13.2137 8.99926 13.4895 9.43173 13.5395C11.1972 13.7379 12.8331 13.5202 13.9783 11.959C14.2779 11.5558 14.5824 11.1526 14.8837 10.751C16.7674 8.22866 19.095 6.55782 22.4413 6.78522C23.2949 6.84489 24.155 6.79329 25.2143 6.79329C24.7818 5.92239 24.5146 5.12406 24.04 4.47895C22.7928 2.78715 21.0435 1.91464 18.9508 2.15494C16.8581 2.39524 15.4943 3.70804 14.8643 5.70305C14.6847 6.36059 14.5627 7.03241 14.4998 7.71096C14.4172 8.35607 14.0285 8.75119 13.4486 8.71733C12.8688 8.68346 12.5578 8.29962 12.5594 7.64322C12.5613 7.3817 12.5786 7.12052 12.6112 6.86102C12.7928 5.20821 13.449 3.64257 14.5014 2.3517ZM25.4216 8.73668C23.9639 8.73668 22.5061 8.72217 21.0322 8.74797C20.6891 8.76855 20.3524 8.84936 20.0377 8.98666C17.8446 9.85433 16.5779 11.6768 15.2741 13.5637C16.8031 13.5637 18.256 13.5363 19.7072 13.575C20.4396 13.6073 21.1572 13.3624 21.7157 12.8896C22.1237 12.5591 22.503 12.195 22.8495 11.801C23.7112 10.7962 24.5502 9.7737 25.4216 8.73668ZM47.4611 23.2613H41.682V28.4142C42.4675 28.0287 43.2174 27.69 43.935 27.2965C44.1201 27.1779 44.3352 27.1139 44.5553 27.1119C44.7755 27.1099 44.9917 27.17 45.1789 27.2852C45.9094 27.6836 46.6675 28.0287 47.4611 28.4142V23.2613ZM28.0472 13.6024C28.8343 13.5282 29.6507 13.5379 30.4217 13.3541C31.2743 13.1449 32.101 12.8426 32.8869 12.4525C33.4182 12.1945 33.7356 11.6461 33.4959 11.0284C33.0877 9.98336 32.4236 9.13342 31.2655 8.83667C29.8564 8.47541 28.6659 9.07537 27.5159 9.77208C27.4155 9.83176 27.3636 10.0817 27.3896 10.2253C27.5872 11.3058 27.8107 12.388 28.0472 13.6024ZM10.0861 29.0609L14.2974 32.4929L16.9165 29.2077L12.7052 26.4417L10.0861 29.0609ZM25.8476 29.3834L23.8278 27.4126C23.7371 27.661 23.5946 28.0142 23.4828 28.3803C23.4293 28.5593 23.3467 28.8174 23.4277 28.9367C23.9023 29.6383 24.4222 30.3108 24.9697 31.0511L25.8476 29.3834ZM18.9071 28.0932L20.36 31.1704C20.8232 29.9286 21.2427 28.8028 21.6736 27.6433L18.9071 28.0932Z" fill="#F47170"/>
</svg>
