<svg width="50" height="51" viewBox="0 0 50 51" fill="none" xmlns="http://www.w3.org/2000/svg">
<g clip-path="url(#clip0_1202_1409)">
<path d="M4.40691 50.1849C4.01418 49.9231 3.91338 49.5434 3.92778 49.0865C3.95134 48.339 3.93432 47.5902 3.93432 46.7786C3.45388 46.7786 3.01794 46.7786 2.58201 46.7786C1.01107 46.7576 0.00698266 45.7548 0.00567355 44.1957C0.00567355 39.2629 0.00567355 34.3319 0.00567355 29.4027C-0.000603799 29.2402 0.0179368 29.0778 0.0606561 28.9209C0.112076 28.7659 0.214526 28.6328 0.351293 28.5434C0.488061 28.4541 0.651075 28.4137 0.813742 28.4289C0.976409 28.4441 1.12913 28.5139 1.24699 28.6271C1.36485 28.7402 1.44089 28.8899 1.46272 29.0519C1.48088 29.2306 1.48525 29.4105 1.47581 29.5899C1.47581 34.39 1.47581 39.1901 1.47581 43.9902C1.47581 45.0099 1.76905 45.2993 2.78492 45.2993H22.1415C23.143 45.2993 23.431 45.0152 23.431 44.0255V18.9416C23.431 17.9624 23.1246 17.6586 22.1389 17.6573H2.78099C1.80178 17.6573 1.47188 17.9768 1.47188 18.9416C1.47188 21.2107 1.47188 23.4798 1.47188 25.749C1.47188 25.8799 1.47188 26.0108 1.47188 26.1417C1.44963 26.6077 1.17471 26.9154 0.768885 26.9272C0.36306 26.9389 0.0161457 26.6195 0.00698194 26.1417C-0.00872743 25.1952 0.00698194 24.2474 0.00698194 23.3009C0.00698194 21.7823 0.000436371 20.2625 0.00698194 18.7439C0.0135275 17.2253 1.0438 16.195 2.56499 16.182C3.7877 16.1702 5.0091 16.182 6.30382 16.182V3.38144C6.30382 1.97022 6.80259 1.47799 8.22822 1.47799H8.88277C8.89325 1.34708 8.89979 1.25413 8.90634 1.16118C8.9587 0.447718 9.39202 0.011782 10.1055 0.00785468C11.967 -0.00261823 13.829 -0.00261823 15.6915 0.00785468C16.3919 0.00785468 16.8003 0.400589 16.8932 1.10751C16.9076 1.21879 16.9247 1.33006 16.9456 1.47799C17.265 1.47799 17.574 1.47799 17.8816 1.47799C18.9001 1.48846 19.4958 2.07756 19.4971 3.09344C19.4971 7.24245 19.4971 11.391 19.4971 15.5392V16.1833C20.4213 16.1833 21.3141 16.1715 22.2056 16.1833C22.5477 16.1812 22.8885 16.2252 23.2189 16.3142C23.7088 16.4611 24.1377 16.7634 24.4407 17.1755C24.7437 17.5876 24.9044 18.0871 24.8985 18.5986C24.9116 20.6932 24.8985 22.7786 24.8985 24.8692V25.4335H26.2665C26.2665 24.9098 26.2665 24.3862 26.2665 23.8507C26.2665 22.8584 26.7469 22.3728 27.7393 22.3714C30.402 22.3662 33.0639 22.3662 35.7248 22.3714C36.7185 22.3714 37.1871 22.8493 37.2002 23.8507C37.2002 24.3744 37.2002 24.8889 37.2002 25.4688H47.3314C48.9403 25.4688 49.7729 26.304 49.7729 27.9142C49.7729 34.414 49.7533 40.915 49.79 47.42C49.7978 48.7475 49.3972 49.6966 48.1156 50.1849H15.3851C13.7252 49.6272 13.5733 48.2893 13.733 46.8087H5.40707C5.40707 47.6164 5.38875 48.394 5.41362 49.1651C5.42933 49.6167 5.30496 49.961 4.89652 50.1796L4.40691 50.1849ZM24.9037 26.9481V27.6118C24.9037 33.1319 24.9037 38.6516 24.9037 44.1708C24.9037 45.7784 23.9206 46.7615 22.313 46.7773C21.877 46.7773 21.4424 46.7773 21.013 46.7773V48.6729H39.3589V26.9416H38.8117C37.4725 26.9416 36.1333 26.9481 34.7941 26.9416C34.2704 26.9416 33.9458 26.6195 33.9588 26.181C33.9719 25.7424 34.2796 25.4858 34.7875 25.4727C35.0899 25.4727 35.3923 25.4727 35.7039 25.4727V23.8835H27.7733V25.474H28.327C29.4372 25.474 30.5525 25.474 31.6587 25.474C32.1667 25.474 32.4612 25.7581 32.4625 26.198C32.4638 26.6378 32.1627 26.9141 31.6653 26.9429C31.5514 26.9494 31.4362 26.9429 31.3223 26.9429H24.9076L24.9037 26.9481ZM16.9495 2.97692C16.9273 3.14056 16.9103 3.30028 16.8841 3.45737C16.7885 4.01767 16.3866 4.41171 15.8158 4.41564C13.8731 4.43048 11.9308 4.43048 9.98897 4.41564C9.41035 4.41564 8.99012 3.97185 8.92205 3.39584C8.90634 3.25707 8.89325 3.11831 8.87885 2.98216H7.81977V16.144H18.0099V2.97692H16.9495ZM43.8204 48.7082H47.2424C48.151 48.7082 48.3107 48.5446 48.3107 47.6164V28.0347C48.3107 27.9208 48.3107 27.8056 48.3107 27.6917C48.2819 27.189 48.0488 26.956 47.537 26.9507C46.6887 26.9429 45.8351 26.9507 44.9907 26.9507H43.8217L43.8204 48.7082ZM42.2992 48.5969V26.9874H40.8971V48.5995L42.2992 48.5969ZM15.1835 46.8047C15.1835 47.2171 15.1731 47.6046 15.1835 47.9908C15.1992 48.4634 15.4454 48.699 15.9232 48.7069C16.5921 48.7187 17.2611 48.7069 17.9301 48.7069H19.4617V46.8047H15.1835ZM15.4022 2.93242V1.51203H10.4275V2.93242H15.4022Z" fill="#157292"/>
<path d="M10.8753 31.5227V41.1263C10.8825 41.2729 10.8799 41.4199 10.8674 41.5662C10.8151 41.9799 10.5716 42.2207 10.1566 42.2364C9.74159 42.2522 9.49286 42.0008 9.41693 41.5976C9.39878 41.4517 9.3944 41.3044 9.40384 41.1577V21.8025C9.39188 21.6398 9.3998 21.4763 9.4274 21.3155C9.52558 20.9411 9.77955 20.7238 10.1749 20.7434C10.3495 20.741 10.5183 20.8056 10.6467 20.924C10.775 21.0424 10.8531 21.2054 10.8648 21.3796C10.8807 21.5423 10.8842 21.706 10.8753 21.8693V31.5227Z" fill="#157292"/>
<path d="M20.1228 31.4659C20.1228 34.6671 20.1228 37.8679 20.1228 41.0682C20.1285 41.2473 20.1224 41.4266 20.1045 41.6049C20.0947 41.7794 20.0173 41.9431 19.8887 42.0614C19.7602 42.1797 19.5906 42.2433 19.4159 42.2386C19.0232 42.2543 18.7614 42.0409 18.6841 41.6547C18.6557 41.494 18.6443 41.3308 18.6501 41.1677C18.6501 34.7181 18.6501 28.2677 18.6501 21.8164C18.6441 21.6534 18.6546 21.4902 18.6815 21.3294C18.7035 21.1557 18.7924 20.9975 18.9294 20.8884C19.0663 20.7794 19.2404 20.7281 19.4146 20.7455C19.5892 20.738 19.7598 20.7999 19.889 20.9176C20.0182 21.0353 20.0957 21.1993 20.1045 21.3739C20.1224 21.5527 20.1285 21.7324 20.1228 21.9119C20.1237 25.0966 20.1237 28.2812 20.1228 31.4659Z" fill="#157292"/>
<path d="M4.78339 31.4632V21.8596C4.78339 21.713 4.77553 21.565 4.78993 21.4197C4.83313 21.0008 5.07663 20.7586 5.49031 20.7429C5.90399 20.7272 6.16189 20.9694 6.24043 21.3713C6.26034 21.5337 6.26516 21.6976 6.25483 21.8609C6.25483 28.279 6.25483 34.6976 6.25483 41.1166C6.25483 41.893 6.00479 42.2595 5.489 42.2425C4.99677 42.2268 4.78208 41.8864 4.78208 41.1166L4.78339 31.4632Z" fill="#157292"/>
<path d="M15.4893 31.4974C15.4893 34.6995 15.4893 37.9007 15.4893 41.101C15.4949 41.2643 15.4914 41.4278 15.4788 41.5906C15.4724 41.7658 15.3985 41.9317 15.2726 42.0537C15.1467 42.1757 14.9786 42.2443 14.8033 42.2452C14.6375 42.2668 14.4697 42.2247 14.3337 42.1276C14.1977 42.0304 14.1035 41.8853 14.0702 41.7216C14.0275 41.5309 14.0103 41.3355 14.0191 41.1403C14.0191 34.7056 14.0191 28.2708 14.0191 21.8361C14.0089 21.6572 14.0212 21.4778 14.0558 21.302C14.0866 21.1296 14.1828 20.9758 14.3242 20.8727C14.4657 20.7695 14.6415 20.7249 14.8151 20.7482C14.9896 20.7489 15.1569 20.8177 15.2814 20.94C15.4059 21.0623 15.4776 21.2283 15.4814 21.4028C15.4971 21.5638 15.4906 21.7288 15.4906 21.8924C15.4914 25.0945 15.491 28.2962 15.4893 31.4974Z" fill="#157292"/>
<path d="M30.9745 43.2305C30.1092 43.2305 29.2451 43.2305 28.3798 43.2305C27.3325 43.2226 26.6596 42.5694 26.6413 41.5286C26.63 40.8435 26.63 40.1589 26.6413 39.4746C26.6596 38.5006 27.288 37.8094 28.2463 37.795C30.0887 37.7662 31.9314 37.7662 33.7747 37.795C34.7251 37.8107 35.3626 38.5203 35.3783 39.4838C35.3901 40.1685 35.3914 40.8544 35.3783 41.5391C35.3587 42.5327 34.6636 43.2161 33.6647 43.2252C32.768 43.237 31.8765 43.2305 30.9745 43.2305ZM30.9457 41.7603C31.7783 41.7603 32.6122 41.7446 33.4448 41.7669C33.8192 41.7774 33.9305 41.636 33.9148 41.2825C33.8921 40.7589 33.8921 40.2352 33.9148 39.7116C33.9292 39.3751 33.8153 39.2455 33.471 39.2482C31.8197 39.2586 30.1698 39.2586 28.5212 39.2482C28.1965 39.2482 28.0957 39.3791 28.1062 39.6854C28.1259 40.2234 28.1311 40.7641 28.1062 41.3022C28.0879 41.6818 28.2437 41.7734 28.5945 41.7643C29.3774 41.7459 30.1615 41.7603 30.9457 41.7603Z" fill="#157292"/>
</g>
<defs>
<clipPath id="clip0_1202_1409">
<rect width="49.8" height="50.1836" fill="white"/>
</clipPath>
</defs>
</svg>
