<svg width="48" height="33" viewBox="0 0 48 33" fill="none" xmlns="http://www.w3.org/2000/svg">
<g clip-path="url(#clip0_1202_1430)">
<path d="M0.00372823 12.8735C0.311941 11.6605 0.625124 10.45 0.923395 9.23446C1.43543 7.11726 1.93006 5.00879 2.43836 2.89658C2.87831 1.06707 4.22053 0.00473851 6.08845 0.00473851H36.8352C36.9594 -0.00322892 37.0841 -0.00114612 37.208 0.0109659C37.5734 0.0719909 37.7996 0.289937 37.8145 0.66605C37.8319 1.06458 37.6131 1.31117 37.2291 1.3859C37.0444 1.40879 36.858 1.41422 36.6723 1.40209H6.20278C4.83571 1.40209 4.10743 1.96252 3.78431 3.29884C3.02123 6.44972 2.26313 9.60185 1.50999 12.7552C1.10981 14.4353 2.07671 15.657 3.80046 15.6583C17.1506 15.6583 30.5006 15.6583 43.8507 15.6583C45.572 15.6583 46.5352 14.4328 46.1337 12.7515C45.3731 9.5674 44.6076 6.38455 43.8371 3.20295C43.5512 2.02105 42.7732 1.40707 41.5752 1.40333C41.1874 1.40333 40.7997 1.41454 40.4119 1.40333C39.9757 1.3834 39.6986 1.09696 39.701 0.700921C39.7035 0.304881 39.9832 0.0134559 40.4231 0.0159467C41.0868 0.0159467 41.7666 -0.0164343 42.4116 0.103125C43.7973 0.352206 44.758 1.21777 45.1022 2.57402C45.9722 6.00262 46.7638 9.44991 47.5791 12.8922C47.6266 13.1358 47.6462 13.384 47.6375 13.632C47.6375 18.5895 47.6375 23.5471 47.6375 28.5047C47.6375 30.7688 46.13 32.277 43.8781 32.277H3.78555C1.85052 32.277 0.589084 31.2981 0.0758105 29.4126C0.0567129 29.3716 0.0320359 29.3334 0.00248517 29.2992V23.4122C0.251044 23.1245 0.512031 22.8567 0.945766 23.0298C1.3795 23.203 1.41181 23.5629 1.40063 23.9552C1.39193 24.2802 1.38572 24.6078 1.40063 24.9328C1.44413 25.7199 1.78589 26.37 2.48807 26.7113C2.93576 26.9164 3.42253 27.0218 3.9148 27.0201C17.1853 27.0351 30.4555 27.0392 43.7252 27.0326C43.8333 27.0326 43.9427 27.0326 44.0508 27.0326C45.3644 26.9716 46.2369 26.0674 46.2419 24.7473C46.2419 23.3636 46.2419 21.9812 46.2419 20.5976C46.2419 20.4855 46.2195 20.3734 46.2021 20.2028C45.362 20.8255 44.456 20.9114 43.5077 20.9102C34.8082 20.8994 26.1111 20.8994 17.4165 20.9102C12.8753 20.9102 8.33334 20.9102 3.79052 20.9102C3.04484 20.9102 2.34515 20.7781 1.70263 20.3858C1.61812 20.3348 1.52491 20.2987 1.42424 20.2501C1.36459 20.9002 1.24776 21.1044 0.893569 21.2178C0.469776 21.3523 0.234888 21.0795 0 20.8055L0.00372823 12.8735ZM1.43916 16.342C1.43916 16.8588 1.37577 17.3122 1.45158 17.7418C1.65167 18.8752 2.52908 19.5016 3.82905 19.5016H43.8197C43.929 19.5016 44.0371 19.5016 44.1453 19.5016C45.0326 19.458 45.7236 19.0458 46.0293 18.2213C46.2344 17.6671 46.2282 17.0332 46.3164 16.4342L46.1834 16.3632C45.2451 17.0793 44.1639 17.0656 43.0765 17.0656C30.2566 17.0598 17.4376 17.0598 4.61946 17.0656C3.51089 17.0631 2.41102 17.0905 1.43791 16.342H1.43916ZM46.2257 27.7076C45.2178 28.4648 44.1018 28.4349 42.982 28.4349C30.1937 28.4283 17.4053 28.4283 4.61698 28.4349C3.51213 28.4349 2.41351 28.4523 1.45904 27.7337C1.0862 29.8796 2.34142 30.9008 4.01174 30.8958C17.2338 30.8547 30.4559 30.8734 43.678 30.8734C43.8333 30.8734 43.9887 30.8734 44.144 30.8734C44.5104 30.8675 44.8689 30.7663 45.1844 30.5796C45.4999 30.3929 45.7615 30.1272 45.9436 29.8086C46.3313 29.1734 46.2568 28.4785 46.2245 27.7076H46.2257Z" fill="#34E8BB"/>
<path d="M16.0523 9.50946C15.5838 9.50786 15.1319 9.33507 14.7814 9.02349C14.4309 8.71191 14.2058 8.28293 14.1484 7.81695C14.0937 7.33623 14.3323 6.97381 14.7424 6.91403C15.1339 6.85799 15.4446 7.10707 15.5266 7.58157C15.5788 7.88047 15.7155 8.09094 16.0237 8.09966C16.3568 8.10838 16.4973 7.88296 16.5544 7.56787C16.6389 7.0996 16.9583 6.85176 17.3486 6.91652C17.7388 6.98128 17.9787 7.33747 17.9327 7.78831C17.8822 8.25546 17.6633 8.68809 17.3171 9.00499C16.9709 9.32189 16.5212 9.50127 16.0523 9.50946Z" fill="#34E8BB"/>
<path d="M16.4144 5.23553C15.9539 5.23559 15.5089 5.06846 15.1618 4.76508C14.8148 4.46171 14.5891 4.04262 14.5266 3.58537C14.4632 3.09841 14.677 2.74098 15.0834 2.65629C15.4898 2.57161 15.8117 2.82442 15.9049 3.32757C15.9608 3.62397 16.0938 3.82573 16.402 3.82573C16.7102 3.82573 16.8556 3.62024 16.9165 3.32757C17.0246 2.81321 17.3266 2.56787 17.7281 2.64758C18.1519 2.73226 18.3693 3.1146 18.2799 3.61775C18.2135 4.06647 17.9888 4.47648 17.6465 4.77333C17.3043 5.07017 16.8671 5.23417 16.4144 5.23553Z" fill="#34E8BB"/>
<path d="M32.3352 9.50994C31.8588 9.50978 31.3994 9.33213 31.0464 9.01151C30.6934 8.69089 30.4719 8.25021 30.4251 7.77509C30.3915 7.31304 30.6252 6.97429 31.0179 6.91575C31.4106 6.85722 31.7275 7.1063 31.807 7.57831C31.858 7.87845 31.9922 8.08768 32.2967 8.09889C32.6323 8.11259 32.7715 7.88344 32.8311 7.57208C32.9218 7.10007 33.2338 6.85348 33.6215 6.91575C34.0304 6.98301 34.2678 7.35538 34.2019 7.82864C34.1441 8.2868 33.9237 8.70881 33.5809 9.01753C33.2382 9.32624 32.796 9.50102 32.3352 9.50994Z" fill="#34E8BB"/>
<path d="M9.41938 11.9963C9.38458 12.9603 8.54197 13.7636 7.55519 13.776C7.07828 13.7774 6.61835 13.5987 6.26693 13.2756C5.9155 12.9525 5.69835 12.5087 5.65869 12.0324C5.63135 11.5679 5.83516 11.2591 6.21049 11.1943C6.62061 11.1245 6.93131 11.3462 7.02576 11.817C7.08666 12.1259 7.20597 12.365 7.54525 12.36C7.88453 12.355 7.99514 12.1109 8.05355 11.8033C8.14055 11.3487 8.43385 11.137 8.83403 11.1868C9.23421 11.2366 9.43554 11.5368 9.41938 11.9963Z" fill="#34E8BB"/>
<path d="M31.9416 5.23167C31.4897 5.22718 31.0542 5.06189 30.7127 4.76532C30.3712 4.46875 30.1461 4.06021 30.0774 3.61264C30.0004 3.10576 30.2265 2.7284 30.6516 2.65243C31.0518 2.58269 31.35 2.83177 31.4544 3.34861C31.5141 3.64627 31.6756 3.88414 31.9714 3.81315C32.0792 3.77601 32.1776 3.71593 32.26 3.63703C32.3424 3.55813 32.4068 3.46228 32.4487 3.35609C32.6264 2.81433 32.8836 2.56401 33.3012 2.66115C33.7188 2.75829 33.9313 3.15059 33.8182 3.6911C33.737 4.12847 33.5042 4.52299 33.1607 4.80492C32.8173 5.08684 32.3855 5.238 31.9416 5.23167Z" fill="#34E8BB"/>
<path d="M8.11598 9.50984C7.63183 9.51303 7.16482 9.33042 6.81077 8.99948C6.45672 8.66854 6.24249 8.21437 6.21202 7.73015C6.19338 7.28305 6.41708 6.97294 6.79737 6.91565C7.17767 6.85837 7.47345 7.09624 7.58158 7.53089C7.71207 8.05271 8.05632 8.26692 8.37324 8.00041C8.4852 7.87931 8.56098 7.72914 8.59197 7.567C8.71625 7.10371 9.01452 6.85338 9.40227 6.91565C9.79002 6.97792 10.0063 7.30049 9.9752 7.78744C9.91554 8.72274 9.08039 9.49863 8.11598 9.50984Z" fill="#34E8BB"/>
<path d="M24.2881 9.51347C23.8115 9.51447 23.3521 9.33564 23.0011 9.01256C22.6501 8.68948 22.4334 8.24583 22.3941 7.76989C22.3593 7.30162 22.5892 6.97159 22.9869 6.91679C23.3597 6.86573 23.6692 7.10236 23.7587 7.53949C23.8196 7.84088 23.9277 8.09495 24.2682 8.09744C24.6087 8.09993 24.7305 7.87575 24.7852 7.55818C24.8623 7.10858 25.1692 6.87071 25.5458 6.91056C25.946 6.95166 26.1809 7.27049 26.161 7.74374C26.1212 8.70395 25.2687 9.50724 24.2881 9.51347Z" fill="#34E8BB"/>
<path d="M15.659 13.7784C15.1907 13.7677 14.7423 13.5864 14.3976 13.2685C14.0529 12.9506 13.8355 12.5178 13.7861 12.051C13.7439 11.5939 13.98 11.2464 14.3727 11.1916C14.7866 11.1344 15.0848 11.3623 15.1669 11.8393C15.2215 12.1593 15.3694 12.3735 15.6988 12.3636C16.0045 12.3549 16.14 12.1419 16.1959 11.8455C16.2841 11.3473 16.606 11.1119 17.0298 11.1966C17.4126 11.2726 17.6301 11.6325 17.5717 12.0908C17.5121 12.5571 17.2851 12.9856 16.933 13.2962C16.581 13.6068 16.1281 13.7782 15.659 13.7784Z" fill="#34E8BB"/>
<path d="M42.7133 12.0473C42.6897 12.9602 41.8085 13.7908 40.8118 13.7771C39.8151 13.7634 38.9538 12.934 38.9377 11.9501C38.9302 11.5342 39.1651 11.2365 39.5355 11.1904C39.9058 11.1444 40.2177 11.3461 40.301 11.7633C40.3632 12.0772 40.4551 12.3636 40.8242 12.3649C41.1933 12.3661 41.2903 12.1008 41.3474 11.7745C41.4245 11.3424 41.765 11.1132 42.1565 11.1967C42.5728 11.2863 42.7356 11.5753 42.7133 12.0473Z" fill="#34E8BB"/>
<path d="M40.2722 9.50976C39.7959 9.5047 39.339 9.32024 38.9922 8.99305C38.6454 8.66585 38.4342 8.21988 38.4005 7.74378C38.3744 7.29917 38.5932 6.98158 38.9722 6.91682C39.3513 6.85206 39.6744 7.08869 39.7614 7.5196C39.8248 7.83469 39.9292 8.10993 40.2983 8.09872C40.6326 8.09 40.742 7.84964 40.7954 7.53704C40.8725 7.0999 41.2005 6.86203 41.5759 6.91433C41.9512 6.96664 42.1799 7.27675 42.1674 7.72385C42.1364 8.70025 41.2664 9.51724 40.2722 9.50976Z" fill="#34E8BB"/>
<path d="M26.2393 12.012C26.1983 12.9859 25.2972 13.8092 24.308 13.7755C23.3187 13.7419 22.4438 12.8876 22.4612 11.9199C22.4674 11.5338 22.6426 11.2623 23.0428 11.1926C23.443 11.1228 23.7239 11.3408 23.827 11.743C23.8343 11.7734 23.8397 11.8042 23.8432 11.8352C23.8867 12.149 24.0383 12.3769 24.3776 12.362C24.6833 12.3483 24.8101 12.1391 24.861 11.8352C24.9418 11.357 25.2525 11.1303 25.6651 11.1901C26.0467 11.2461 26.2579 11.55 26.2393 12.012Z" fill="#34E8BB"/>
<path d="M8.66504 5.23673C8.17939 5.2436 7.70988 5.06214 7.35461 4.73025C6.99934 4.39837 6.78579 3.94175 6.75859 3.4558C6.74244 3.01617 6.97857 2.70108 7.36135 2.64753C7.71927 2.59896 8.0337 2.8306 8.12069 3.24283C8.18532 3.55169 8.2661 3.83565 8.65012 3.83066C9.03415 3.82568 9.10374 3.54547 9.16588 3.23287C9.24791 2.82562 9.58222 2.58277 9.93641 2.65251C10.3428 2.73346 10.5367 2.995 10.533 3.41594C10.5243 4.39857 9.67667 5.22926 8.66504 5.23673Z" fill="#34E8BB"/>
<path d="M32.699 13.7811C31.7048 13.7886 30.8286 12.9604 30.7975 11.9915C30.7826 11.5481 31.0163 11.238 31.3978 11.1932C31.7794 11.1483 32.1087 11.37 32.1758 11.8159C32.2243 12.1347 32.3473 12.3651 32.6729 12.3713C33.0358 12.3776 33.1502 12.1148 33.2073 11.7897C33.2844 11.3563 33.6013 11.1384 34.0002 11.2007C34.3594 11.2567 34.5968 11.5743 34.5831 11.9753C34.5495 12.9455 33.6883 13.7737 32.699 13.7811Z" fill="#34E8BB"/>
<path d="M24.1951 5.23034C23.7093 5.23546 23.2404 5.05199 22.8867 4.71837C22.5329 4.38476 22.3217 3.92688 22.2973 3.44069C22.2849 3.00231 22.526 2.69345 22.9088 2.64114C23.268 2.59631 23.5737 2.82671 23.6607 3.24516C23.7265 3.55776 23.8135 3.83424 24.1963 3.82428C24.5468 3.81556 24.6388 3.56897 24.6934 3.26384C24.7767 2.82546 25.1098 2.58385 25.4814 2.64114C25.853 2.69843 26.0804 3.00729 26.0642 3.46062C26.0319 4.43328 25.1906 5.22661 24.1951 5.23034Z" fill="#34E8BB"/>
<path d="M39.6954 5.23635C39.2251 5.23448 38.7726 5.05584 38.4274 4.73576C38.0822 4.41567 37.8695 3.97744 37.8312 3.50772C37.7989 3.03322 38.0238 2.70692 38.4228 2.64839C38.7956 2.59359 39.1013 2.83146 39.1958 3.28106C39.2579 3.5812 39.3561 3.83277 39.7103 3.83028C40.0645 3.82779 40.1639 3.59365 40.2223 3.28354C40.3056 2.83769 40.625 2.59608 40.9966 2.64839C41.3682 2.70069 41.608 3.00706 41.5956 3.45666C41.5732 4.44302 40.7157 5.24382 39.6954 5.23635Z" fill="#34E8BB"/>
<path d="M30.0325 24.6463V23.3025H17.6195V24.6513C17.8681 24.6513 18.1092 24.6339 18.3503 24.6513C18.7753 24.6874 19.0624 25 19.0425 25.3786C19.0226 25.7572 18.753 26.02 18.3341 26.0337C17.8532 26.0499 17.3722 26.0511 16.8925 26.0337C16.4575 26.0175 16.204 25.761 16.1978 25.3213C16.1853 24.4047 16.1829 23.4881 16.1978 22.5715C16.2052 22.1542 16.4463 21.9189 16.8701 21.8827C16.9944 21.8728 17.1187 21.8753 17.243 21.8753H30.4079C31.2704 21.8753 31.4531 22.0571 31.4531 22.9027C31.4531 23.6649 31.4531 24.4259 31.4531 25.1881C31.4531 25.7921 31.212 26.0399 30.6104 26.0399C27.6642 26.0449 24.7179 26.0449 21.7717 26.0399C21.2062 26.0399 20.9204 25.7908 20.9229 25.3412C20.9254 24.8917 21.2261 24.6451 21.7829 24.6451C24.3406 24.6401 26.8986 24.6401 29.4571 24.6451L30.0325 24.6463Z" fill="#34E8BB"/>
<path d="M42.2866 26.0441C41.9665 26.0226 41.6574 25.9186 41.3892 25.7424C41.121 25.5661 40.9027 25.3234 40.7554 25.0379C40.5852 24.729 40.3925 24.6144 40.0644 24.6642C39.9721 24.6738 39.8789 24.6708 39.7873 24.6555C39.4145 24.6094 39.1908 24.399 39.1659 24.0216C39.1423 23.6231 39.3473 23.379 39.7351 23.2943C40.4932 23.1274 40.4932 23.1286 40.9642 22.5981C41.2739 22.2455 41.6934 22.008 42.1546 21.9241C42.6158 21.8403 43.0918 21.9149 43.5053 22.1361C43.9189 22.3572 44.2458 22.7118 44.4331 23.1424C44.6204 23.5731 44.6571 24.0544 44.5373 24.5086C44.2937 25.4389 43.4461 26.0715 42.2866 26.0441ZM42.5264 24.6493C42.66 24.649 42.7905 24.6091 42.9014 24.5344C43.0123 24.4598 43.0986 24.3539 43.1493 24.2301C43.2001 24.1063 43.2131 23.9702 43.1866 23.839C43.1601 23.7078 43.0954 23.5874 43.0006 23.4931C42.9058 23.3988 42.7852 23.3348 42.6541 23.3092C42.523 23.2837 42.3872 23.2977 42.264 23.3495C42.1409 23.4012 42.0358 23.4885 41.9622 23.6002C41.8885 23.7119 41.8496 23.8429 41.8503 23.9768C41.8479 24.0662 41.8638 24.1551 41.897 24.2381C41.9301 24.3212 41.9799 24.3965 42.0433 24.4595C42.1066 24.5225 42.1821 24.5719 42.2652 24.6045C42.3483 24.6371 42.4372 24.6524 42.5264 24.6493Z" fill="#34E8BB"/>
</g>
<defs>
<clipPath id="clip0_1202_1430">
<rect width="47.64" height="32.2723" fill="white"/>
</clipPath>
</defs>
</svg>
