<svg width="59" height="47" viewBox="0 0 59 47" fill="none" xmlns="http://www.w3.org/2000/svg">
<g clip-path="url(#clip0_1202_1423)">
<path d="M0.00142643 39.9982C0.283207 39.5435 0.689711 39.3816 1.2194 39.4186C1.6182 39.451 2.02163 39.4186 2.4697 39.4186C2.55901 38.1332 3.28425 37.3317 4.38212 36.8493C3.95252 34.3571 4.41599 33.4354 6.3592 32.899C6.06665 32.1546 5.74329 31.4209 5.49384 30.6641C5.30445 30.0831 5.74175 29.4943 6.31147 29.5852C6.47952 29.6258 6.63739 29.7007 6.77517 29.8052C6.91295 29.9097 7.02768 30.0415 7.11216 30.1925C8.53338 33.1487 9.90995 36.128 11.3158 39.0919C11.3615 39.1758 11.4257 39.2482 11.5037 39.3035C11.5816 39.3588 11.6711 39.3956 11.7654 39.4109C16.4525 39.4233 21.1396 39.4233 25.8267 39.4109C25.8437 39.4109 25.8606 39.3955 25.8267 39.4109C25.8267 37.9775 25.8267 36.5673 25.8267 35.157C25.8267 33.8238 26.3287 33.3429 27.6745 33.2966C27.9437 33.2711 28.1965 33.1554 28.392 32.9684C29.0526 32.3318 29.6824 31.6613 30.306 30.9893C30.4445 30.8335 30.5465 30.6487 30.6047 30.4483C31.1267 28.6743 30.8403 27.0282 29.6038 25.6549C28.3181 24.2277 26.9369 22.8806 25.5819 21.5243C25.428 21.3919 25.232 21.3187 25.0291 21.3178C20.9569 21.3075 16.8847 21.3075 12.8125 21.3178C12.573 21.3302 12.3456 21.4268 12.1704 21.5906C10.8908 22.8652 9.62047 24.1507 8.37478 25.4592C8.04712 25.8344 7.75678 26.2406 7.50789 26.6722C7.17991 27.187 6.70566 27.3766 6.25758 27.1346C5.8095 26.8926 5.67554 26.3824 5.98812 25.8831C6.37308 25.2435 6.81693 24.6413 7.31387 24.0844C8.38248 22.9269 9.49421 21.8079 10.6213 20.7074C10.9601 20.376 11.0017 20.1186 10.7753 19.7195C10.5131 19.2505 10.2781 18.7667 10.0716 18.2706C9.60046 17.2087 10.2118 16.1945 11.3774 16.1514C12.3551 16.1159 13.336 16.1298 14.3153 16.1514C14.9019 16.1637 15.2592 16.5213 15.2561 17.0253C15.253 17.5293 14.905 17.8622 14.3045 17.8715C13.5054 17.8838 12.7077 17.8715 11.7977 17.8715C12.0734 18.4448 12.2874 18.9319 12.5476 19.3927C12.6006 19.4512 12.6656 19.4976 12.7382 19.5287C12.8107 19.5598 12.8891 19.5749 12.968 19.573C16.9232 19.5833 20.8799 19.5833 24.8382 19.573C24.9405 19.5613 25.039 19.5277 25.1272 19.4745C25.2154 19.4213 25.2912 19.3498 25.3494 19.2648C25.5911 18.8594 25.7667 18.4155 26.0053 17.91C25.7205 17.8977 25.5203 17.8792 25.3201 17.8792C23.1121 17.8792 20.9051 17.8792 18.6991 17.8792C17.9646 17.8792 17.5873 17.5709 17.5966 17.0068C17.6073 16.475 17.9954 16.1529 18.6744 16.1514C21.2289 16.1514 23.7834 16.1375 26.3379 16.1514C27.6437 16.1606 28.2642 17.1902 27.713 18.3785C27.4712 18.901 27.2018 19.4127 26.9769 19.9414C26.9154 20.0863 26.8969 20.356 26.9769 20.4392C28.2396 21.6723 29.5238 22.8837 30.8079 24.1044L32.6557 22.9099C32.0213 22.3165 32.1937 21.5089 32.1475 20.7352C32.1044 19.8859 32.3123 19.1754 33.1638 18.6806C32.8559 18.4202 32.6126 18.1905 32.3477 17.9809C29.6208 15.8231 28.0948 13.0318 27.8746 9.55004C27.81 8.51738 28.2919 8.01955 29.3405 8.00876C30.2644 7.99334 31.179 8.00876 32.1783 8.00876C31.7333 6.46747 32.3215 5.21903 33.073 4.00141C33.7258 2.93947 34.3186 1.84361 34.95 0.764711C35.5228 -0.210924 36.5036 -0.215548 37.0749 0.764711C37.8709 2.12258 38.6439 3.49587 39.4369 4.85529C40.0066 5.83246 40.1175 6.87283 39.8804 8.02263C40.8042 8.02263 41.6881 8.02263 42.5673 8.02263C43.7652 8.03188 44.2318 8.50043 44.1486 9.68105C43.9054 13.0719 42.4179 15.8077 39.7772 17.9285C39.4846 18.1643 39.2029 18.414 38.9072 18.6637C40.0682 19.6994 40.2607 21.4842 39.4123 22.9793C39.8295 23.2367 40.2622 23.4771 40.6641 23.7607C41.066 24.0443 41.414 24.3572 41.7958 24.6639C42.9276 23.9642 44.0255 24.1399 45.1341 24.8489C45.8809 23.8732 46.7724 23.1534 48.1013 23.4155C49.407 23.679 49.969 24.6485 50.2739 25.823C53.5567 25.954 54.6176 27.5292 53.1995 30.2295C53.3535 30.3512 53.5075 30.4776 53.6614 30.6102C54.787 31.5874 54.9703 32.993 54.1557 34.2322C54.0533 34.4063 54 34.605 54.0017 34.8071C53.9894 36.3407 54.0017 37.8743 54.0017 39.4649H57.7095C57.882 39.4551 58.0551 39.4592 58.2269 39.4772C58.7058 39.5527 58.9968 39.841 58.9968 40.3295C58.9968 40.8181 58.6888 41.2327 58.2269 41.1603C57.2599 41.0062 56.8811 41.6227 56.4377 42.2577C55.6354 43.4075 54.7732 44.5172 53.9817 45.6732C53.3227 46.6365 52.4419 47.0434 51.2948 47.0434C36.753 47.0341 22.2118 47.0341 7.6711 47.0434C6.54398 47.0434 5.6817 46.6349 5.03037 45.6963C4.08956 44.3384 3.08716 43.0237 2.14173 41.6689C1.89382 41.3144 1.63822 41.1264 1.20246 41.1942C0.965361 41.2431 0.718786 41.2131 0.500296 41.1088C0.281806 41.0044 0.103376 40.8315 -0.0078125 40.6162L0.00142643 39.9982ZM3.9402 41.168C4.78092 42.3286 5.58469 43.3782 6.31609 44.4756C6.71644 45.0752 7.19685 45.2786 7.90053 45.2786C16.4094 45.2601 24.9183 45.256 33.4271 45.2663C39.3614 45.2663 45.2963 45.2694 51.2317 45.2755C51.8476 45.2755 52.2787 45.086 52.6313 44.5665C53.2996 43.5817 54.0171 42.6338 54.7193 41.6674C54.824 41.524 54.9148 41.373 55.0488 41.168H3.9402ZM41.7774 27.6571C41.6573 27.4151 41.588 27.2425 41.4925 27.0868C40.8474 26.0346 39.9245 25.1812 38.8256 24.6207C38.3129 24.3479 37.874 23.9333 37.3967 23.5912C37.288 23.4956 37.1555 23.4312 37.0133 23.4047C36.3604 23.3862 35.7075 23.3846 35.0547 23.4047C34.8954 23.4332 34.7469 23.5046 34.6251 23.6112C34.177 23.9303 33.7474 24.2755 33.2916 24.5838C32.7773 24.9321 32.2415 25.2496 31.7195 25.5763C31.8827 25.9478 32.0105 26.2067 32.1106 26.4749C32.2107 26.7431 32.2646 27.076 32.4016 27.3457C32.4465 27.425 32.508 27.4937 32.5819 27.5469C32.6558 27.6001 32.7403 27.6366 32.8297 27.654C33.327 27.6925 33.8275 27.6648 34.3263 27.6679C35.0439 27.6679 35.4381 27.9915 35.4288 28.551C35.4196 29.1105 35.0393 29.3926 34.351 29.3972C33.7643 29.3972 33.1777 29.3972 32.5664 29.3972C32.5279 29.7563 32.4955 30.0353 32.4586 30.3759C33.0829 30.3787 33.6984 30.5234 34.2585 30.7992C34.8187 31.0751 35.3089 31.4747 35.6921 31.9681C35.9231 32.2517 36.1833 32.5137 36.3835 32.8158C36.6437 33.2073 36.9609 33.346 37.4383 33.3321C38.5423 33.3028 39.0874 33.8746 39.092 34.9951C39.092 36.4624 39.092 37.9236 39.092 39.3909H40.7473C40.7473 37.8881 40.7365 36.4301 40.7473 34.9705C40.758 33.8577 41.3124 33.3059 42.4318 33.3306C42.8799 33.3398 43.1924 33.2211 43.4388 32.8435C43.6081 32.5632 43.8195 32.3105 44.0655 32.0944C44.7122 31.5642 44.8261 30.8907 44.7954 30.1016C44.7738 29.5467 44.606 29.3756 44.0547 29.3849C42.3071 29.4157 40.5594 29.4172 38.8194 29.3772C38.6448 29.3702 38.4733 29.3288 38.3148 29.2552C38.1562 29.1817 38.0138 29.0775 37.8956 28.9487C37.4752 28.3907 37.9464 27.6833 38.7147 27.671C39.7079 27.6417 40.6995 27.6571 41.7774 27.6571ZM29.6331 9.74579C29.6439 9.94307 29.6408 10.0772 29.6608 10.2082C30.0719 12.8777 31.3638 15.0124 33.4841 16.6816C34.0245 17.1085 34.408 17.7266 34.8699 18.2552C34.9515 18.3493 35.0346 18.5157 35.1224 18.5188C35.7168 18.5419 36.3111 18.5388 36.9055 18.5188C36.984 18.5188 37.0595 18.3832 37.1303 18.3046C37.6461 17.7235 38.0942 17.0607 38.687 16.5721C40.2576 15.2775 41.4094 13.7146 42.0114 11.7695C42.21 11.1252 42.3101 10.4502 42.4734 9.73962L29.6331 9.74579ZM27.6437 35.0676C27.6437 36.3808 27.6329 37.6246 27.6437 38.8669C27.6437 39.263 27.8454 39.4418 28.3012 39.4371C31.082 39.4125 33.8629 39.4125 36.6437 39.4371C37.0641 39.4371 37.2827 39.283 37.2889 38.91C37.3089 37.6338 37.2966 36.3576 37.2966 35.0691L27.6437 35.0676ZM52.1956 35.0676H42.5488C42.5488 36.3746 42.5365 37.6539 42.5565 38.9331C42.5565 39.2861 42.7752 39.4341 43.1724 39.431C45.9748 39.4135 48.7778 39.4135 51.5812 39.431C51.9723 39.431 52.1863 39.2876 52.1971 38.9347C52.2079 37.66 52.1956 36.3792 52.1956 35.0707V35.0676ZM46.5307 30.3605C46.5745 30.3853 46.6217 30.4035 46.6708 30.4144C46.7663 30.4144 46.8633 30.4144 46.9588 30.4021C48.4292 30.2726 49.621 30.8013 50.5588 31.9295C50.877 32.3148 51.1962 32.6986 51.5165 33.0809C51.8553 33.4831 52.2957 33.3598 52.6683 33.2165C52.9963 33.0886 53.0563 32.4597 52.7422 32.1484C52.4166 31.8306 52.0357 31.5751 51.6181 31.3947C50.6696 30.9878 50.5542 30.399 51.2933 29.6592C51.5819 29.3826 51.8178 29.0557 51.9892 28.6944C52.2695 28.0547 51.9076 27.4952 51.2193 27.5245C50.7574 27.5446 50.2955 27.7234 49.8505 27.8806C49.1406 28.1333 48.5709 27.7526 48.5694 26.9959C48.5805 26.6904 48.5707 26.3845 48.5401 26.0803C48.4754 25.6257 48.3045 25.2034 47.7995 25.0893C47.2636 24.966 46.9449 25.3143 46.6708 25.7058C46.6058 25.8012 46.5486 25.9017 46.4999 26.0064C45.7747 27.5076 45.5976 27.5476 44.3842 26.4379C43.9839 26.0742 43.5481 25.7752 42.9122 26.0079C43.0816 26.3454 43.2864 26.6352 43.3741 26.9558C43.5281 27.5415 43.8699 27.6894 44.452 27.6725C45.5914 27.6432 46.4044 28.4431 46.4953 29.5806C46.5168 29.8457 46.5215 30.1077 46.5307 30.3605ZM36.017 2.34607C35.3103 3.58681 34.6312 4.74431 33.9922 5.92494C33.8417 6.21386 33.767 6.53631 33.7751 6.86204C33.8136 7.94094 33.9291 8.17059 35.1609 7.89162V7.1518C35.1609 6.02975 35.3857 5.62439 36.0109 5.61052C36.636 5.59664 36.8901 6.02358 36.8901 7.11944V7.9132C38.0649 8.12435 38.2359 8.03496 38.2667 6.8343C38.2687 6.48931 38.1834 6.14943 38.0188 5.84633C37.3905 4.69807 36.7238 3.57602 36.017 2.34607ZM4.22198 39.3955H9.53271C8.83672 37.9452 8.1469 36.5549 7.50481 35.1477C7.25844 34.6114 6.83654 34.6067 6.39924 34.7085C5.96194 34.8102 5.82182 35.2032 5.89573 35.6163C5.94925 35.8984 6.0536 36.1684 6.20369 36.4131C7.00745 37.7479 6.90891 37.996 5.40916 38.3675C4.87331 38.4985 4.38674 38.6958 4.22198 39.3955ZM38.1281 20.3005H33.9214V21.6214H38.1281V20.3005ZM49.4116 33.2859C48.7711 32.378 47.995 31.9927 46.9849 32.1438C46.2751 32.2517 45.7654 32.6447 45.3528 33.2859H49.4116ZM34.508 33.2859C33.9214 32.4304 33.2085 32.0436 32.2677 32.1176C31.4777 32.1808 30.9065 32.5799 30.4507 33.2859H34.508Z" fill="#F47170"/>
<path d="M24.7776 32.7985C24.7776 33.4613 24.8253 34.2612 24.7607 35.0519C24.7482 35.3178 24.6381 35.5697 24.4513 35.7591C24.2646 35.9486 24.0145 36.0623 23.749 36.0784C23.0676 36.1405 22.3823 36.1488 21.6996 36.103C21.5851 36.0834 21.4674 36.0965 21.36 36.141C21.2527 36.1855 21.1601 36.2594 21.0929 36.3543C20.6295 36.8787 20.1254 37.3657 19.5855 37.8108C19.3978 37.97 19.1594 38.0568 18.9134 38.0553C18.6675 38.0539 18.4301 37.9644 18.2443 37.8031C17.7227 37.389 17.2398 36.9283 16.8015 36.4267C16.5752 36.1662 16.4381 36.0676 16.0655 36.1108C15.4207 36.1708 14.7713 36.1615 14.1284 36.083C13.8428 36.0655 13.5739 35.9418 13.3745 35.7363C13.1752 35.5307 13.0597 35.2581 13.0506 34.9717C12.9859 34.2011 13.0352 33.4197 13.0352 32.7307C12.5024 32.1866 11.9573 31.6857 11.4769 31.1201C10.9965 30.5544 11.015 29.8947 11.4893 29.3275C11.9635 28.7604 12.4917 28.2903 13.0121 27.7616C13.0121 27.1204 12.9474 26.3744 13.029 25.647C13.126 24.7761 13.5018 24.4139 14.3625 24.323C14.9524 24.2683 15.5466 24.2822 16.1332 24.3646C16.4273 24.4016 16.5428 24.3399 16.7353 24.1226C17.2014 23.5967 17.708 23.1081 18.2505 22.6615C18.4375 22.5018 18.6752 22.4141 18.921 22.4141C19.1668 22.4141 19.4046 22.5018 19.5916 22.6615C20.1152 23.0732 20.5993 23.5329 21.0375 24.0348C21.2592 24.2906 21.3855 24.4016 21.7642 24.3569C22.4279 24.2971 23.096 24.3105 23.7567 24.397C24.0223 24.4147 24.272 24.5301 24.4576 24.721C24.6433 24.912 24.7518 25.1649 24.7622 25.4312C24.8238 26.2219 24.7776 27.0218 24.7776 27.683C25.3689 28.318 25.9417 28.876 26.4437 29.4909C26.6263 29.697 26.7271 29.963 26.7271 30.2384C26.7271 30.5139 26.6263 30.7799 26.4437 30.986C25.9525 31.5932 25.392 32.1373 24.7776 32.7985ZM17.322 31.9277C17.2544 31.9201 17.1863 31.9201 17.1187 31.9277C16.5336 32.1651 15.9485 32.4024 15.3664 32.6444C14.8537 32.8586 14.4657 33.7757 14.672 34.2859C14.6999 34.3531 14.7477 34.4101 14.809 34.4492C15.214 34.6835 16.3072 34.3629 16.4936 33.9391C16.7769 33.2948 17.0325 32.6367 17.322 31.9277ZM17.3096 28.6263C17.0294 27.945 16.8077 27.3932 16.5813 26.8507C16.4721 26.5352 16.2496 26.2716 15.9571 26.1109C15.6646 25.9503 15.323 25.9042 14.9984 25.9814C14.8875 25.9923 14.7834 26.0401 14.7028 26.117C14.4749 26.4161 14.7659 27.5628 15.1308 27.7277C15.8053 28.0298 16.4966 28.2949 17.3096 28.6263ZM16.6491 30.2415L15.0277 29.5649C14.0823 29.1719 13.5772 29.3414 12.969 30.2801C13.3786 30.7101 13.7574 31.3066 14.4487 31.1278C15.177 30.9382 15.8576 30.5667 16.6491 30.2415ZM23.1162 26.0354C22.5218 25.9121 21.8382 25.8674 21.4917 26.3806C21.0698 27.0048 20.8758 27.7863 20.5355 28.6263C21.1391 28.3781 21.5826 28.1639 22.0491 28.0097C23.0808 27.6845 23.2424 27.3208 23.127 26.0354H23.1162ZM21.1853 30.2415C21.8751 30.5298 22.4618 30.7209 22.9961 31.0122C23.5304 31.3035 23.9046 31.137 24.3064 30.8396C24.522 30.6854 24.7283 30.5097 24.9224 30.3618C24.445 29.6296 23.7906 29.1827 23.4026 29.3275C22.6912 29.5926 21.9952 29.9055 21.1899 30.2415H21.1853ZM18.8848 27.9111C18.932 27.8641 18.9743 27.8124 19.0111 27.757C19.2164 27.2607 19.4217 26.7639 19.627 26.2666C19.9827 25.3957 19.7317 24.753 18.8479 24.306C18.4183 24.6837 17.8794 25.0952 18.0179 25.7071C18.1858 26.4561 18.5784 27.1528 18.8895 27.9111H18.8848ZM20.5263 31.8491C20.7926 32.5072 21.0051 33.0328 21.2192 33.5568C21.5271 34.3028 21.9567 34.5695 22.759 34.4939C22.8901 34.4951 23.0175 34.4504 23.1193 34.3676C23.3425 34.0978 23.0869 32.9403 22.7451 32.7816C22.0691 32.461 21.3608 32.1928 20.5309 31.8491H20.5263ZM18.9403 32.5704C18.6908 33.1731 18.4783 33.6786 18.2705 34.1857C17.8794 35.1397 18.0179 35.5728 18.9141 36.1678C19.5901 35.727 19.975 35.1151 19.8056 34.6635C19.5531 33.9899 19.259 33.3411 18.9403 32.5704Z" fill="#F47170"/>
</g>
<defs>
<clipPath id="clip0_1202_1423">
<rect width="59" height="47" fill="white"/>
</clipPath>
</defs>
</svg>
