<svg width="31" height="38" viewBox="0 0 31 38" fill="none" xmlns="http://www.w3.org/2000/svg">
<path d="M15.5365 37.2922C18.5516 37.2949 21.5017 36.4153 24.023 34.7618C26.5443 33.1083 28.5267 30.7532 29.7258 27.9867C30.9249 25.2202 31.2882 22.1633 30.771 19.1928C30.2539 16.2224 28.8788 13.4681 26.8153 11.2697C28.0573 9.23481 29.5652 6.46666 29.5652 4.93135C29.5652 3.62347 29.0456 2.36917 28.1208 1.44437C27.196 0.51956 25.9417 0 24.6338 0C23.3259 0 22.0716 0.51956 21.1468 1.44437C20.222 2.36917 19.7025 3.62347 19.7025 4.93135C19.7554 5.68038 19.9401 6.4142 20.2478 7.09913C18.1656 6.4358 15.9663 6.22188 13.7953 6.47153C11.6243 6.72119 9.53097 7.42872 7.65367 8.54737C7.18899 7.77933 6.48645 7.18385 5.65266 6.85129C4.81886 6.51873 3.89934 6.46725 3.03364 6.70467C2.16794 6.94209 1.40332 7.45544 0.855833 8.16682C0.30834 8.87819 0.00786241 9.74876 0 10.6464C0 11.7005 0.843279 13.4466 1.70489 14.959C0.535242 17.3148 -0.0140013 19.93 0.109128 22.5573C0.232258 25.1845 1.02369 27.7369 2.40853 29.973C3.79338 32.209 5.72584 34.0547 8.02308 35.3355C10.3203 36.6163 12.9063 37.2897 15.5365 37.2922ZM6.63165 22.5669C6.74396 24.2224 7.12796 25.8482 7.76824 27.3791C6.3728 27.9187 5.06235 28.6565 3.87725 29.5697C2.48685 27.487 1.68411 25.0677 1.55365 22.5669H6.63165ZM8.89109 17.4385C10.8052 18.0486 12.7916 18.403 14.7986 18.4925V21.1003H8.1028C8.18814 19.8481 8.45364 18.6148 8.89109 17.4385ZM22.961 21.1049H16.2652V18.5246C18.2911 18.5079 20.3062 18.2275 22.2598 17.6905C22.642 18.7914 22.8778 19.9379 22.961 21.1003V21.1049ZM22.0031 26.6595C20.1292 26.1695 18.202 25.9124 16.2652 25.8941V22.5714H22.961C22.8572 23.9743 22.534 25.3522 22.0031 26.6549V26.6595ZM8.1028 22.5714H14.7986V25.9216C12.8829 26.008 10.9858 26.336 9.15232 26.8978C8.56637 25.5218 8.21176 24.0585 8.1028 22.5669V22.5714ZM14.7986 27.3928V34.7257C12.7773 32.8502 11.0746 30.6584 9.75728 28.2361C11.3973 27.7507 13.0901 27.466 14.7986 27.3882V27.3928ZM16.2652 34.7257V27.3928C17.9944 27.4064 19.7158 27.6248 21.3936 28.0436C20.0687 30.5386 18.3352 32.7941 16.2652 34.7165V34.7257ZM16.2652 17.0626V8.85901C18.5279 10.9901 20.3769 13.5212 21.719 16.3248C19.939 16.7965 18.1066 17.0413 16.2652 17.0535V17.0626ZM14.7986 8.86359V17.0351C12.984 16.9501 11.1879 16.6312 9.4548 16.0865C10.792 13.3773 12.6016 10.9283 14.7986 8.85442V8.86359ZM4.75261 30.7476C5.85103 29.8996 7.06776 29.2171 8.36404 28.7219C9.06025 30.0917 9.8908 31.3889 10.8435 32.5945C11.7136 33.7025 12.6633 34.7456 13.6849 35.7156C10.188 35.2439 6.99792 33.4697 4.75261 30.7476ZM17.3697 35.7064C18.3885 34.735 19.3366 33.692 20.2066 32.5854C21.2266 31.2992 22.1055 29.9071 22.8281 28.4331C24.1859 28.878 25.4742 29.5121 26.6549 30.3168C25.5381 31.782 24.143 33.0124 22.5496 33.9373C20.9562 34.8622 19.1959 35.4634 17.3697 35.7064ZM27.4845 29.1069C26.2264 28.2495 24.8572 27.5679 23.4147 27.0811C23.9888 25.6389 24.3336 24.1157 24.4367 22.5669H29.5102C29.3899 24.8822 28.692 27.1305 27.4799 29.1069H27.4845ZM24.4367 21.1003C24.3531 19.7846 24.091 18.4864 23.6576 17.2414C25.1287 16.7249 26.5179 15.9994 27.7824 15.0874C28.8038 16.9354 29.3915 18.9916 29.501 21.1003H24.4367ZM28.1032 4.93135C28.1032 5.95337 26.9712 8.18072 25.7567 10.2202C25.4954 10.6556 25.2342 11.0818 24.9729 11.4897C24.863 11.6684 24.7484 11.8426 24.6384 12.0121C24.313 11.5126 23.9693 10.9718 23.6347 10.4081C23.1306 9.57397 22.6356 8.6986 22.2231 7.88282C21.6044 6.65915 21.1736 5.56381 21.1736 4.93135C21.1736 4.01243 21.5387 3.13115 22.1884 2.48138C22.8382 1.83161 23.7195 1.46658 24.6384 1.46658C25.5573 1.46658 26.4386 1.83161 27.0884 2.48138C27.7381 3.13115 28.1032 4.01243 28.1032 4.93135ZM21.1461 9.00567C22.0221 10.6364 22.9859 12.2183 24.0334 13.7445C24.1014 13.8419 24.1919 13.9214 24.2973 13.9764C24.4026 14.0313 24.5196 14.0599 24.6384 14.0599C24.7572 14.0599 24.8742 14.0313 24.9795 13.9764C25.0848 13.9214 25.1753 13.8419 25.2433 13.7445C25.3442 13.5933 25.6421 13.1625 26.0316 12.5621C26.3901 12.9674 26.7252 13.3928 27.0353 13.8362C25.8506 14.7063 24.5421 15.3937 23.1535 15.8756C22.3845 14.1449 21.4039 12.5162 20.2341 11.0268C19.3894 9.94677 18.4706 8.92688 17.4843 7.97449C18.737 8.15111 19.9598 8.49805 21.1186 9.00567H21.1461ZM13.6162 7.97449C12.6298 8.92682 11.711 9.94671 10.8664 11.0268C9.76225 12.4293 8.82413 13.9549 8.07072 15.5732C7.55377 15.3595 7.04888 15.1178 6.55832 14.849C7.66742 12.9058 8.20821 11.5263 8.20821 10.6464C8.20718 10.413 8.18725 10.18 8.14863 9.94978C9.80289 8.91608 11.6566 8.243 13.5887 7.97449H13.6162ZM4.0789 7.9974C4.54854 8.00243 5.00837 8.13245 5.41111 8.37409C5.81385 8.61574 6.14497 8.96029 6.37042 9.37231C6.59162 9.76536 6.7069 10.2091 6.70498 10.6601C6.70222 10.7778 6.68529 10.8948 6.65456 11.0085C6.32701 12.0915 5.86511 13.1292 5.27965 14.0974C5.05967 14.4916 4.82135 14.9132 4.52804 15.3623C4.38138 15.6007 4.22097 15.8481 4.06973 16.1048C3.80392 15.7015 3.56102 15.3119 3.33645 14.9453C3.02022 14.4136 2.74524 13.9233 2.5115 13.4833C1.74155 12.0167 1.42074 11.0405 1.42074 10.6601C1.41892 10.3103 1.4864 9.96364 1.61929 9.64006C1.75217 9.31648 1.94783 9.02243 2.19496 8.77487C2.4421 8.52731 2.73582 8.33114 3.05917 8.1977C3.38252 8.06426 3.7291 7.99618 4.0789 7.9974ZM2.60316 16.4898C3.03855 17.1772 3.38228 17.6813 3.48769 17.8326C3.55475 17.931 3.64505 18.0113 3.75057 18.0665C3.85609 18.1216 3.97359 18.1499 4.09265 18.1488C4.21109 18.15 4.32795 18.1217 4.43275 18.0665C4.53754 18.0113 4.62698 17.9309 4.69303 17.8326C4.72053 17.7959 5.20633 17.0947 5.8067 16.1185C6.36042 16.4271 6.93116 16.704 7.51618 16.9481C7.02083 18.2881 6.72288 19.6929 6.63165 21.1186H1.55365C1.6367 19.5271 1.99167 17.9615 2.60316 16.4898Z" fill="white"/>
<path d="M3.41336 12.233C3.80072 12.3772 4.224 12.3942 4.62169 12.2815C5.01937 12.1687 5.37074 11.9321 5.62472 11.606C5.87871 11.2798 6.02208 10.8812 6.034 10.468C6.04593 10.0548 5.92578 9.64859 5.69102 9.30836C5.45626 8.96813 5.11913 8.71163 4.72861 8.57612C4.33808 8.44062 3.91453 8.43318 3.51949 8.55488C3.12445 8.67658 2.77851 8.92109 2.53195 9.25287C2.28538 9.58464 2.15104 9.98639 2.14844 10.3997C2.14789 10.7977 2.26867 11.1863 2.49466 11.5139C2.72066 11.8414 3.04113 12.0922 3.41336 12.233ZM4.0779 9.51522C4.317 9.5212 4.5443 9.62041 4.71127 9.79166C4.87824 9.96291 4.97166 10.1926 4.97159 10.4318C4.97386 10.4746 4.97386 10.5174 4.97159 10.5602C4.94054 10.7495 4.85087 10.9243 4.7152 11.06C4.57953 11.1956 4.40472 11.2853 4.21539 11.3163H4.08706C3.95336 11.3452 3.81489 11.3438 3.68181 11.3121C3.54873 11.2805 3.42441 11.2195 3.31798 11.1336C3.21155 11.0477 3.12569 10.939 3.06671 10.8156C3.00772 10.6922 2.97711 10.5572 2.97711 10.4204C2.97711 10.2836 3.00772 10.1485 3.06671 10.0251C3.12569 9.90171 3.21155 9.79306 3.31798 9.70714C3.42441 9.62122 3.54873 9.56022 3.68181 9.52859C3.81489 9.49697 3.95336 9.49553 4.08706 9.52438L4.0779 9.51522Z" fill="white"/>
<path d="M24.6118 6.9346C25.065 6.9346 25.5081 6.8002 25.8849 6.54841C26.2618 6.29661 26.5555 5.93873 26.7289 5.52001C26.9024 5.10129 26.9477 4.64055 26.8593 4.19604C26.7709 3.75153 26.5526 3.34321 26.2322 3.02274C25.9117 2.70226 25.5034 2.48401 25.0589 2.39559C24.6144 2.30717 24.1536 2.35256 23.7349 2.526C23.3162 2.69944 22.9583 2.99315 22.7065 3.36999C22.4547 3.74683 22.3203 4.18986 22.3203 4.64308C22.3203 5.25083 22.5617 5.83369 22.9915 6.26344C23.4212 6.69318 24.0041 6.9346 24.6118 6.9346ZM24.6118 3.41024C24.8566 3.41024 25.0958 3.48282 25.2993 3.61879C25.5028 3.75476 25.6614 3.94801 25.7551 4.17412C25.8487 4.40023 25.8732 4.64904 25.8255 4.88907C25.7777 5.12911 25.6599 5.3496 25.4868 5.52265C25.3138 5.69571 25.0933 5.81356 24.8532 5.8613C24.6132 5.90905 24.3644 5.88455 24.1383 5.79089C23.9122 5.69724 23.7189 5.53863 23.583 5.33514C23.447 5.13164 23.3744 4.89241 23.3744 4.64767C23.3744 4.31948 23.5048 4.00475 23.7368 3.77268C23.9689 3.54062 24.2836 3.41024 24.6118 3.41024Z" fill="white"/>
</svg>
