<svg width="31" height="30" viewBox="0 0 31 30" fill="none" xmlns="http://www.w3.org/2000/svg">
<path d="M28.5627 13.095C27.8616 12.8938 27.149 12.7381 26.4291 12.6287H26.3573H23.126L22.0543 10.8716H23.322C23.3908 10.8721 23.459 10.8584 23.5226 10.8314C23.5862 10.8044 23.644 10.7646 23.6926 10.7143C23.7413 10.664 23.7797 10.6042 23.8059 10.5384C23.832 10.4726 23.8452 10.4021 23.8448 10.331V8.72261C23.8448 8.57922 23.7897 8.44171 23.6917 8.34032C23.5936 8.23893 23.4607 8.18198 23.322 8.18198H21.7668C21.7009 8.18252 21.6357 8.1951 21.574 8.21914C21.2718 8.33557 20.9861 8.49355 20.7246 8.68882L19.0419 5.93158H20.1985C20.2675 5.93158 20.3357 5.91749 20.3994 5.8901C20.463 5.86272 20.5208 5.8226 20.5693 5.77204C20.6179 5.72148 20.6564 5.66148 20.6824 5.5955C20.7085 5.52951 20.7217 5.45885 20.7213 5.38756V3.85689C20.7213 3.7135 20.6662 3.57599 20.5682 3.4746C20.4702 3.37321 20.3372 3.31625 20.1985 3.31625H18.7087C18.6428 3.31679 18.5776 3.32938 18.5159 3.35342C18.2371 3.46185 17.9726 3.60602 17.7285 3.78255L16.2942 1.43417C16.2371 1.33752 16.1511 1.26278 16.0492 1.22129L13.2001 0.0386502C13.1086 0.00104953 13.0087 -0.00938425 12.9117 0.00852425C12.8148 0.0264327 12.7245 0.0719739 12.6512 0.14002C12.5785 0.208518 12.5261 0.296958 12.5001 0.395057C12.474 0.493156 12.4755 0.596884 12.5042 0.694172L15.9152 12.6388H6.44025C6.40547 12.6355 6.37047 12.6355 6.33569 12.6388C6.30302 12.6388 5.73126 12.7672 5.0288 12.9767L2.95411 8.8206C2.90978 8.73201 2.84275 8.65773 2.76035 8.60588C2.67795 8.55404 2.58335 8.52662 2.4869 8.52663H0.52656C0.447324 8.52648 0.369089 8.54495 0.29777 8.58066C0.226452 8.61636 0.163914 8.66837 0.114886 8.73274C0.0664699 8.79761 0.0325659 8.87278 0.0156169 8.95282C-0.00133203 9.03287 -0.000900067 9.11581 0.0168732 9.19567L1.25189 14.4871H0.569036C0.430392 14.4871 0.297424 14.5441 0.199389 14.6455C0.101353 14.7469 0.0462771 14.8844 0.0462771 15.0278C0.0462771 15.1712 0.101353 15.3087 0.199389 15.4101C0.297424 15.5114 0.430392 15.5684 0.569036 15.5684H1.23881L0.0136028 20.8058C-0.00412858 20.8851 -0.00452983 20.9675 0.0124263 21.047C0.0293824 21.1265 0.0632649 21.2011 0.111616 21.2654C0.160643 21.3297 0.223182 21.3817 0.2945 21.4174C0.365818 21.4532 0.444053 21.4716 0.52329 21.4715H2.48363C2.58008 21.4715 2.67468 21.4441 2.75708 21.3922C2.83948 21.3404 2.90651 21.2661 2.95084 21.1775L4.97325 17.0957C5.71492 17.2815 6.32262 17.3762 6.3553 17.3829H15.8989L12.4944 29.3073C12.4661 29.4046 12.4648 29.5082 12.4908 29.6063C12.5168 29.7043 12.569 29.7927 12.6414 29.8615C12.7386 29.9509 12.8642 30.0002 12.9943 30C13.0612 29.9992 13.1275 29.9866 13.1903 29.9628L16.0394 28.7802C16.14 28.7365 16.2254 28.6623 16.2844 28.5673L17.7187 26.2189C17.9629 26.3944 18.2274 26.5374 18.5061 26.6447C18.5671 26.6714 18.6327 26.6851 18.6989 26.6852H20.1887C20.2577 26.6852 20.3259 26.6711 20.3896 26.6438C20.4532 26.6164 20.511 26.5762 20.5595 26.5257C20.6081 26.4751 20.6466 26.4151 20.6726 26.3491C20.6987 26.2832 20.7119 26.2125 20.7115 26.1412V24.6038C20.7115 24.4604 20.6564 24.3229 20.5584 24.2215C20.4604 24.1201 20.3274 24.0631 20.1887 24.0631H19.0321L20.7148 21.3059C20.9817 21.4973 21.2717 21.6517 21.5773 21.7654C21.6389 21.7895 21.7042 21.8021 21.7701 21.8026H23.3253C23.3939 21.8026 23.4619 21.7886 23.5253 21.7615C23.5888 21.7343 23.6464 21.6945 23.6949 21.6443C23.7435 21.5941 23.782 21.5345 23.8082 21.4689C23.8345 21.4033 23.848 21.333 23.848 21.262V19.6502C23.848 19.5792 23.8345 19.5089 23.8082 19.4433C23.782 19.3777 23.7435 19.3181 23.6949 19.2679C23.6464 19.2177 23.5888 19.1779 23.5253 19.1507C23.4619 19.1236 23.3939 19.1096 23.3253 19.1096H22.0576L23.1129 17.3728H26.4357C27.1532 17.2534 27.8634 17.091 28.5627 16.8862C30.2257 16.3895 31 15.7948 31 15.0109C31 13.9431 29.6082 13.4059 28.5627 13.095ZM28.1575 15.8928C27.5516 16.0626 26.9376 16.2002 26.3181 16.305H6.48271C6.12658 16.2476 5.78679 16.1834 5.47314 16.109L5.74105 15.5684H6.34549C6.48414 15.5684 6.6171 15.5114 6.71514 15.4101C6.81318 15.3087 6.86825 15.1712 6.86825 15.0278C6.86825 14.8844 6.81318 14.7469 6.71514 14.6455C6.6171 14.5441 6.48414 14.4871 6.34549 14.4871H5.77046L5.50908 13.9566C5.97957 13.8249 6.3651 13.7336 6.48925 13.7066H26.3115C26.9729 13.8077 27.6276 13.951 28.2719 14.1357C29.6343 14.5412 29.9382 14.923 29.9512 15.0176C29.9316 15.0582 29.7095 15.4434 28.1575 15.8928ZM19.6627 25.1444V25.604H18.7969C18.6602 25.5433 18.528 25.4722 18.4016 25.3911C18.5337 25.3001 18.6712 25.2177 18.8132 25.1444H19.6627ZM15.6636 27.5536L21.3976 17.3728H21.8746L15.6636 27.5536ZM20.5318 17.3728L14.3894 28.3038L13.8111 28.5437L17.0032 17.3728H20.5318ZM3.95715 16.7882L2.17651 20.3767H1.18001L2.24512 15.8117L2.30719 15.5549H4.56485L4.43743 15.8117L4.19892 16.2983L3.95715 16.7882ZM2.17651 9.60114L4.01269 13.318L4.25447 13.8012L4.49297 14.2878L4.59425 14.4905H2.30719L2.30066 14.3317L1.19307 9.60114H2.17651ZM15.5003 2.13699L21.891 12.6118H21.3813L15.4774 2.13699H15.5003ZM19.6758 4.37387V4.83341H18.8263C18.6829 4.76267 18.5453 4.68019 18.4146 4.58675C18.5418 4.50697 18.6739 4.43586 18.81 4.37387H19.6758ZM14.3502 1.67069L20.5155 12.6287H17.0032L13.8078 1.44768L14.3502 1.67069ZM22.7993 9.26325V9.79036H21.8812C21.7198 9.70804 21.5647 9.61316 21.4172 9.50653C21.5629 9.41654 21.7134 9.33531 21.8681 9.26325H22.7993ZM21.8844 20.2077H22.7993V20.7349H21.8681C21.7129 20.6662 21.5632 20.5849 21.4205 20.4916C21.5676 20.3824 21.7227 20.2852 21.8844 20.201V20.2077Z" fill="white"/>
</svg>
