<svg width="31" height="31" viewBox="0 0 31 31" fill="none" xmlns="http://www.w3.org/2000/svg">
<path d="M17.243 28.4327C16.4847 28.7004 15.7749 28.9733 15.0498 29.2029C13.4056 29.7249 11.7623 30.252 10.1036 30.7282C8.11386 31.2985 6.47391 30.6867 5.14458 29.1504C5.12501 29.1275 5.09863 29.1097 5.01097 29.0343C5.01097 29.247 5.01097 29.4046 5.01097 29.5614C5.01097 29.8681 5.01948 30.1757 5.00331 30.4816C4.9897 30.752 4.8263 30.9053 4.55482 30.9248C4.28333 30.9443 4.07738 30.8282 4.0144 30.5469C3.99478 30.4216 3.98879 30.2946 3.99653 30.1681C3.99653 29.3029 3.99653 28.4369 3.99653 27.5556L3.08762 27.4285C2.80423 27.3887 2.62125 27.2438 2.4919 26.976C1.69192 25.3558 0.857901 23.7517 0.0817533 22.1213C-0.0416473 21.862 -0.0135624 21.4646 0.0877112 21.1815C0.2866 20.6157 0.543255 20.0716 0.853646 19.5579C1.47065 18.5487 2.30977 17.7182 3.15145 16.898C3.54633 16.5149 3.93611 16.1268 4.32078 15.7481C3.99143 15.0786 3.99823 15.0405 4.51567 14.5244L6.07903 12.9737C5.7735 12.3661 5.4833 11.7933 5.19309 11.2238C5.15092 11.1672 5.09106 11.126 5.02289 11.1069C3.5591 10.5561 3.08082 9.1257 3.91654 7.7919L3.98717 7.67412C3.5191 7.23093 3.5208 6.64115 3.53442 6.04289C3.54718 5.46158 3.53442 4.87942 3.53442 4.29811C3.53442 2.44317 4.34631 1.22886 6.08753 0.579758C7.65542 -0.0174528 9.36189 -0.156795 11.0065 0.178095C12.6686 0.517051 13.6873 1.589 14.1145 3.22023C14.1384 3.31259 14.1571 3.40581 14.1801 3.49817C14.1916 3.52409 14.2053 3.54903 14.2209 3.57274H16.0209C17.1485 3.57274 17.9349 4.12609 18.4344 5.09805C18.8821 5.96577 18.6523 6.8191 17.8549 7.386C17.2506 7.81732 16.5528 7.9868 15.8311 8.07493C15.4856 8.1173 15.1366 8.1334 14.7698 8.15967C14.6643 10.0358 14.5052 11.8992 13.135 13.4372C13.5784 13.8745 13.9809 14.3821 14.4907 14.738C14.8226 14.9693 15.3102 14.9812 15.7673 15.1023V14.7151C15.7673 13.7321 15.7673 12.7483 15.7673 11.7653C15.7673 11.3569 15.9375 11.1866 16.3511 11.1866C21.0539 11.1866 25.7568 11.1866 30.4596 11.1866C30.88 11.1866 31 11.3179 31 11.7416V25.1304C31 25.8083 30.8979 25.91 30.2026 25.91H26.9525C26.932 26.065 26.9227 26.1998 26.8963 26.3337C26.7261 27.1811 26.0963 27.72 25.0946 27.8742C24.813 27.9168 24.5285 27.9389 24.2436 27.9403C22.9798 27.9446 21.716 27.914 20.4539 27.9446C19.7288 27.9615 19.0072 28.0717 18.2693 28.1411C18.2693 28.9665 18.2753 29.7054 18.2693 30.4444C18.2642 30.8842 17.8532 31.1485 17.5144 30.9104C17.3679 30.7833 17.2779 30.6035 17.2642 30.4105C17.2327 29.8732 17.2523 29.3326 17.2523 28.7928L17.243 28.4327ZM16.8004 12.2009V23.8711C16.9357 23.8347 17.0557 23.7983 17.1757 23.772C17.7859 23.6373 18.3919 23.4212 19.0072 23.3915C20.2573 23.3305 21.5118 23.3602 22.7645 23.3754C23.4862 23.3847 24.0411 23.8839 24.1891 24.5965C24.2079 24.6889 24.2291 24.7804 24.2513 24.877H30.0213V12.2229H25.9636V12.4966C25.9636 13.5643 25.9687 14.6329 25.9636 15.7006C25.9636 16.1853 25.6231 16.3785 25.1976 16.159C24.6972 15.9048 24.1976 15.6506 23.687 15.415C23.5502 15.3619 23.3983 15.3619 23.2615 15.415C22.7407 15.6506 22.2343 15.9175 21.722 16.1709C21.2352 16.4116 20.882 16.1963 20.8752 15.6489C20.8692 15.1405 20.8752 14.632 20.8752 14.1236V12.2204C20.8054 12.2119 20.7654 12.2017 20.7254 12.2017L16.8004 12.2009ZM11.7427 16.2684C11.5112 16.8564 11.3036 17.375 11.1019 17.8962C11.021 18.1038 10.8814 18.2665 10.6576 18.2258C10.4874 18.1962 10.3291 18.0784 10.1912 17.9716C10.1181 17.9123 10.0976 17.786 10.0568 17.6886C9.85934 17.214 9.6636 16.7387 9.44914 16.2226L8.12237 17.9047C7.71983 18.4131 7.53771 18.4317 7.03474 18.0123C6.40157 17.4844 5.76669 16.9598 5.1131 16.4175C4.788 16.7454 4.47312 17.0446 4.17695 17.3615C3.39996 18.1979 2.58806 19.008 1.87915 19.8969C1.50554 20.3621 1.30214 20.9654 1.04428 21.5179C1.00266 21.6457 1.01273 21.7847 1.07236 21.9052C1.79064 23.3881 2.51743 24.8674 3.25272 26.343C3.30476 26.4396 3.39276 26.512 3.49782 26.5447C4.93012 26.8607 6.28668 26.1557 6.88326 24.8118C6.97857 24.5974 6.98198 24.4338 6.85092 24.2287C6.4254 23.5602 6.0135 22.8814 5.60755 22.2001C5.37777 21.8154 5.53351 21.4417 5.93946 21.3722C6.22966 21.3222 6.38795 21.4976 6.51901 21.7222C7.15133 22.8094 7.7811 23.8983 8.42364 24.9804C8.91469 25.8074 9.81849 26.1667 10.7214 25.8761C12.3035 25.3676 13.8788 24.8329 15.4583 24.3143C15.5245 24.3017 15.5834 24.2643 15.6226 24.2097C15.6619 24.1551 15.6787 24.0876 15.6694 24.0211C15.6643 21.4829 15.6643 18.9453 15.6694 16.4082C15.6694 16.2302 15.6226 16.1412 15.4379 16.1082C15.1668 16.0585 14.8986 15.9943 14.6345 15.9158C14.4601 15.8633 14.369 15.8989 14.2941 16.0718C14.0941 16.5141 13.8762 16.9488 13.6601 17.3844C13.4048 17.903 12.9792 17.936 12.6312 17.4691C12.3435 17.0818 12.0635 16.7022 11.7427 16.265V16.2684ZM5.17267 27.4819C5.605 28.1759 6.08073 28.7657 6.69773 29.2275C6.95294 29.4156 7.225 29.5798 7.51047 29.7181C8.38449 30.1486 9.28829 29.9995 10.1487 29.7351C12.2431 29.0928 14.3256 28.4098 16.403 27.7141C17.7774 27.2539 19.1655 26.9031 20.6284 26.9175C21.8913 26.9302 23.1543 26.9395 24.4164 26.9175C24.7652 26.8968 25.1089 26.824 25.4359 26.7014C25.7499 26.5972 25.9125 26.3345 25.9525 25.9608C25.8274 25.9608 25.715 25.9608 25.6019 25.9608C24.3928 25.9439 23.1835 25.9264 21.9739 25.9083C21.5816 25.9023 21.3782 25.7286 21.3782 25.4049C21.3782 25.0812 21.5807 24.8965 21.9662 24.8965C22.3688 24.8923 22.7705 24.8965 23.1755 24.8965C23.1202 24.5236 22.9713 24.3881 22.6028 24.3881C21.5739 24.3881 20.5441 24.3711 19.5152 24.394C19.0823 24.4072 18.6516 24.4623 18.2293 24.5584C17.703 24.6797 17.1832 24.8273 16.6719 25.0007C14.8507 25.5939 13.0371 26.2159 11.2142 26.8065C9.92998 27.2234 8.70448 26.8404 7.85344 25.7896C7.80744 25.723 7.76594 25.6533 7.72919 25.5812C7.11644 26.5997 6.29859 27.2099 5.17267 27.4785V27.4819ZM13.506 6.01238L13.4252 6.00306C13.3401 6.11915 13.255 6.23779 13.1605 6.35049C12.9001 6.66996 12.6601 7.00891 12.3699 7.29872C12.1025 7.57835 11.7787 7.79843 11.4198 7.94448C11.0609 8.09054 10.6749 8.15925 10.2874 8.14611C8.61172 8.11645 6.93517 8.13255 5.25948 8.14611C5.09693 8.14611 4.87225 8.20543 4.7863 8.31983C4.49865 8.69946 4.48673 9.15027 4.63822 9.59091C4.77013 9.97478 5.09948 10.1383 5.48075 10.1629C5.86201 10.1875 6.02456 10.3959 6.15562 10.7239C6.34115 11.1916 6.52497 11.678 6.81262 12.0848C7.60494 13.2033 8.69597 13.8084 10.0985 13.7067C11.604 13.5974 12.6516 12.8322 13.2192 11.4298C13.7477 10.1315 13.8005 8.77827 13.6941 7.40888C13.6584 6.93943 13.5699 6.47675 13.506 6.01238ZM7.61941 1.23564C6.9156 1.34326 6.25774 1.5407 5.68159 1.93304C5.08076 2.33894 4.65524 2.88975 4.61013 3.61427C4.55141 4.64639 4.56843 5.68275 4.56843 6.71741C4.56843 6.94282 4.72843 7.08772 4.95565 7.11399C5.88329 7.21822 6.74284 7.10382 7.34452 6.28355C7.50196 6.0717 7.66196 5.85985 7.82025 5.64885C8.81001 4.32353 10.033 3.44563 11.7912 3.56512C12.2397 3.59647 12.6916 3.56935 13.2482 3.56935C13.021 3.11176 12.8805 2.6923 12.6312 2.35335C11.9759 1.46443 11.0568 1.006 9.95721 1.13226C8.85767 1.25852 8.14109 1.94829 7.81004 2.99652C7.71567 3.342 7.6516 3.695 7.61856 4.05152C7.57515 4.39048 7.3709 4.59809 7.06623 4.58029C6.76156 4.5625 6.59816 4.36082 6.59901 4.01593C6.6 3.87852 6.6091 3.74129 6.62624 3.60494C6.72162 2.73652 7.06645 1.91389 7.61941 1.23564ZM13.3571 4.59046C12.5912 4.59046 11.8252 4.58283 11.0508 4.59639C10.8706 4.6072 10.6937 4.64966 10.5283 4.7218C9.37595 5.1777 8.71044 6.13525 8.02535 7.1267C8.82873 7.1267 9.59211 7.1123 10.3546 7.13263C10.7395 7.14959 11.1165 7.02093 11.4099 6.77249C11.6243 6.59888 11.8236 6.40753 12.0057 6.2005C12.4584 5.67258 12.8993 5.13533 13.3571 4.59046ZM24.9372 12.2221H21.9007V14.9295C22.3134 14.7269 22.7075 14.549 23.0845 14.3422C23.1818 14.2799 23.2948 14.2463 23.4104 14.2452C23.5261 14.2442 23.6397 14.2758 23.7381 14.3363C24.1219 14.5456 24.5202 14.7269 24.9372 14.9295V12.2221ZM14.7366 7.14704C15.1502 7.10806 15.5792 7.11314 15.9843 7.01654C16.4322 6.90666 16.8666 6.74779 17.2796 6.54285C17.5587 6.40727 17.7255 6.11915 17.5995 5.7946C17.3851 5.24549 17.0362 4.79892 16.4277 4.643C15.6873 4.45318 15.0617 4.76841 14.4575 5.13448C14.4047 5.16584 14.3775 5.29718 14.3911 5.3726C14.495 5.94035 14.6124 6.50895 14.7366 7.14704ZM5.29947 15.2693L7.51218 17.0725L8.8883 15.3464L6.6756 13.8931L5.29947 15.2693ZM13.5809 15.4388L12.5197 14.4032C12.472 14.5337 12.3971 14.7193 12.3384 14.9117C12.3103 15.0057 12.2669 15.1413 12.3095 15.204C12.5588 15.5726 12.832 15.926 13.1197 16.315L13.5809 15.4388ZM9.93423 14.7608L10.6976 16.3777C10.941 15.7252 11.1614 15.1337 11.3878 14.5244L9.93423 14.7608Z" fill="white"/>
</svg>
