<svg width="31" height="31" viewBox="0 0 31 31" fill="none" xmlns="http://www.w3.org/2000/svg">
<g clip-path="url(#clip0_1176_5024)">
<path d="M0 23.4179V6.56157C0.204564 6.42873 0.395382 6.26187 0.617735 6.16872C5.4626 4.12586 10.3107 2.09165 15.162 0.0660806C15.362 -0.0144307 15.5839 -0.0216026 15.7887 0.0458303C17.3192 0.6663 18.8393 1.31188 20.3618 1.95179C23.7578 3.37957 27.1567 4.80627 30.5585 6.2319C30.8771 6.36474 31.0008 6.54942 31 6.89125C30.993 11.3064 30.993 15.722 31 20.1382C31.001 21.3312 30.8333 22.5183 30.5019 23.6642C29.598 26.8022 27.8046 29.2071 24.783 30.5938C24.4927 30.7267 24.2049 30.8636 23.9163 30.9988H23.5532C23.5075 30.9629 23.4585 30.9315 23.4069 30.9049C22.0947 30.4026 20.893 29.6484 19.8694 28.6846C19.7312 28.5542 19.6269 28.564 19.47 28.6393C18.3219 29.2022 17.1624 29.7433 16.0239 30.3257C15.6528 30.5161 15.3601 30.5096 14.9817 30.3371C10.1525 28.1355 5.31921 25.9436 0.481898 23.7614C0.303207 23.6804 0.158477 23.5338 0 23.4179ZM10.6543 11.5626V11.9214C10.6543 13.0425 10.6543 14.1638 10.6543 15.2854C10.6543 15.8881 10.38 16.0795 9.83122 15.8597C8.3168 15.2538 6.8048 14.6398 5.28714 14.0437C4.96372 13.9181 4.83597 13.7245 4.83839 13.3827C4.84971 12.0486 4.83839 10.7153 4.8481 9.38204C4.8481 9.169 4.78907 9.06532 4.58612 8.9827C3.52207 8.55015 2.46609 8.09898 1.40769 7.6559C1.27105 7.59839 1.13198 7.54817 0.96865 7.48499V7.82114C0.96865 12.7509 0.966763 17.6809 0.962989 22.6112C0.962989 22.8501 1.03414 22.9587 1.25003 23.0567C5.74074 25.0785 10.2293 27.1059 14.7157 29.1391C14.8038 29.1788 14.8928 29.2144 15.0011 29.2598C15.0068 29.1585 15.0132 29.0977 15.0132 29.0394C15.0132 23.8975 15.0151 18.7552 15.0189 13.6127C15.0189 13.4143 14.9437 13.3381 14.7763 13.2669C13.4827 12.7323 12.1938 12.1863 10.9026 11.6468C10.8282 11.6144 10.7522 11.595 10.6543 11.5626ZM18.9873 27.7952C18.8256 27.5741 18.6809 27.3902 18.5483 27.2031C18.4156 27.016 18.2806 26.8232 18.1666 26.6215C16.3215 23.3758 16.0644 19.9397 16.9538 16.3692C17.0241 16.0833 17.2166 15.9642 17.5085 15.9569C18.9954 15.9083 20.0958 15.219 20.8106 13.9157C20.961 13.6411 21.151 13.5285 21.4574 13.5309C22.9603 13.5401 24.4634 13.5401 25.9667 13.5309C26.3007 13.5309 26.5069 13.6443 26.6597 13.9465C27.036 14.6933 27.6613 15.2848 28.4272 15.6183C28.9203 15.8521 29.4618 15.9651 30.0071 15.948V7.49633C29.9093 7.53197 29.8341 7.55627 29.7645 7.58705C25.27 9.4733 20.7745 11.3585 16.2778 13.2426C16.0474 13.339 15.9787 13.4596 15.9787 13.7059C15.9868 18.7679 15.9886 23.8297 15.9843 28.8912V29.2541L18.9873 27.7952ZM11.3909 10.7736C11.4637 10.8166 11.496 10.8417 11.5324 10.8546C12.7946 11.3852 14.0559 11.9198 15.3237 12.4374C15.4628 12.4799 15.6125 12.4712 15.7458 12.4131C20.1314 10.5771 24.5143 8.73781 28.8945 6.8953C28.9907 6.8548 29.0837 6.80539 29.2179 6.74221C29.133 6.69766 29.0926 6.67335 29.049 6.65472C27.5361 6.01805 26.0242 5.37895 24.5065 4.75362C24.378 4.71709 24.2405 4.7298 24.1208 4.78927C21.5744 5.97728 19.0304 7.17178 16.4889 8.37276L11.3909 10.7736ZM23.7367 14.5046C23.1214 14.5046 22.5061 14.5118 21.8908 14.5005C21.8034 14.4914 21.7152 14.5084 21.6375 14.5495C21.5598 14.5906 21.496 14.6539 21.4542 14.7314C20.6626 15.9464 19.5533 16.6851 18.106 16.8771C17.8828 16.9071 17.7826 16.9864 17.7357 17.2132C17.2505 19.5145 17.3314 21.7914 18.0461 24.0319C18.9477 26.8427 20.8365 28.7462 23.5168 29.8997C23.6226 29.9514 23.7435 29.9632 23.8572 29.9329C25.425 29.2743 26.8432 28.3809 27.8394 26.9771C29.9505 24.0036 30.4461 20.6987 29.7144 17.1671C29.6699 16.9524 29.5527 16.9071 29.3667 16.8819C27.9113 16.6851 26.7907 15.9464 25.995 14.7192C25.956 14.6455 25.8957 14.5854 25.822 14.5465C25.7483 14.5076 25.6646 14.4919 25.5819 14.5013C24.9674 14.5118 24.3521 14.5046 23.7367 14.5046ZM1.73839 6.74545C2.91727 7.23793 4.00882 7.70126 5.10845 8.14596C5.25237 8.19809 5.4102 8.19665 5.55316 8.14191C9.90103 6.26808 14.244 4.39047 18.5822 2.50908C18.6582 2.47668 18.731 2.43537 18.8418 2.38029C18.7148 2.32278 18.6348 2.28471 18.5531 2.25069C17.6532 1.87079 16.75 1.4998 15.8566 1.10776C15.7464 1.05349 15.6254 1.02486 15.5026 1.02402C15.3798 1.02318 15.2584 1.05014 15.1475 1.1029C11.5316 2.63166 7.91306 4.15368 4.29181 5.66894C3.46627 6.01481 2.64398 6.36312 1.73839 6.74545ZM6.56627 8.77048C7.75566 9.26945 8.87794 9.74249 10.0067 10.2034C10.137 10.2389 10.2758 10.2247 10.3964 10.1637C14.0726 8.43999 17.747 6.71197 21.4194 4.97962C21.9741 4.71879 22.5272 4.45473 23.1287 4.16961C22.1819 3.77189 21.282 3.4009 20.3885 3.01372C20.3041 2.97332 20.2115 2.95276 20.1179 2.9536C20.0243 2.95444 19.9321 2.97667 19.8484 3.01858C16.3015 4.5603 12.7523 6.09798 9.20055 7.6316L6.56627 8.77048ZM9.68568 14.7549C9.68568 13.6071 9.6784 12.499 9.69134 11.3909C9.69134 11.1786 9.61453 11.0968 9.43422 11.0231C8.56826 10.67 7.70795 10.303 6.84684 9.94176L5.82726 9.51245V13.211L9.68568 14.7549Z" fill="white"/>
<path d="M8.28016 20.8125C8.34323 20.8352 8.44187 20.8627 8.53001 20.904C10.2436 21.6827 11.9561 22.4617 13.6676 23.2409C13.9101 23.3519 14.0718 23.5147 14.0346 23.7982C13.991 24.1295 13.6554 24.2964 13.3158 24.1449C12.4798 23.7723 11.6494 23.3867 10.8158 23.0109L8.095 21.7756C7.85244 21.6638 7.70285 21.4808 7.76349 21.2013C7.81686 20.9534 7.99151 20.8287 8.28016 20.8125Z" fill="white"/>
<path d="M8.13792 23.1953C8.32712 23.2601 8.43466 23.2868 8.53411 23.3314C10.238 24.1058 11.9411 24.8815 13.6434 25.6586C13.9951 25.8206 14.1172 26.07 13.9927 26.3438C13.8681 26.6176 13.5981 26.7002 13.2496 26.5423C11.5371 25.7647 9.82375 24.9863 8.10962 24.207C7.82339 24.0766 7.66329 23.8401 7.76517 23.6214C7.84684 23.4488 8.02068 23.3241 8.13792 23.1953Z" fill="white"/>
<path d="M23.7577 15.4791C24.1919 15.4791 24.6253 15.4872 25.0587 15.4791C25.1791 15.469 25.2998 15.4942 25.4061 15.5518C25.5124 15.6093 25.5996 15.6967 25.657 15.8031C26.2149 16.7217 27.0316 17.2547 28.0932 17.4142C28.3544 17.4539 28.5201 17.5852 28.5735 17.8444C29.078 20.3181 28.9899 22.7474 27.9606 25.0851C27.1698 26.8801 25.8357 28.1493 24.0585 28.9634C23.9562 29.0156 23.843 29.0428 23.7282 29.0428C23.6134 29.0428 23.5002 29.0156 23.3979 28.9634C20.8914 27.81 19.4279 25.8319 18.8401 23.1783C18.452 21.4295 18.4989 19.6709 18.8765 17.9189C18.9436 17.6062 19.1061 17.4588 19.4182 17.4086C19.9093 17.3383 20.3785 17.1586 20.791 16.8825C21.2035 16.6065 21.549 16.2412 21.8018 15.8137C21.8622 15.703 21.9535 15.6124 22.0646 15.553C22.1756 15.4936 22.3015 15.4679 22.4269 15.4791C22.8699 15.4888 23.3171 15.4791 23.7577 15.4791ZM27.9081 20.2396C27.8692 19.8815 27.8054 19.2092 27.7148 18.5385C27.6982 18.4818 27.6685 18.4298 27.628 18.3867C27.5875 18.3436 27.5375 18.3107 27.4819 18.2907C26.4957 18.0369 25.6277 17.4487 25.0256 16.6261C24.9488 16.5314 24.8378 16.4711 24.7167 16.4584C24.0609 16.443 23.4052 16.4447 22.7495 16.4584C22.6936 16.4614 22.6389 16.4755 22.5885 16.4998C22.5382 16.5242 22.4931 16.5583 22.456 16.6002C21.8513 17.4337 20.9765 18.031 19.981 18.2899C19.9256 18.3105 19.8757 18.3436 19.8351 18.3866C19.7944 18.4295 19.7641 18.4812 19.7465 18.5377C19.4587 20.1367 19.4562 21.7357 19.8686 23.3168C20.4063 25.3799 21.5819 26.9627 23.5168 27.9347C23.5812 27.9627 23.6506 27.9776 23.7209 27.9784C23.7911 27.9793 23.8608 27.9661 23.9259 27.9396C25.1472 27.3585 26.1562 26.409 26.8116 25.2244C27.6178 23.7728 27.8757 22.1909 27.9081 20.2396Z" fill="white"/>
<path d="M23.2643 23.0331C23.6435 22.6499 24.0098 22.2781 24.3785 21.908C25.0043 21.2786 25.6285 20.6468 26.2592 20.0231C26.4945 19.7898 26.784 19.7882 26.9821 19.9947C27.1802 20.2013 27.1624 20.4613 26.9513 20.6994C26.898 20.7602 26.8381 20.8152 26.7816 20.8719L24.068 23.5936C23.9257 23.737 23.7875 23.8836 23.6403 24.0221C23.3719 24.274 23.1317 24.2829 22.8722 24.0286C22.2464 23.413 21.6265 22.7919 21.0125 22.1655C20.7772 21.9274 20.7699 21.6455 20.9745 21.4422C21.1791 21.2389 21.4596 21.2494 21.7022 21.4851C22.1493 21.9225 22.5916 22.368 23.0323 22.8087C23.0945 22.8808 23.1697 22.9456 23.2643 23.0331Z" fill="white"/>
</g>
<defs>
<clipPath id="clip0_1176_5024">
<rect width="31" height="31" fill="white"/>
</clipPath>
</defs>
</svg>
