<svg width="31" height="28" viewBox="0 0 31 28" fill="none" xmlns="http://www.w3.org/2000/svg">
<path d="M3.8147 11.6751V9.47241C3.96526 8.15147 4.36904 6.87601 5.00178 5.7226C5.63452 4.56918 6.48319 3.5616 7.49685 2.76031C9.82714 0.918655 12.679 -0.0523556 15.5976 0.00217778C18.7016 0.00217778 21.3307 0.897123 23.4148 2.66387C25.3941 4.3925 26.776 6.75508 27.3473 9.38754C27.3528 9.43753 27.3528 9.48801 27.3473 9.53799V11.6866C29.402 11.8949 31 13.3454 31 15.0967V16.9753C31 18.7536 29.3578 20.2195 27.2626 20.3931C27.0995 21.6822 26.4578 22.852 25.4768 23.6488V26.8313C25.465 26.9871 25.3977 27.1325 25.2881 27.2385C25.1786 27.3446 25.0349 27.4035 24.8858 27.4035C24.7367 27.4035 24.593 27.3446 24.4834 27.2385C24.3739 27.1325 24.3066 26.9871 24.2948 26.8313V24.347C23.7552 24.5684 23.1805 24.6809 22.601 24.6788H21.7946C21.1457 25.5593 20.3421 26.3017 19.427 26.866C18.2333 27.6006 16.8756 27.9917 15.4912 27.9999C14.1068 28.008 12.745 27.6328 11.5435 26.9123C10.23 26.1097 9.14221 24.9578 8.39021 23.5732C7.63822 22.1886 7.24874 20.6205 7.26121 19.0275V14.0706C7.26121 14.0706 7.26121 14.0436 7.26121 14.0282V14.0089C7.26121 14.0089 7.26121 13.9819 7.26121 13.9703C7.25948 13.9627 7.25948 13.9548 7.26121 13.9471C7.25912 13.937 7.25912 13.9265 7.26121 13.9163C7.26121 13.9163 7.26121 13.897 7.26121 13.8854C7.26121 13.8739 7.26121 13.8854 7.26121 13.8623V13.8314V13.8121V13.7774C7.2605 13.7671 7.2605 13.7568 7.26121 13.7465V13.7196L7.2833 13.6964L7.30171 13.6733L7.32748 13.6501L7.35695 13.6308H7.38639H7.40848H7.43057H7.46003H7.48213H7.51894H7.53737H7.57418C8.35735 13.4403 9.11984 13.1663 9.84974 12.813C12.1695 11.7676 14.898 10.1398 14.9348 10.1128C15.0361 10.0537 15.1515 10.0267 15.2672 10.0349C15.3829 10.0431 15.4938 10.0862 15.5865 10.1591C17.0752 11.3291 18.7337 12.2408 20.4985 12.8593C21.218 13.1276 21.9568 13.3352 22.7078 13.4804C22.8182 13.4995 22.9214 13.5503 23.0061 13.627C23.1333 13.6605 23.2462 13.7375 23.3269 13.8458C23.4076 13.9541 23.4515 14.0875 23.4516 14.2249V19.1702C23.4547 20.7121 23.0902 22.2303 22.3911 23.5871H22.4243C23.0166 23.5881 23.5994 23.4314 24.1181 23.1319V12.6009C24.1181 7.97183 20.1561 4.20688 15.2809 4.20688C10.4057 4.20688 6.44376 7.97183 6.44376 12.6009V27.0859C6.44376 27.2496 6.38169 27.4066 6.2712 27.5223C6.16072 27.6381 6.01087 27.7031 5.85462 27.7031C5.69837 27.7031 5.54851 27.6381 5.43802 27.5223C5.32754 27.4066 5.26547 27.2496 5.26547 27.0859V12.4466C5.26547 7.1386 9.75769 2.80274 15.2809 2.80274C20.8041 2.80274 25.2964 7.12317 25.2964 12.4466V21.8744C25.7172 21.2518 25.9436 20.5079 25.9444 19.745C25.9439 19.6543 25.9627 19.5647 25.9996 19.4827V12.8555C25.996 12.817 25.996 12.7782 25.9996 12.7397V9.60357C25.4837 7.26077 24.2515 5.15859 22.4906 3.61668C20.62 2.03124 18.2414 1.22887 15.4135 1.22887C12.7617 1.17672 10.1694 2.05527 8.04917 3.72469C7.16526 4.42141 6.42397 5.29704 5.86925 6.29962C5.31453 7.30221 4.9577 8.41132 4.81994 9.56114V12.6202C4.82194 12.6458 4.82194 12.6716 4.81994 12.6973V19.7797C4.82043 19.8603 4.80577 19.9401 4.77679 20.0147C4.74782 20.0894 4.70509 20.1573 4.65107 20.2146C4.59705 20.2719 4.53278 20.3175 4.46193 20.3488C4.39108 20.3801 4.31504 20.3964 4.23816 20.3969H4.16082C1.86685 20.3969 -5.96045e-08 18.8539 -5.96045e-08 16.9599V15.0813C0.165697 13.3299 1.76006 11.8872 3.8147 11.6751ZM22.4427 19.0044V14.4872C21.7847 14.3476 21.1354 14.166 20.4985 13.9433C19.5057 13.601 18.5404 13.1766 17.6117 12.6742C16.8211 12.2468 16.0628 11.7568 15.3435 11.2083C14.8501 11.4976 13.8707 12.057 12.766 12.6472C11.8344 13.1371 10.8034 13.6463 9.8608 14.0397C9.3996 14.2343 8.92884 14.4029 8.45053 14.5451V19.0005C8.45053 23.2669 11.5914 26.7387 15.4466 26.7387C17.243 26.7342 18.9644 25.9837 20.2334 24.6518H19.3129C19.1871 24.8943 19.0015 25.097 18.7755 25.2388C18.5494 25.3806 18.2913 25.4563 18.0278 25.458H16.3672C16.1583 25.4892 15.9455 25.473 15.7431 25.4105C15.5407 25.3481 15.3535 25.2408 15.1942 25.0959C15.0348 24.9511 14.907 24.7721 14.8194 24.571C14.7318 24.3699 14.6865 24.1515 14.6865 23.9304C14.6865 23.7094 14.7318 23.491 14.8194 23.2899C14.907 23.0888 15.0348 22.9098 15.1942 22.7649C15.3535 22.6201 15.5407 22.5128 15.7431 22.4503C15.9455 22.3879 16.1583 22.3717 16.3672 22.4028H18.0388C18.3392 22.4051 18.6317 22.5034 18.8772 22.6848C19.1227 22.8661 19.3094 23.1217 19.4123 23.4174H21.1908C22.0107 22.1104 22.446 20.5799 22.4427 19.0159V19.0044ZM1.34399 16.9522C1.34399 18.0361 2.41182 18.9388 3.80735 19.1201V12.9172C2.41182 13.0985 1.34399 14.0011 1.34399 15.0851V16.9522ZM29.8143 15.0735C29.8143 13.9896 28.7465 13.0869 27.351 12.9056V19.1162C28.7465 18.9349 29.8143 18.0323 29.8143 16.9483V15.0735Z" fill="white"/>
</svg>
