<svg width="38" height="39" viewBox="0 0 38 39" fill="none" xmlns="http://www.w3.org/2000/svg">
<path d="M22.1584 24.6344H25.7706C26.0439 22.8707 26.3133 21.1412 26.5876 19.3685H21.116C21.107 19.2256 21.094 19.1178 21.094 19.0091C21.094 17.941 21.089 16.874 21.094 15.8069C21.1 14.2446 21.9759 13.2178 23.5101 13.0939C24.5625 13.0084 25.6239 13.0436 26.6804 13.0265C26.8908 13.0265 27.1023 13.0265 27.3397 13.0265V8.41092C26.9088 8.35153 26.4609 8.27603 26.009 8.23073C24.2623 8.05658 22.5175 7.87437 20.7768 8.32636C18.1422 9.0119 16.3616 10.9356 16.0324 13.6617C15.8588 15.1002 15.9097 16.5659 15.8658 18.0206C15.8528 18.4464 15.8658 18.8722 15.8658 19.3443H11.681V24.6183H15.8399V38.019C7.92822 36.957 0.132291 30.0925 0.0784223 19.4963C0.0215614 9.16391 8.12773 1.10755 17.835 0.733068C28.1577 0.330401 36.6988 8.47132 37.046 18.7746C37.2106 23.667 35.7611 28.0591 32.557 31.7928C29.7878 35.0242 26.3402 37.1332 22.1584 38.0653V24.6344Z" fill="white"/>
</svg>
