<svg width="38" height="38" viewBox="0 0 38 38" fill="none" xmlns="http://www.w3.org/2000/svg">
<g clip-path="url(#clip0_1198_10800)">
<path d="M24.5963 37.287H13.6259C13.4022 37.2677 13.1799 37.237 12.9561 37.2306C11.5086 37.1913 10.0632 37.135 8.64502 36.7931C5.6256 36.065 3.38391 34.3569 2.04862 31.5354C1.22157 29.7881 0.976385 27.9087 0.954226 26.0015C0.913481 22.0758 0.877024 18.1557 0.89561 14.2335C0.904903 12.3535 0.917055 10.462 1.37383 8.61543C2.17014 5.39988 4.04799 3.09511 7.14961 1.83458C8.81444 1.16007 10.5715 0.970204 12.3457 0.951646C16.0492 0.911675 19.7527 0.880269 23.4562 0.89383C25.3998 0.900968 27.3548 0.889548 29.2699 1.30568C32.8047 2.07513 35.2815 4.09724 36.5253 7.53192C37.1229 9.18074 37.2652 10.9052 37.2709 12.6397C37.2845 16.8352 37.2959 21.0308 37.2623 25.2264C37.2542 26.4213 37.1586 27.6141 36.9764 28.7952C36.5997 31.2064 35.5139 33.2599 33.606 34.8309C31.7474 36.3634 29.5465 36.9786 27.1883 37.1371C26.3226 37.2013 25.4591 37.2399 24.5963 37.287ZM19.1101 34.0693V34.0129C20.0715 34.0129 21.0344 34.0422 21.9951 34.0072C24.0681 33.9358 26.1582 33.9594 28.2105 33.6988C31.0147 33.342 32.9069 31.7231 33.5917 28.9373C33.8655 27.8216 33.9562 26.6418 33.9791 25.4883C34.0454 22.1098 34.0663 18.7313 34.042 15.3527C34.0277 13.5904 33.9705 11.8174 33.764 10.0708C33.418 7.14434 31.5694 5.15434 28.6887 4.58404C27.4292 4.33422 26.1218 4.2557 24.8344 4.23643C21.4161 4.18885 17.9975 4.18337 14.5788 4.22001C12.9926 4.23857 11.3928 4.29567 9.82663 4.52408C7.04453 4.9295 5.15168 6.73678 4.58911 9.47838C4.34535 10.6647 4.26243 11.8974 4.2367 13.1115C4.17451 16.0501 4.15164 18.9901 4.1838 21.9287C4.20596 23.9637 4.25529 26.0072 4.45758 28.0308C4.66274 30.1143 5.65706 31.8088 7.53133 32.8844C8.67505 33.5432 9.94314 33.8173 11.2484 33.8637C13.8647 33.9594 16.4874 34.0051 19.1093 34.0693H19.1101Z" fill="white"/>
<path d="M9.73438 19.077C9.73438 13.9179 13.9518 9.71588 19.1164 9.72658C21.5966 9.72734 23.975 10.7113 25.729 12.4622C27.483 14.213 28.4691 16.5877 28.4706 19.0642C28.4907 24.2183 24.2832 28.431 19.1114 28.4339C13.9397 28.4367 9.73509 24.2383 9.73438 19.077ZM19.105 25.1391C20.3057 25.1389 21.4793 24.7832 22.4774 24.1169C23.4755 23.4505 24.2532 22.5035 24.7122 21.3957C25.1712 20.2879 25.2908 19.069 25.0558 17.8933C24.8209 16.7176 24.242 15.6379 23.3923 14.7908C22.5427 13.9438 21.4605 13.3674 20.2827 13.1346C19.105 12.9018 17.8845 13.023 16.7757 13.483C15.667 13.943 14.7198 14.7211 14.054 15.7187C13.3882 16.7164 13.0337 17.8888 13.0354 19.0877C13.0343 19.8835 13.1906 20.6717 13.4953 21.407C13.8001 22.1423 14.2473 22.8102 14.8112 23.3725C15.3752 23.9348 16.0448 24.3803 16.7817 24.6834C17.5185 24.9866 18.3081 25.1414 19.105 25.1391Z" fill="white"/>
<path d="M28.8944 7.18252C29.4618 7.21145 29.9955 7.46024 30.3821 7.876C30.7686 8.29176 30.9775 8.84168 30.9643 9.40882C30.951 9.97596 30.7168 10.5156 30.3113 10.9129C29.9058 11.3103 29.3611 11.534 28.7929 11.5365C28.5013 11.5378 28.2125 11.4808 27.9433 11.3687C27.6742 11.2566 27.4303 11.0918 27.2261 10.884C27.0219 10.6761 26.8614 10.4296 26.7543 10.1588C26.6471 9.888 26.5954 9.59851 26.6022 9.30743C26.6089 9.01634 26.6741 8.72957 26.7938 8.46407C26.9134 8.19856 27.0852 7.95969 27.2989 7.7616C27.5126 7.56351 27.7639 7.4102 28.0379 7.31073C28.312 7.21127 28.6032 7.16768 28.8944 7.18252Z" fill="white"/>
</g>
<defs>
<clipPath id="clip0_1198_10800">
<rect width="36.3932" height="36.3932" fill="white" transform="translate(0.890625 0.890625)"/>
</clipPath>
</defs>
</svg>
