<svg width="38" height="38" viewBox="0 0 38 38" fill="none" xmlns="http://www.w3.org/2000/svg">
<g clip-path="url(#clip0_1198_10811)">
<path d="M0.109375 37.0581C0.393415 36.0204 0.662903 35.0355 0.932974 34.0505C1.4929 32.0099 2.05982 29.9711 2.60403 27.9259C2.65699 27.7108 2.63312 27.4841 2.53652 27.2847C-2.46502 18.2122 1.04065 6.79998 10.283 2.10141C20.4979 -3.09398 32.9148 2.13039 36.2802 13.0388C39.2486 22.6684 33.7884 32.981 24.1101 35.9375C19.3042 37.4001 14.6408 36.9421 10.1497 34.6899C9.95863 34.6021 9.7436 34.58 9.53856 34.6273C6.53519 35.3972 3.53182 36.1839 0.529032 36.9659C0.40913 37.0001 0.286318 37.0187 0.109375 37.0581ZM4.52363 32.7241C6.36989 32.2418 8.13931 31.7867 9.90409 31.3114C10.2038 31.2308 10.4326 31.2714 10.6968 31.4273C14.1018 33.4639 17.7751 34.1334 21.665 33.3624C29.9132 31.7288 35.2593 23.7827 33.7046 15.5368C32.1605 7.34491 24.0927 1.87416 15.8544 3.43474C5.55211 5.38316 0.185623 16.8261 5.36702 25.8934C5.90367 26.8325 6.01309 27.6047 5.67841 28.5943C5.22849 29.9218 4.91419 31.2986 4.52363 32.723V32.7241Z" fill="white"/>
<path d="M12.7282 9.97322C13.5064 9.78075 13.8888 10.248 14.1618 10.9518C14.5791 12.0277 15.0349 13.0892 15.4929 14.1489C15.6524 14.5176 15.6384 14.8445 15.3986 15.1599C15.0349 15.6422 14.6862 16.1367 14.3015 16.6011C14.0413 16.9153 14.018 17.1953 14.2264 17.5443C15.7287 20.0573 17.8252 21.8753 20.5597 22.9605C20.9357 23.1095 21.2325 23.0417 21.4845 22.7286C21.9356 22.1675 22.3966 21.6144 22.8436 21.0475C23.1719 20.6324 23.3611 20.5292 23.8331 20.7437C25.1322 21.3346 26.4199 21.9503 27.6962 22.5907C27.8539 22.6695 27.9953 22.9594 27.9924 23.1489C27.9633 25.1026 27.3859 26.0388 25.2964 26.9142C24.1107 27.4104 22.8797 27.2939 21.6568 26.9547C17.2205 25.724 13.9517 22.946 11.3365 19.2846C10.5246 18.1472 9.79177 16.9744 9.48038 15.5953C9.0322 13.6103 9.52228 11.8897 10.9873 10.4532C11.4634 9.98713 12.0396 9.89495 12.7282 9.97322Z" fill="white"/>
</g>
<defs>
<clipPath id="clip0_1198_10811">
<rect width="36.9804" height="36.9804" fill="white" transform="translate(0.109375 0.078125)"/>
</clipPath>
</defs>
</svg>
