<svg width="32" height="32" viewBox="0 0 32 32" fill="none" xmlns="http://www.w3.org/2000/svg">
<g clip-path="url(#clip0_1635_1428)">
<path d="M1.38556 4.29637C1.17398 4.28163 0.963716 4.25193 0.756332 4.2075C0.540484 4.14673 0.350473 4.01695 0.21534 3.83801C0.0802073 3.65906 0.00738771 3.44079 0.00801251 3.21655C-0.00176364 2.494 -0.00354112 1.77235 0.00801251 1.05069C0.0125147 0.775486 0.123241 0.512679 0.317035 0.317229C0.510829 0.121778 0.772684 0.00881916 1.04784 0.00197498C1.14738 -0.00246872 1.24781 0.00197498 1.34735 0.00197498H30.6758C31.6259 0.00197498 32.0018 0.380579 32.0018 1.33509C32.0018 1.90092 32.0018 2.46734 32.0018 3.03436C32.0018 3.84045 31.6107 4.24127 30.8082 4.26793C30.754 4.26793 30.7007 4.27771 30.6162 4.28659L31.3272 6.41335C31.5939 7.21944 31.4872 7.39097 30.6207 7.49584L31.3263 9.61015C31.593 10.4189 31.4845 10.5949 30.6207 10.6944C30.8562 11.4054 31.0908 12.104 31.3255 12.807C31.5921 13.6175 31.4819 13.7988 30.6225 13.8921C30.8891 14.692 31.1557 15.4918 31.4126 16.2917C31.5343 16.6694 31.3877 16.9751 31.0508 17.0507C30.9075 17.0717 30.7629 17.0826 30.618 17.0836C30.8633 17.8221 31.1024 18.5447 31.3415 19.2663C31.369 19.3552 31.3992 19.4343 31.4232 19.5196C31.545 19.9444 31.3343 20.2546 30.89 20.2644C30.3905 20.275 29.891 20.2644 29.3373 20.2644V20.6581C29.3373 24.1793 29.3373 27.7005 29.3373 31.2217C29.3373 31.8384 29.1836 31.9958 28.5792 31.9958H3.41456C2.82976 31.9958 2.67157 31.834 2.67157 31.2403C2.67157 27.7298 2.67157 24.2196 2.67157 20.7096V20.2653C2.18365 20.2653 1.71084 20.2653 1.23892 20.2653C0.647018 20.2653 0.431942 19.9684 0.6168 19.4076C0.870092 18.6406 1.12872 17.8746 1.39178 17.0845L1.10739 17.0658C0.670125 17.0365 0.455049 16.7325 0.591026 16.3077C0.816766 15.5967 1.05495 14.8964 1.2878 14.1907C1.31891 14.0965 1.34646 14.0014 1.38201 13.8859L1.11005 13.8663C0.671903 13.8379 0.455049 13.5339 0.590138 13.11C0.815878 12.399 1.05406 11.6987 1.28691 10.993C1.31802 10.9042 1.34557 10.8046 1.38201 10.6891C1.29313 10.6802 1.21848 10.6713 1.1456 10.6678C0.662126 10.6438 0.448829 10.346 0.599026 9.88122C0.854094 9.09113 1.11983 8.3037 1.38823 7.49139C1.29935 7.48162 1.24336 7.47095 1.18204 7.46829C0.648795 7.44696 0.441719 7.15545 0.606136 6.65153C0.859427 5.86944 1.1216 5.09268 1.38556 4.29637ZM6.96507 20.2688V27.7049H25.0412V20.2804H22.9349C22.9349 21.3398 22.9295 22.3814 22.9446 23.4221C22.9446 23.5038 23.0717 23.606 23.1633 23.6594C23.8218 24.0389 24.1347 24.7561 23.9427 25.4751C23.8531 25.8157 23.6532 26.1171 23.3743 26.3322C23.0953 26.5473 22.753 26.6639 22.4007 26.6639C22.0485 26.6639 21.7062 26.5473 21.4272 26.3322C21.1482 26.1171 20.9484 25.8157 20.8588 25.4751C20.7613 25.1297 20.7862 24.7613 20.9292 24.4322C21.0722 24.1031 21.3246 23.8335 21.6435 23.6691C21.7181 23.6399 21.7809 23.5868 21.8222 23.5182C21.8635 23.4496 21.881 23.3692 21.8719 23.2896C21.863 22.4231 21.8675 21.5566 21.8675 20.691V20.2679L6.96507 20.2688ZM1.09939 1.07646V3.181H30.9113V1.07646H1.09939ZM28.2504 28.8123H3.76383V30.907H28.2504V28.8123ZM5.35468 6.37514H26.6409V4.28304H5.35468V6.37514ZM5.35468 9.5746H26.6507V7.48251H5.35468V9.5746ZM26.6551 10.6882H5.36445V12.7794H26.6516L26.6551 10.6882ZM26.6551 13.8877H5.36445V15.9789H26.6516L26.6551 13.8877ZM26.6551 17.0871H5.36445V19.1783H26.6516L26.6551 17.0871ZM3.76028 20.2804V27.7014H5.85415V20.2804H3.76028ZM28.2433 27.7156V20.2893H26.1512V27.7129L28.2433 27.7156ZM1.82015 6.37602H4.24642V4.26526C3.71317 4.26526 3.2057 4.25904 2.69823 4.27149C2.65373 4.27592 2.6109 4.29078 2.57322 4.31487C2.53554 4.33896 2.50408 4.3716 2.48138 4.41013C2.25475 5.05447 2.04323 5.70502 1.82015 6.37602ZM30.1879 6.38847C29.9586 5.69703 29.7435 5.04736 29.5222 4.40035C29.5078 4.36786 29.4859 4.33927 29.4582 4.31701C29.4306 4.29474 29.3979 4.27943 29.3631 4.27237C28.8254 4.2626 28.2877 4.26615 27.7589 4.26615V6.38847H30.1879ZM4.25264 9.58082V7.46473C3.71939 7.46473 3.1977 7.46029 2.68046 7.47006C2.64038 7.47396 2.60178 7.48726 2.56781 7.50888C2.53383 7.5305 2.50544 7.55983 2.48493 7.59449C2.25742 8.2486 2.04056 8.90805 1.82015 9.58082H4.25264ZM30.1888 9.58882C29.9595 8.89916 29.7444 8.24949 29.524 7.60249C29.5099 7.56987 29.4883 7.54103 29.461 7.51833C29.4336 7.49563 29.4013 7.4797 29.3667 7.47184C28.829 7.46207 28.2904 7.46562 27.7581 7.46562V9.58882H30.1888ZM4.25708 10.6642C3.71051 10.6642 3.19059 10.6642 2.67335 10.6686C2.6381 10.6706 2.60376 10.6806 2.57296 10.6979C2.54216 10.7151 2.5157 10.7392 2.4956 10.7682C2.26719 11.4321 2.05123 12.1013 1.82549 12.7776H4.26064L4.25708 10.6642ZM27.7572 10.6642V12.7776H30.1843C29.9604 12.1013 29.7488 11.4507 29.5222 10.8055C29.4987 10.7674 29.4666 10.7353 29.4285 10.7119C29.3904 10.6884 29.3473 10.6742 29.3027 10.6704C28.7952 10.658 28.2842 10.6642 27.7572 10.6642ZM4.25708 13.8637C3.71051 13.8637 3.19059 13.8637 2.67335 13.8681C2.63813 13.8702 2.60384 13.8803 2.57306 13.8975C2.54227 13.9147 2.51579 13.9387 2.4956 13.9676C2.26719 14.6306 2.05123 15.3008 1.82549 15.9771H4.26064L4.25708 13.8637ZM30.1852 15.9815C29.9612 15.3052 29.7408 14.6484 29.5204 13.9881C29.5087 13.9595 29.4905 13.9339 29.4672 13.9136C29.4439 13.8932 29.4162 13.8786 29.3862 13.8708C28.8388 13.8628 28.2904 13.8654 27.7509 13.8654V15.9815H30.1852ZM4.25531 17.0631C3.71406 17.0631 3.19593 17.0587 2.67779 17.0685C2.63788 17.0729 2.59956 17.0866 2.56591 17.1085C2.53227 17.1304 2.50423 17.1599 2.48404 17.1947C2.25653 17.8488 2.03967 18.5064 1.82015 19.1783H4.25531V17.0631ZM27.7509 19.1792H30.1896C29.9657 18.5047 29.7542 17.855 29.5293 17.2098C29.5122 17.1735 29.4867 17.1418 29.4548 17.1173C29.423 17.0929 29.3857 17.0765 29.3462 17.0694C28.8183 17.0587 28.2913 17.0631 27.7509 17.0631V19.1792ZM22.9313 25.0796C22.9347 24.9735 22.9063 24.8687 22.8498 24.7789C22.7932 24.689 22.7112 24.618 22.6141 24.575C22.517 24.5321 22.4093 24.5191 22.3048 24.5377C22.2002 24.5563 22.1037 24.6058 22.0274 24.6796C21.9511 24.7535 21.8986 24.8484 21.8766 24.9523C21.8547 25.0562 21.8642 25.1642 21.904 25.2627C21.9438 25.3611 22.0121 25.4454 22.1001 25.5048C22.1881 25.5641 22.2919 25.5959 22.3981 25.5959C22.5366 25.596 22.6697 25.5421 22.7693 25.4458C22.8688 25.3494 22.9269 25.2181 22.9313 25.0796Z" fill="white"/>
</g>
<defs>
<clipPath id="clip0_1635_1428">
<rect width="32" height="31.9956" fill="white"/>
</clipPath>
</defs>
</svg>
