<svg width="32" height="32" viewBox="0 0 32 32" fill="none" xmlns="http://www.w3.org/2000/svg">
<g clip-path="url(#clip0_1635_1418)">
<path d="M0 26.0476C0.0450411 25.8484 0.0831544 25.6457 0.136857 25.4482C0.686013 23.3989 1.96275 22.0217 4.02252 21.5002C6.08229 20.9788 7.90818 21.5747 9.35296 23.1702C9.42752 23.2657 9.52421 23.3417 9.63467 23.3915C9.74514 23.4413 9.86606 23.4634 9.98701 23.456C10.6799 23.4405 11.3729 23.456 12.1091 23.456C12.4556 20.7917 12.8021 18.1481 13.1485 15.4595H12.7709C11.8666 15.4595 10.9606 15.4595 10.0546 15.4595C9.43785 15.4595 8.95626 15.2343 8.68081 14.6696C8.40537 14.1048 8.5249 13.6128 8.8887 13.126C12.0173 8.93028 15.1442 4.73452 18.2694 0.538764C18.434 0.318755 18.7077 0.178432 18.9311 0H19.3677C20.0606 0.327414 20.2131 0.573412 20.1161 1.35124C19.8424 3.51841 19.5565 5.68211 19.2741 7.84928C19.1402 8.86906 19.0097 9.88942 18.8826 10.9104C18.8773 11.0032 18.8773 11.0964 18.8826 11.1893H19.2291C20.1455 11.1893 21.0602 11.1893 21.9766 11.1893C22.5795 11.1893 23.0524 11.4283 23.3209 11.9827C23.5894 12.537 23.4942 13.0221 23.1321 13.5019C20.7507 16.6987 18.371 19.8966 15.9931 23.0957C15.9203 23.1927 15.8527 23.2932 15.7575 23.4283C15.8857 23.4387 15.974 23.4526 16.0606 23.4526C18.2549 23.4526 20.4493 23.4526 22.6436 23.4526C22.7825 23.4563 22.9177 23.4067 23.0212 23.314C24.6687 21.3079 27.437 20.8038 29.8969 21.8952C30.5382 22.1754 31.1203 22.5752 31.612 23.0732C31.974 23.4422 32.1022 23.8718 31.9013 24.3569C31.7003 24.8419 31.3105 25.0602 30.7891 25.0498C29.8935 25.0498 28.9978 25.0498 28.1039 25.0498C28.017 25.0427 27.9298 25.0594 27.8516 25.0982C27.7735 25.137 27.7074 25.1963 27.6605 25.2698C27.3902 25.6509 27.1078 26.0269 26.8151 26.3906C26.7782 26.4232 26.7487 26.4631 26.7285 26.5079C26.7082 26.5527 26.6978 26.6013 26.6978 26.6505C26.6978 26.6997 26.7082 26.7482 26.7285 26.793C26.7487 26.8379 26.7782 26.8778 26.8151 26.9103C27.1096 27.2741 27.3885 27.6518 27.6587 28.0329C27.7057 28.1064 27.7718 28.1658 27.8499 28.2045C27.928 28.2433 28.0153 28.26 28.1022 28.2529C28.9684 28.2443 29.8346 28.2529 30.7007 28.2529C31.2482 28.2529 31.6812 28.4262 31.9134 28.9563C32.1213 29.4344 31.9896 29.8917 31.5409 30.33C29.696 32.1403 26.0268 32.8177 23.612 30.5881C23.529 30.5252 23.4544 30.4518 23.3902 30.3699C23.1096 29.89 22.6799 29.8502 22.1776 29.8502C18.1169 29.8675 14.058 29.8623 9.9974 29.8502C9.88217 29.8427 9.76684 29.8632 9.66125 29.9099C9.55567 29.9567 9.46297 30.0283 9.39108 30.1187C7.89086 31.7731 6.02685 32.3707 3.88393 31.7575C1.74102 31.1442 0.44868 29.6197 0.0554365 27.4075C0.0411634 27.3485 0.0226353 27.2906 0 27.2343V26.0476ZM30.9796 23.9688C30.8445 23.8285 30.7683 23.7384 30.6817 23.6605C30.0375 23.0766 29.2453 22.6811 28.3915 22.5171C26.5604 22.155 24.9788 22.5777 23.7904 24.0762C23.6923 24.2197 23.5592 24.3358 23.4036 24.4134C23.2481 24.491 23.0753 24.5276 22.9017 24.5197C18.4669 24.5105 14.0326 24.5105 9.59896 24.5197C9.4296 24.5317 9.26009 24.4984 9.10786 24.4232C8.95563 24.348 8.82618 24.2336 8.73279 24.0918C8.21201 23.3882 7.48593 22.8632 6.65449 22.5893C5.82305 22.3153 4.92713 22.3059 4.09008 22.5622C3.23033 22.819 2.4735 23.3405 1.92729 24.0525C1.38108 24.7644 1.07332 25.6304 1.0478 26.5274C1.02227 27.4243 1.28029 28.3065 1.78513 29.0483C2.28998 29.7901 3.01593 30.3538 3.85968 30.6592C4.72049 30.9787 5.66191 31.0093 6.54169 30.7465C7.42147 30.4837 8.19179 29.9416 8.73625 29.2023C8.82612 29.0652 8.95079 28.9545 9.09751 28.8814C9.24422 28.8084 9.40771 28.7756 9.57124 28.7865C13.8813 28.7952 18.1897 28.8038 22.4998 28.7865C23.139 28.7865 23.5652 28.9407 24.0052 29.4569C26.0182 31.8233 29.4223 30.9883 30.8584 29.4794C30.8867 29.4359 30.9088 29.3887 30.9242 29.3391C30.7822 29.3391 30.6713 29.3235 30.5604 29.3235C29.7081 29.3235 28.854 29.3149 28 29.3235C27.7757 29.3331 27.5526 29.2855 27.3517 29.1852C27.1508 29.0849 26.9786 28.9352 26.8515 28.7501C26.5431 28.3309 26.2243 27.9203 25.9142 27.5028C25.4864 26.9242 25.4881 26.3958 25.9142 25.812C26.2243 25.3945 26.5448 24.9857 26.8515 24.5647C26.9783 24.3794 27.1503 24.2296 27.3514 24.1295C27.5524 24.0295 27.7757 23.9825 28 23.9931C28.8662 23.9931 29.7324 23.9931 30.5985 23.9931C30.6955 23.9844 30.7943 23.974 30.9796 23.9636V23.9688ZM19.0385 1.36683L18.9883 1.35297C18.9259 1.43265 18.8601 1.51235 18.7995 1.59377L16.414 4.79862C14.1897 7.7875 11.9671 10.777 9.74621 13.767C9.66652 13.8761 9.59376 14.0875 9.64573 14.1758C9.69536 14.235 9.75668 14.2832 9.82585 14.3175C9.89502 14.3518 9.97053 14.3714 10.0476 14.3751C10.4842 14.401 10.9138 14.3837 11.359 14.3837C12.1178 14.3837 12.8783 14.3837 13.6388 14.3837C14.0927 14.3837 14.3317 14.628 14.2746 15.0333C14.002 17.1387 13.7283 19.243 13.4534 21.346C13.3634 22.039 13.2802 22.7198 13.1867 23.4456C13.4985 23.4456 13.7774 23.4335 14.0528 23.4456C14.1543 23.4586 14.2573 23.442 14.3496 23.3977C14.4418 23.3535 14.5192 23.2835 14.5725 23.1962C16.4851 20.6104 18.4033 18.0297 20.3274 15.4543C20.9667 14.5881 21.6111 13.7375 22.233 12.8696C22.3127 12.7605 22.382 12.5492 22.3283 12.4608C22.2746 12.3725 22.0702 12.3014 21.9246 12.2495C21.8421 12.2355 21.7578 12.2355 21.6752 12.2495C20.5509 12.2495 19.4231 12.2495 18.304 12.2495C17.8779 12.2495 17.6509 12.0035 17.7012 11.605C17.8432 10.4807 17.9922 9.35297 18.1377 8.23214C18.4415 5.94428 18.7417 3.65584 19.0385 1.36683Z" fill="white"/>
<path d="M6.4954 0C7.04802 0.31702 7.12771 0.519705 7.03763 1.21265C6.85227 2.6557 6.67903 4.10048 6.50233 5.54353C6.49021 5.63534 6.49194 5.72889 6.48501 5.86921C6.96141 5.86921 7.42394 5.86921 7.88648 5.86921C8.06217 5.86458 8.23752 5.88737 8.40619 5.93677C9.06448 6.17063 9.26197 6.9294 8.80636 7.49588C7.71613 8.83557 6.61898 10.1712 5.51489 11.5028L3.47764 13.987C3.15196 14.3802 2.81935 14.4877 2.43823 14.3335C2.05712 14.1793 1.92719 13.8848 1.98783 13.3738C2.16106 11.9394 2.3343 10.5067 2.50753 9.07232C2.52832 8.90948 2.53698 8.74664 2.55604 8.54223C2.12468 8.54223 1.72104 8.52144 1.31914 8.54223C0.71108 8.5786 0.245077 8.38804 -0.0234375 7.81464V7.31399C0.108221 7.11823 0.226024 6.91208 0.375007 6.73019C2.04268 4.68717 3.71729 2.64934 5.39883 0.616717C5.60635 0.396946 5.82799 0.190937 6.06231 0H6.4954ZM7.91246 6.90515H7.54347C7.01337 6.91381 6.48327 6.92767 5.95144 6.92941C5.51316 6.92941 5.29488 6.68341 5.34685 6.25725C5.47331 5.20572 5.60497 4.15245 5.73317 3.10091C5.78514 2.67302 5.83018 2.24513 5.87869 1.81724L5.81979 1.79125L1.18401 7.44911C1.34512 7.45777 1.44387 7.46817 1.54261 7.46817C2.07271 7.46817 2.60454 7.46817 3.13464 7.46817C3.54348 7.47856 3.76522 7.72283 3.72018 8.10567C3.61797 8.98224 3.50536 9.85882 3.39796 10.7371C3.32404 11.3504 3.25071 11.9648 3.17795 12.5803L3.23858 12.6081C4.78211 10.7233 6.32563 8.83499 7.91246 6.90515Z" fill="white"/>
<path d="M29.4274 0C29.9731 0.31702 30.0545 0.519705 29.9696 1.17973C29.786 2.62451 29.611 4.06929 29.4343 5.51061C29.4205 5.61282 29.4205 5.71676 29.4118 5.86574C29.9229 5.86574 30.42 5.83456 30.912 5.87787C31.1865 5.89864 31.4497 5.99519 31.6725 6.15678C32.0987 6.50325 32.0952 7.0524 31.7158 7.51841C30.5309 8.97358 29.3437 10.4218 28.1541 11.8631C27.5686 12.5803 26.9813 13.2958 26.3923 14.0095C26.0944 14.3699 25.7687 14.4738 25.4066 14.3317C25.0446 14.1897 24.8765 13.8969 24.9302 13.4205C25.1035 11.9532 25.2853 10.4894 25.4638 9.02382C25.4811 8.88003 25.4932 8.73452 25.5123 8.53183H24.6704C24.4105 8.53183 24.1507 8.53183 23.8891 8.52144C23.7001 8.51936 23.5159 8.46154 23.3597 8.35522C23.2034 8.2489 23.0821 8.09881 23.0108 7.92377C22.9346 7.75189 22.9114 7.56121 22.9441 7.37608C22.9768 7.19094 23.064 7.01975 23.1944 6.88436C24.8055 4.92507 26.4096 2.95713 28.0277 1.00303C28.3204 0.647901 28.6686 0.336076 28.9908 0.00519684L29.4274 0ZM26.1065 12.5717L26.1775 12.5942C27.7176 10.7129 29.2594 8.83326 30.8289 6.91901H29.8224C29.4984 6.91901 29.1762 6.9346 28.854 6.92941C28.4573 6.92941 28.2217 6.67302 28.2667 6.29363C28.3915 5.24209 28.5248 4.18882 28.653 3.13729C28.7067 2.69554 28.7552 2.25379 28.8072 1.81204L28.7414 1.79645L24.0987 7.46124H24.4885C25.0082 7.46124 25.5279 7.46124 26.0476 7.46124C26.4911 7.4699 26.6903 7.7107 26.6383 8.15418C26.5534 8.85578 26.4651 9.55738 26.3802 10.259C26.2884 11.0282 26.1983 11.799 26.1065 12.5717Z" fill="white"/>
<path d="M5.31505 29.3149C4.18729 29.5539 3.5082 29.0307 3.09417 28.026C2.96713 27.7648 2.82662 27.5104 2.67321 27.2637C2.56643 27.0836 2.50937 26.8784 2.50784 26.669C2.50632 26.4596 2.5604 26.2535 2.66455 26.0719C2.93133 25.5799 3.20562 25.0908 3.48741 24.6046C3.59423 24.4122 3.7523 24.2532 3.94404 24.1452C4.13579 24.0373 4.35372 23.9846 4.5736 23.9931C5.08291 23.9931 5.59223 23.9931 6.10154 23.9931C6.32134 23.986 6.53882 24.0398 6.72991 24.1487C6.921 24.2575 7.07825 24.4171 7.18426 24.6098C7.46836 25.0931 7.74034 25.5834 8.00712 26.0771C8.10846 26.2543 8.16176 26.455 8.16176 26.6592C8.16176 26.8633 8.10846 27.064 8.00712 27.2412C7.7415 27.7355 7.46778 28.2246 7.18599 28.7085C7.08243 28.8968 6.92906 29.053 6.74267 29.1599C6.55629 29.2669 6.34407 29.3205 6.12925 29.3149C5.85554 29.3183 5.5853 29.3149 5.31505 29.3149ZM5.33064 28.2096C6.02358 28.4487 6.33714 28.0641 6.67321 27.5011C7.03701 26.8896 7.0422 26.4392 6.68187 25.819C6.3458 25.2438 6.01492 25.0221 5.33757 25.0238C4.66022 25.0255 4.32241 25.2265 3.99153 25.812C3.64506 26.4253 3.60868 26.8757 3.99153 27.4889C4.33453 28.0364 4.61345 28.4608 5.33064 28.2096Z" fill="white"/>
</g>
<defs>
<clipPath id="clip0_1635_1418">
<rect width="31.9931" height="32" fill="white"/>
</clipPath>
</defs>
</svg>
