<svg width="26" height="32" viewBox="0 0 26 32" fill="none" xmlns="http://www.w3.org/2000/svg">
<g clip-path="url(#clip0_1635_1424)">
<path d="M8.64891 31.9955C8.17571 31.852 7.7034 31.7041 7.22307 31.5668C6.78373 31.4394 6.31944 31.3734 5.90417 31.1925C5.005 30.7994 4.1486 31.1034 3.27973 31.27C2.45185 31.4269 1.62665 31.6007 0.798768 31.7602C0.30507 31.8556 0.0118804 31.5597 0.100995 31.0659C0.395966 29.4268 0.69361 27.7878 0.983234 26.1478C1.0033 26.0153 0.99877 25.8802 0.969867 25.7494C0.660638 24.2832 0.337151 22.8197 0.0377245 21.3518C-0.0125748 21.099 -0.0125748 20.8389 0.0377245 20.5861C0.338042 19.1182 0.66153 17.6547 0.970759 16.1885C0.997503 16.0577 0.997503 15.9227 0.970759 15.7919C0.662421 14.3257 0.338933 12.8622 0.0377245 11.3934C-0.0121791 11.1409 -0.0121791 10.8811 0.0377245 10.6286C0.334478 9.17049 0.673114 7.72036 0.950262 6.26132C1.0171 5.91104 0.929766 5.52154 0.867385 5.1579C0.621428 3.73183 0.355866 2.30577 0.100106 0.885943C0.0109911 0.409994 0.311308 0.109629 0.784509 0.202324C2.04014 0.44832 3.2931 0.709467 4.5514 0.943877C4.79291 0.986601 5.04071 0.977794 5.27858 0.91803C6.38717 0.634599 7.48774 0.320865 8.59544 0.0320868C8.76447 -0.0106956 8.94149 -0.0106956 9.11053 0.0320868C10.2476 0.328887 11.3785 0.647969 12.5156 0.94566C12.6837 0.989751 12.86 0.991588 13.0289 0.951007C14.1562 0.654207 15.2764 0.336017 16.4037 0.0392173C16.5825 -0.00535277 16.7694 -0.00535277 16.9482 0.0392173C18.0559 0.325322 19.1565 0.641729 20.2659 0.921594C20.524 0.98334 20.7921 0.990022 21.0528 0.941203C22.2808 0.713924 23.5035 0.457233 24.7288 0.217475C25.2457 0.11676 25.5309 0.408212 25.4417 0.920704C25.1447 2.55949 24.8506 4.19887 24.5595 5.83884C24.54 5.96121 24.5443 6.08618 24.572 6.20695C24.8839 7.68292 25.2092 9.15712 25.5121 10.6349C25.5608 10.8776 25.5608 11.1275 25.5121 11.3702C25.2109 12.8381 24.8883 14.3016 24.58 15.7687C24.5512 15.9196 24.5527 16.0747 24.5845 16.2251C24.8901 17.6814 25.2207 19.1333 25.5032 20.5924C25.5683 20.9239 25.5157 21.2938 25.448 21.6316C25.1744 22.9989 24.8509 24.3572 24.5978 25.7316C24.531 26.0881 24.6219 26.4909 24.6869 26.8644C24.9311 28.2798 25.1967 29.6925 25.4498 31.106C25.5318 31.5624 25.2314 31.8654 24.7787 31.7772C23.45 31.5196 22.124 31.2531 20.7962 30.9946C20.6967 30.9723 20.5935 30.9723 20.4941 30.9946C19.3178 31.3096 18.1429 31.6283 16.9696 31.951C16.9437 31.9581 16.9241 31.9875 16.901 32.0062H16.5258C16.4197 31.9679 16.3155 31.9171 16.2068 31.8913C15.2042 31.6159 14.199 31.3503 13.1982 31.0668C12.9316 30.9857 12.6468 30.9857 12.3802 31.0668C11.2635 31.3913 10.1407 31.697 9.02052 32.0098L8.64891 31.9955ZM1.29959 1.39041C1.30672 1.4733 1.30761 1.51252 1.31385 1.55085C1.51793 2.69883 1.7318 3.84503 1.9234 4.99568C1.99469 5.42261 2.115 5.87628 2.04103 6.28716C1.78794 7.68916 1.45287 9.0769 1.16146 10.4762C1.10978 10.7258 1.05542 10.9994 1.10443 11.2418C1.38425 12.6403 1.7015 14.0307 1.99113 15.4265C2.04727 15.6938 2.10163 15.9924 2.04994 16.2554C1.77101 17.6538 1.4502 19.0433 1.16503 20.44C1.0978 20.7309 1.08811 21.0322 1.13651 21.3268C1.42703 22.7858 1.75319 24.2378 2.05796 25.6941C2.09151 25.8573 2.09483 26.0253 2.06776 26.1897C1.94568 26.9179 1.80844 27.6443 1.67744 28.3724C1.54644 29.1006 1.41901 29.8154 1.28623 30.5606C1.39049 30.5525 1.45287 30.5543 1.51169 30.5427C2.57305 30.3315 3.63352 30.1131 4.69666 29.9108C4.86878 29.8778 5.046 29.8823 5.2162 29.9242C6.35241 30.2219 7.48507 30.5392 8.62129 30.8378C8.7798 30.8802 8.94637 30.8827 9.10607 30.8449C10.2325 30.5481 11.3536 30.2299 12.4809 29.9349C12.6694 29.8859 12.8671 29.884 13.0565 29.9295C14.1838 30.221 15.3058 30.5383 16.4331 30.8306C16.6116 30.8752 16.7982 30.8752 16.9767 30.8306C18.0942 30.5401 19.2046 30.2272 20.3221 29.9313C20.4812 29.8868 20.6479 29.8762 20.8113 29.9001C21.3647 29.9955 21.9146 30.1158 22.4653 30.2254C23.0535 30.3422 23.6416 30.4563 24.2565 30.5775C24.2396 30.434 24.2325 30.3333 24.2137 30.2335C24.0159 29.1372 23.8074 28.0436 23.6211 26.9455C23.5516 26.5382 23.4384 26.105 23.5106 25.7146C23.7869 24.2208 24.1344 22.7404 24.4437 21.2528C24.4806 21.0705 24.4806 20.8826 24.4437 20.7002C24.1505 19.2947 23.8377 17.8927 23.5445 16.4871C23.4928 16.2366 23.4482 15.9621 23.4981 15.7188C23.7789 14.3213 24.0979 12.9308 24.3839 11.5342C24.451 11.2433 24.461 10.9421 24.4134 10.6474C24.1228 9.18831 23.7967 7.73551 23.491 6.28003C23.4575 6.11683 23.4542 5.94887 23.4812 5.78447C23.6051 5.04559 23.7486 4.30939 23.8787 3.5714C24.0061 2.85837 24.1318 2.14534 24.261 1.41359C24.1963 1.41487 24.1317 1.41963 24.0676 1.42785C23.0062 1.6373 21.9458 1.85478 20.8826 2.05175C20.6907 2.08824 20.4931 2.08307 20.3034 2.0366C19.1859 1.74515 18.0755 1.42963 16.958 1.13818C16.7793 1.09584 16.5931 1.09767 16.4153 1.14353C15.2871 1.43587 14.166 1.75228 13.0378 2.04373C12.8585 2.08831 12.6709 2.08831 12.4916 2.04373C11.3642 1.74871 10.2432 1.43141 9.11587 1.1364C8.94744 1.09361 8.771 1.09361 8.60257 1.1364C7.55547 1.40913 6.51015 1.689 5.47018 1.98847C5.14266 2.09037 4.79404 2.1039 4.45961 2.02769C3.89195 1.89667 3.31894 1.78882 2.74682 1.67117C2.27629 1.57669 1.79953 1.48756 1.29959 1.39041Z" fill="white"/>
<path d="M3.16451 15.9744C3.16451 11.9826 3.16451 7.99049 3.16451 3.9981C3.16451 3.31359 3.30531 3.17188 3.98793 3.17188H21.5579C22.2431 3.17188 22.3857 3.3127 22.3857 3.99454V27.9774C22.3857 28.661 22.2431 28.8036 21.5614 28.8036H3.9915C3.3062 28.8036 3.16451 28.6628 3.16451 27.9809C3.16391 23.9791 3.16391 19.9769 3.16451 15.9744ZM4.25528 27.7216H21.2941V4.2539H4.25528V27.7216Z" fill="white"/>
</g>
<defs>
<clipPath id="clip0_1635_1424">
<rect width="25.5484" height="32" fill="white"/>
</clipPath>
</defs>
</svg>
