<svg width="31" height="31" viewBox="0 0 31 31" fill="none" xmlns="http://www.w3.org/2000/svg">
<g clip-path="url(#clip0_1194_9825)">
<path d="M20.916 1.1377C21.6011 0.9348 22.3337 0.956115 23.0059 1.19824C23.678 1.44042 24.2553 1.89142 24.6533 2.48438C25.0504 3.07596 25.2482 3.7786 25.2188 4.49023C25.2062 4.69767 25.1641 4.92199 25.0986 5.19824C25.0401 5.44494 24.9414 5.81418 24.873 6.13867L24.6191 7.34473H27.2402L27.499 7.35449C28.7662 7.44816 29.6385 8.19098 29.915 9.29199C29.9742 9.54812 30.0036 9.81034 30.002 10.0732V10.0859C30.0129 11.7934 30.0068 13.4994 30.0068 15.2158C30.0068 15.4664 29.9715 15.5756 29.9561 15.6133C29.9183 15.6302 29.8118 15.6676 29.5684 15.6768V15.6777C29.4894 15.68 29.4236 15.6874 29.3887 15.6924C29.3673 15.6954 29.346 15.6993 29.334 15.7012C29.3197 15.7034 29.3112 15.705 29.3037 15.7061L28.4873 15.8203L28.4443 16.6436C28.4401 16.7245 28.4248 16.9148 28.4248 17.0693V17.0713L28.4492 25.5615C28.4628 28.1454 26.3658 30.1401 23.7998 29.9893H23.7979C23.6134 29.9787 23.4197 29.9707 23.2197 29.9707C18.0838 29.9707 12.9417 29.9626 7.80078 29.9775C6.84773 29.9776 6.18009 30.0007 5.53125 29.7695C3.71084 29.1187 2.56638 27.4717 2.58008 25.5195C2.60099 22.6878 2.5985 19.8523 2.60645 17.0283V17L2.59766 16.6475L2.57227 15.6729H1.59766C1.35282 15.6729 1.30573 15.6784 1.20898 15.6738C1.14205 15.6694 1.08932 15.6424 1.05762 15.6113C1.02916 15.5834 1.02266 15.5604 1.02246 15.54C1.00941 13.5622 0.972321 11.6314 1.03711 9.69922C1.07624 8.51627 2.02824 7.5145 3.38086 7.36621L3.65723 7.34863C4.16318 7.33701 4.64226 7.34863 5.20996 7.34863H6.52734L6.17285 6.0791C6.05215 5.64776 5.95899 5.39781 5.89453 5.14746L5.83984 4.88965C5.72005 4.15232 5.85025 3.39609 6.20996 2.74121C6.57027 2.08531 7.13983 1.56888 7.82812 1.27441C8.51659 0.979981 9.28416 0.924667 10.0078 1.11719C10.7315 1.30977 11.3704 1.73931 11.8213 2.33691L11.8223 2.33789C12.7047 3.50219 13.5851 4.66958 14.4629 5.83984C14.555 5.96547 14.6799 6.11043 14.7393 6.18359L15.5459 7.17773L16.3145 6.1543L18.0342 3.86816C18.4273 3.34616 18.8049 2.83762 19.1934 2.33105L19.1973 2.32617C19.6289 1.75732 20.2311 1.34059 20.916 1.1377ZM2.98535 24.6787C2.98536 25.1097 3.0075 25.5382 3.04688 25.9639V25.9648C3.13056 26.8596 3.42577 27.6694 3.99609 28.3037C4.56835 28.9401 5.34066 29.3144 6.22266 29.4746L6.23145 29.4766C6.67749 29.5535 7.12942 29.5909 7.58203 29.5898V29.5908H15.2969V15.6895H2.98535V24.6787ZM15.7295 29.5869H23.5303V29.5879L23.5391 29.5869C23.92 29.5836 24.3001 29.5525 24.6768 29.4951L24.6777 29.4961C25.5047 29.3737 26.2474 29.0653 26.8271 28.5098C27.4079 27.9532 27.747 27.2238 27.8975 26.3984V26.3945C27.9857 25.8985 28.0304 25.3954 28.0312 24.8916C28.0367 23.5873 28.0388 22.2826 28.0381 20.9785L28.0312 17.0684C28.0312 16.9137 28.0185 16.7364 28.0137 16.6445L27.9639 15.6982L27.0156 15.6973L16.7305 15.6895L15.7295 15.6885V29.5869ZM16.7256 7.72656V8.72656H15.7305V15.2744H29.6143V10.1738C29.6142 9.54839 29.4789 8.87013 28.9717 8.36523C28.4653 7.86143 27.7861 7.72658 27.1592 7.72656H16.7256ZM3.59277 7.73438C2.97604 7.73535 2.41036 7.9718 2.00293 8.4082C1.60138 8.83837 1.40717 9.40364 1.40234 9.98145V15.2705H15.2998L15.3008 14.2705L15.3057 8.77441L15.3066 8.17969L14.7842 7.89551C14.6782 7.83774 14.5653 7.79385 14.4482 7.76465L14.3291 7.73438H14.2061C10.6747 7.73437 7.13189 7.72243 3.59277 7.73438ZM22.9062 1.57422C22.3189 1.34658 21.6736 1.31422 21.0664 1.4834C20.4547 1.65392 19.9148 2.01909 19.5293 2.52344C18.8393 3.41278 18.1647 4.32753 17.502 5.20703C17.3773 5.36836 17.2536 5.53862 17.1182 5.7207L15.9307 7.31738H17.8643C17.8988 7.32109 17.9261 7.32408 17.9697 7.3291C18.0205 7.33494 18.1014 7.34375 18.1973 7.34375H21.8457V7.34277C22.099 7.34357 22.3515 7.31481 22.5977 7.25488L22.6074 7.25195C23.2229 7.09542 23.7728 6.74578 24.1758 6.25488C24.5785 5.76408 24.8142 5.15746 24.8477 4.52344C24.8811 3.88923 24.7104 3.26103 24.3613 2.73047C24.0165 2.20636 23.515 1.80517 22.9287 1.58301H22.9297C22.9269 1.58192 22.9236 1.58116 22.9209 1.58008C22.9163 1.57834 22.9119 1.57594 22.9072 1.57422H22.9062ZM9.87988 1.46289C9.24618 1.30243 8.57686 1.35815 7.97852 1.62109C7.38565 1.87815 6.89166 2.31981 6.56934 2.87988C6.24699 3.44005 6.11363 4.08961 6.18945 4.73145L6.19043 4.73926L6.19141 4.74805C6.35832 5.98218 7.37015 7.2514 8.81738 7.30859V7.30957C10.2248 7.36734 11.671 7.32422 13.0986 7.32422H15.1016L13.9033 5.72461C13.7161 5.47472 13.5481 5.24692 13.3936 5.04297C12.7698 4.21612 12.1331 3.35056 11.4805 2.5127H11.4814C11.0801 1.99358 10.5159 1.62397 9.87988 1.46289Z" stroke="white" stroke-width="2"/>
</g>
<defs>
<clipPath id="clip0_1194_9825">
<rect width="31" height="31" fill="white"/>
</clipPath>
</defs>
</svg>
