<svg width="31" height="32" viewBox="0 0 31 32" fill="none" xmlns="http://www.w3.org/2000/svg">
<g clip-path="url(#clip0_1194_9815)">
<path d="M2.74326 32.0008C2.49879 31.8339 2.43604 31.5918 2.445 31.3005C2.45967 30.8238 2.44908 30.3463 2.44908 29.8288C2.15 29.8288 1.87864 29.8288 1.60727 29.8288C0.629382 29.8154 0.00434664 29.176 0.00353173 28.1818C0.00353173 25.0364 0.00353173 21.8921 0.00353173 18.7489C-0.000375859 18.6453 0.0111655 18.5417 0.0377578 18.4417C0.0697662 18.3428 0.13354 18.258 0.218677 18.201C0.303813 18.144 0.405288 18.1182 0.506546 18.1279C0.607805 18.1376 0.702871 18.1822 0.776238 18.2543C0.849605 18.3265 0.896941 18.4219 0.910526 18.5252C0.92183 18.6392 0.924555 18.7539 0.918676 18.8683C0.918676 21.9291 0.918676 24.9899 0.918676 28.0507C0.918676 28.701 1.10122 28.8855 1.73359 28.8855H13.7828C14.4063 28.8855 14.5855 28.7043 14.5855 28.0733V12.0783C14.5855 11.4539 14.3948 11.2602 13.7812 11.2594H1.73114C1.12159 11.2594 0.916231 11.463 0.916231 12.0783C0.916231 13.5252 0.916231 14.9721 0.916231 16.4191C0.916231 16.5025 0.916231 16.586 0.916231 16.6695C0.902377 16.9667 0.731245 17.1628 0.478623 17.1703C0.226001 17.1779 0.0100506 16.9742 0.00434619 16.6695C-0.00543273 16.0659 0.00434619 15.4616 0.00434619 14.858C0.00434619 13.8897 0.000271636 12.9205 0.00434619 11.9522C0.00842074 10.9839 0.649755 10.3269 1.59668 10.3186C2.35781 10.3111 3.11812 10.3186 3.92406 10.3186V2.15621C3.92406 1.25633 4.23455 0.942454 5.12198 0.942454H5.52944C5.53596 0.858977 5.54003 0.799708 5.54411 0.74044C5.5767 0.285491 5.84644 0.00751291 6.29056 0.00500861C7.44937 -0.00166954 8.60844 -0.00166954 9.76779 0.00500861C10.2038 0.00500861 10.458 0.255439 10.5159 0.706214C10.5248 0.777169 10.5354 0.848125 10.5485 0.942454C10.7473 0.942454 10.9396 0.942454 11.1311 0.942454C11.7651 0.949132 12.1359 1.32478 12.1367 1.97256C12.1367 4.61822 12.1367 7.2636 12.1367 9.9087V10.3194C12.7121 10.3194 13.2678 10.3119 13.8228 10.3194C14.0357 10.3181 14.2479 10.3462 14.4535 10.4029C14.7585 10.4965 15.0255 10.6893 15.2141 10.9521C15.4027 11.2149 15.5027 11.5334 15.499 11.8596C15.5072 13.1952 15.499 14.525 15.499 15.8581V16.2179H16.3506C16.3506 15.884 16.3506 15.5501 16.3506 15.2086C16.3506 14.5759 16.6497 14.2662 17.2674 14.2654C18.9249 14.262 20.5819 14.262 22.2384 14.2654C22.8569 14.2654 23.1486 14.57 23.1568 15.2086C23.1568 15.5425 23.1568 15.8706 23.1568 16.2404H29.4634C30.4649 16.2404 30.9832 16.773 30.9832 17.7998C30.9832 21.9444 30.9709 26.0898 30.9938 30.2378C30.9986 31.0843 30.7493 31.6895 29.9515 32.0008H9.5771C8.54379 31.6452 8.44926 30.7921 8.54868 29.848H3.36585C3.36585 30.363 3.35444 30.8589 3.36993 31.3506C3.3797 31.6385 3.30229 31.8581 3.04804 31.9975L2.74326 32.0008ZM15.5023 17.1837V17.6069C15.5023 21.1269 15.5023 24.6465 15.5023 28.1659C15.5023 29.191 14.8903 29.8179 13.8896 29.8279C13.6182 29.8279 13.3477 29.8279 13.0804 29.8279V31.0367H24.5005V17.1795H24.1599C23.3263 17.1795 22.4926 17.1837 21.659 17.1795C21.333 17.1795 21.1309 16.9742 21.139 16.6945C21.1472 16.4149 21.3387 16.2513 21.6549 16.2429C21.8431 16.2429 22.0314 16.2429 22.2253 16.2429V15.2295H17.2886V16.2438H17.6333C18.3243 16.2438 19.0186 16.2438 19.7072 16.2438C20.0234 16.2438 20.2068 16.4249 20.2076 16.7054C20.2084 16.9859 20.021 17.162 19.7113 17.1804C19.6404 17.1845 19.5687 17.1804 19.4978 17.1804H15.5048L15.5023 17.1837ZM10.5509 1.89826C10.5371 2.00261 10.5265 2.10445 10.5102 2.20462C10.4507 2.5619 10.2005 2.81317 9.8452 2.81567C8.63587 2.82513 7.42682 2.82513 6.21804 2.81567C5.85785 2.81567 5.59626 2.53269 5.55388 2.16539C5.54411 2.0769 5.53596 1.98842 5.52699 1.9016H4.86773V10.2944H11.211V1.89826H10.5509ZM27.2778 31.0592H29.4079C29.9735 31.0592 30.0729 30.9549 30.0729 30.363V17.8766C30.0729 17.8039 30.0729 17.7305 30.0729 17.6579C30.055 17.3373 29.9099 17.1887 29.5913 17.1854C29.0632 17.1804 28.5319 17.1854 28.0063 17.1854H27.2786L27.2778 31.0592ZM26.3308 30.9883V17.2087H25.4581V30.9899L26.3308 30.9883ZM9.4516 29.8455C9.4516 30.1084 9.44508 30.3555 9.4516 30.6018C9.46138 30.9031 9.61458 31.0534 9.91203 31.0584C10.3284 31.0659 10.7449 31.0584 11.1613 31.0584H12.1147V29.8455H9.4516ZM9.58769 1.86988V0.964158H6.49103V1.86988H9.58769Z" fill="white"/>
<path d="M6.77088 20.1008V26.2247C6.77538 26.3182 6.77374 26.4119 6.76599 26.5052C6.7334 26.769 6.58182 26.9225 6.3235 26.9326C6.06517 26.9426 5.91034 26.7823 5.86307 26.5252C5.85178 26.4322 5.84905 26.3383 5.85492 26.2447V13.9027C5.84748 13.7989 5.85241 13.6947 5.86959 13.5921C5.93071 13.3534 6.0888 13.2148 6.33491 13.2273C6.44358 13.2258 6.54869 13.267 6.62858 13.3425C6.70848 13.418 6.75707 13.522 6.76436 13.633C6.77428 13.7368 6.77646 13.8412 6.77088 13.9452V20.1008Z" fill="white"/>
<path d="M12.5272 20.0646C12.5272 22.1059 12.5272 24.1469 12.5272 26.1876C12.5307 26.3018 12.5269 26.4162 12.5158 26.5299C12.5097 26.6411 12.4615 26.7455 12.3814 26.821C12.3014 26.8964 12.1958 26.9369 12.0871 26.9339C11.8426 26.9439 11.6797 26.8079 11.6316 26.5616C11.6139 26.4591 11.6068 26.3551 11.6104 26.2511C11.6104 22.1384 11.6104 18.0253 11.6104 13.9115C11.6067 13.8076 11.6132 13.7036 11.63 13.601C11.6436 13.4903 11.699 13.3894 11.7843 13.3198C11.8695 13.2503 11.9779 13.2176 12.0863 13.2287C12.195 13.2239 12.3012 13.2634 12.3816 13.3384C12.462 13.4135 12.5103 13.5181 12.5158 13.6294C12.5269 13.7434 12.5307 13.858 12.5272 13.9725C12.5277 16.0032 12.5277 18.0339 12.5272 20.0646Z" fill="white"/>
<path d="M2.97789 20.0629V13.9391C2.97789 13.8456 2.973 13.7513 2.98197 13.6586C3.00886 13.3915 3.16043 13.237 3.41795 13.227C3.67546 13.217 3.83599 13.3714 3.88489 13.6277C3.89728 13.7313 3.90028 13.8358 3.89385 13.9399C3.89385 18.0325 3.89385 22.1254 3.89385 26.2185C3.89385 26.7135 3.7382 26.9473 3.41713 26.9364C3.11072 26.9264 2.97708 26.7094 2.97708 26.2185L2.97789 20.0629Z" fill="white"/>
<path d="M9.64388 20.0847C9.64388 22.1265 9.64388 24.1678 9.64388 26.2086C9.64742 26.3127 9.64525 26.4169 9.63736 26.5208C9.63337 26.6325 9.58739 26.7383 9.50902 26.816C9.43066 26.8938 9.32599 26.9376 9.21687 26.9381C9.11369 26.9519 9.00925 26.9251 8.92458 26.8631C8.8399 26.8012 8.78128 26.7087 8.76052 26.6042C8.73395 26.4827 8.72326 26.358 8.72874 26.2336C8.72874 22.1304 8.72874 18.0273 8.72874 13.9241C8.72236 13.8101 8.73002 13.6956 8.75156 13.5835C8.77075 13.4736 8.83061 13.3756 8.91867 13.3098C9.00673 13.244 9.11618 13.2156 9.2242 13.2304C9.33283 13.2308 9.43699 13.2747 9.51449 13.3527C9.59198 13.4307 9.63666 13.5366 9.63899 13.6478C9.64877 13.7505 9.6447 13.8557 9.6447 13.96C9.64524 16.0019 9.64497 18.0434 9.64388 20.0847Z" fill="white"/>
<path d="M19.2808 27.5657C18.7421 27.5657 18.2043 27.5657 17.6656 27.5657C17.0137 27.5607 16.5948 27.1441 16.5834 26.4805C16.5764 26.0436 16.5764 25.607 16.5834 25.1707C16.5948 24.5497 16.986 24.1089 17.5825 24.0997C18.7294 24.0813 19.8765 24.0813 21.0239 24.0997C21.6155 24.1097 22.0124 24.5622 22.0221 25.1766C22.0295 25.6131 22.0303 26.0506 22.0221 26.4871C22.0099 27.1207 21.5772 27.5565 20.9554 27.5623C20.3972 27.5698 19.8422 27.5657 19.2808 27.5657ZM19.2628 26.6282C19.7811 26.6282 20.3002 26.6182 20.8185 26.6324C21.0516 26.6391 21.1208 26.5489 21.1111 26.3235C21.0969 25.9896 21.0969 25.6557 21.1111 25.3218C21.12 25.1073 21.0491 25.0246 20.8348 25.0263C19.8069 25.033 18.7799 25.033 17.7536 25.0263C17.5515 25.0263 17.4888 25.1098 17.4953 25.3051C17.5075 25.6482 17.5108 25.993 17.4953 26.3361C17.4839 26.5781 17.5809 26.6366 17.7993 26.6307C18.2866 26.619 18.7747 26.6282 19.2628 26.6282Z" fill="white"/>
</g>
<defs>
<clipPath id="clip0_1194_9815">
<rect width="31" height="32" fill="white"/>
</clipPath>
</defs>
</svg>
