<svg width="34" height="32" viewBox="0 0 34 32" fill="none" xmlns="http://www.w3.org/2000/svg">
<g clip-path="url(#clip0_1635_1408)">
<path d="M0 25.8678C0.0303134 25.7904 0.0644967 25.7149 0.0902954 25.6356C0.184127 25.315 0.346691 25.0187 0.566676 24.7673C0.78666 24.5159 1.05878 24.3155 1.3641 24.1799C1.4878 24.1145 1.58056 24.0027 1.62209 23.869C2.3451 20.788 3.07455 17.709 3.75628 14.6189C3.9014 13.9611 3.94461 13.2871 4.27226 12.6776C4.89658 11.5289 5.8363 10.7969 7.09592 10.457C7.27797 10.4085 7.44495 10.3152 7.58158 10.1854C10.6108 7.16743 13.6361 4.14577 16.6575 1.12045C17.9017 -0.12176 19.6399 -0.354593 21.0394 0.539976C21.3082 0.717449 21.5573 0.923065 21.7824 1.15334C24.2333 3.59518 26.6681 6.05508 29.1286 8.48467C30.2102 9.55402 30.3792 11.0297 29.6446 12.1816C29.5859 12.2822 29.5554 12.3967 29.5562 12.5131C29.5491 13.4264 29.5446 14.3397 29.5607 15.2523C29.5727 15.4067 29.6379 15.5521 29.7452 15.6638C30.661 16.6009 31.5917 17.5245 32.5127 18.4571C32.6914 18.6377 32.8488 18.8396 33.0158 19.0318V19.4188C32.4831 20.3972 31.9536 21.3763 31.415 22.3508C31.343 22.4935 31.2417 22.6195 31.1177 22.7204C30.8881 22.8887 30.6333 22.8842 30.4024 22.7029C30.1715 22.5217 30.0799 22.3011 30.1715 22.0219C30.2256 21.8708 30.2923 21.7245 30.3708 21.5846C30.7294 20.9119 31.0874 20.2385 31.4589 19.5736C31.5543 19.402 31.5395 19.2975 31.3995 19.1589C30.5288 18.2965 29.6723 17.4175 28.799 16.5609C28.6828 16.4592 28.5348 16.401 28.3804 16.3965C27.6392 16.3806 26.8977 16.3806 26.156 16.3965C26.002 16.4032 25.8552 16.4631 25.7406 16.5661C24.8744 17.4175 24.0276 18.2882 23.1607 19.1395C22.9937 19.304 23.0014 19.422 23.1053 19.6084C23.5019 20.3217 23.8792 21.0435 24.2707 21.7607C24.3939 21.9877 24.4913 22.2418 24.3307 22.4579C24.1993 22.6312 24.0157 22.7578 23.807 22.819C23.549 22.8835 23.3323 22.721 23.2014 22.4849C22.9473 22.0244 22.6983 21.5614 22.448 21.0983C22.1978 20.6352 21.9366 20.1547 21.6844 19.6793C21.4458 19.2317 21.478 19.0099 21.8398 18.6474C22.809 17.6709 23.7808 16.697 24.7551 15.7257C24.8343 15.6559 24.897 15.5693 24.9385 15.4723C24.98 15.3752 24.9993 15.2701 24.995 15.1646C24.9802 14.3261 24.995 13.4877 24.9841 12.6492C24.9841 12.5202 24.9505 12.3558 24.868 12.2719C23.2884 10.6756 21.6992 9.08836 20.0991 7.48626C20.0178 7.55914 19.9462 7.61848 19.8811 7.68362C17.4865 10.0777 15.0911 12.4708 12.6949 14.8627C12.5298 15.0272 12.4917 15.1685 12.5459 15.3981C13.2115 18.208 13.8653 21.0194 14.5072 23.8323C14.5206 23.9143 14.555 23.9915 14.6071 24.0563C14.6592 24.1211 14.7273 24.1712 14.8046 24.2018C15.6301 24.5959 16.1087 25.2531 16.1254 26.1761C16.1506 27.5408 16.1351 28.9062 16.1371 30.2716V30.7018H26.4959C27.0854 30.7018 27.3988 30.9185 27.4059 31.3345C27.413 31.7505 27.0905 31.9918 26.4862 31.9918C17.9623 31.9918 9.43844 31.9937 0.914562 31.9976C0.512748 31.9976 0.205099 31.8944 0 31.5409V25.8678ZM1.28993 30.6844H14.8465V30.3464C14.8465 29.0565 14.8465 27.7677 14.8465 26.4799C14.8465 25.6272 14.5066 25.2847 13.663 25.2841H6.18781C4.90948 25.2841 3.63116 25.2841 2.35348 25.2841C1.68272 25.2841 1.2938 25.6711 1.29122 26.3464C1.28671 27.4093 1.29122 28.4748 1.29122 29.5364L1.28993 30.6844ZM2.93202 23.9768H13.2218C12.6891 21.6787 12.1628 19.4052 11.6216 17.0705C10.7058 18.2733 9.5513 18.9176 8.09304 18.9222C6.61929 18.9267 5.45319 18.2772 4.53347 17.0698C3.99041 19.4027 3.46282 21.6826 2.93202 23.9755V23.9768ZM12.1899 13.4193L18.7324 6.87612C17.1058 6.56461 16.1087 5.55394 15.7952 3.94153L9.23398 10.5099C10.7116 10.9588 11.7171 11.961 12.1899 13.4193ZM8.0653 17.6329C9.70029 17.6432 11.0579 16.2991 11.0754 14.6518C11.0928 13.0317 9.73254 11.6631 8.08659 11.6437C6.45934 11.625 5.09459 12.9827 5.08491 14.6306C5.08337 15.4235 5.39618 16.1847 5.95481 16.7475C6.51345 17.3102 7.27237 17.6286 8.0653 17.6329ZM22.7176 3.92024C22.5113 4.40074 22.3603 4.9122 22.0862 5.34562C21.8031 5.79258 21.4006 6.16408 21.0401 6.58073C21.0775 6.62265 21.1239 6.6807 21.1768 6.73294C22.8107 8.36686 24.4446 10.0008 26.0786 11.6347C26.1543 11.7108 26.2345 11.7825 26.3185 11.8495C26.5923 12.0716 26.935 12.1913 27.2876 12.188C27.6402 12.1847 27.9806 12.0586 28.2502 11.8314C28.9983 11.2129 29.0099 10.2022 28.2663 9.45599C26.4681 7.65008 24.6672 5.84869 22.8634 4.05182C22.8047 3.99312 22.7402 3.94024 22.7176 3.92024ZM21.3716 3.50875C21.3823 2.93333 21.1642 2.37719 20.7651 1.96251C20.366 1.54782 19.8186 1.30852 19.2432 1.29717C18.0674 1.27072 17.0955 2.21753 17.0671 3.4191C17.0387 4.59423 17.9888 5.58168 19.1755 5.61199C19.745 5.62222 20.2955 5.40685 20.7069 5.01286C21.1183 4.61886 21.3572 4.0782 21.3716 3.50875ZM28.2534 13.4083H26.3056V15.0801H28.2534V13.4083Z" fill="white"/>
<path d="M29.4673 30.711C29.6369 30.7129 29.7989 30.7821 29.9176 30.9034C30.0362 31.0247 30.1018 31.1882 30.1 31.3579C30.0981 31.5276 30.0289 31.6896 29.9076 31.8082C29.7862 31.9269 29.6228 31.9925 29.4531 31.9906C29.2834 31.9887 29.1214 31.9195 29.0027 31.7982C28.8841 31.6769 28.8185 31.5134 28.8204 31.3437C28.8222 31.174 28.8914 31.012 29.0128 30.8934C29.1341 30.7747 29.2976 30.7091 29.4673 30.711Z" fill="white"/>
<path d="M8.08842 27.3539C8.52764 27.3539 8.96751 27.3487 9.40737 27.3539C9.84724 27.359 10.1323 27.6118 10.131 27.9988C10.1297 28.3858 9.85304 28.636 9.40092 28.6399C8.51173 28.6464 7.62189 28.6464 6.73141 28.6399C6.29025 28.6399 5.99744 28.3665 6.00002 27.995C6.0026 27.6235 6.29477 27.3616 6.73721 27.3551C7.17966 27.3487 7.63823 27.3539 8.08842 27.3539Z" fill="white"/>
<path d="M4.26012 27.994C4.25665 28.1621 4.18823 28.3224 4.06919 28.4412C3.95015 28.5599 3.78975 28.6281 3.62161 28.6312C3.53759 28.6308 3.45445 28.614 3.37696 28.5815C3.29946 28.549 3.22912 28.5016 3.16995 28.442C3.05045 28.3215 2.9837 28.1585 2.98438 27.9888C2.98506 27.8191 3.05313 27.6566 3.1736 27.5371C3.29407 27.4176 3.45708 27.3509 3.62677 27.3516C3.79504 27.3556 3.95517 27.4248 4.07335 27.5447C4.19153 27.6645 4.2585 27.8256 4.26012 27.994Z" fill="white"/>
<path d="M12.5278 28.639C12.4438 28.6397 12.3604 28.6238 12.2826 28.5923C12.2047 28.5608 12.1338 28.5142 12.0739 28.4553C12.014 28.3963 11.9663 28.3262 11.9335 28.2488C11.9007 28.1714 11.8835 28.0884 11.8828 28.0044C11.8822 27.9203 11.898 27.837 11.9296 27.7591C11.9611 27.6812 12.0076 27.6103 12.0666 27.5504C12.1255 27.4905 12.1957 27.4429 12.273 27.4101C12.3504 27.3773 12.4335 27.3601 12.5175 27.3594C12.6872 27.358 12.8504 27.4241 12.9714 27.5431C13.0924 27.6622 13.1611 27.8244 13.1624 27.994C13.1638 28.1637 13.0977 28.327 12.9787 28.448C12.8597 28.5689 12.6975 28.6376 12.5278 28.639Z" fill="white"/>
<path d="M8.71089 14.6521C8.70444 14.8194 8.63387 14.9778 8.5138 15.0945C8.39373 15.2112 8.23336 15.2773 8.06592 15.279C7.7299 15.2693 7.42805 14.9565 7.43773 14.6243C7.44752 14.4566 7.52063 14.2989 7.64227 14.183C7.76391 14.0671 7.92501 14.0017 8.09301 14C8.26056 14.007 8.41879 14.079 8.53414 14.2008C8.64948 14.3225 8.71288 14.4844 8.71089 14.6521Z" fill="white"/>
<path d="M27.2637 11.2875C27.094 11.2851 26.9322 11.2154 26.8139 11.0937C26.6956 10.972 26.6305 10.8083 26.6329 10.6387C26.6353 10.469 26.705 10.3072 26.8267 10.1889C26.9483 10.0706 27.112 10.0055 27.2817 10.0079C27.3657 10.0091 27.4487 10.0268 27.5259 10.06C27.603 10.0933 27.6729 10.1414 27.7315 10.2017C27.7901 10.2619 27.8362 10.3331 27.8672 10.4112C27.8983 10.4893 27.9137 10.5727 27.9125 10.6567C27.9113 10.7407 27.8936 10.8237 27.8603 10.9009C27.8271 10.978 27.779 11.0479 27.7187 11.1065C27.6585 11.1651 27.5873 11.2112 27.5092 11.2422C27.4311 11.2733 27.3477 11.2887 27.2637 11.2875Z" fill="white"/>
<path d="M19.2194 4.08301C19.0951 4.08034 18.9742 4.04099 18.8721 3.96989C18.77 3.89879 18.6912 3.79912 18.6456 3.68338C18.5999 3.56765 18.5895 3.44101 18.6156 3.31936C18.6417 3.19772 18.7031 3.08649 18.7922 2.99964C18.8813 2.91279 18.994 2.85419 19.1163 2.83119C19.2385 2.8082 19.3649 2.82183 19.4794 2.87039C19.594 2.91895 19.6916 3.00026 19.7601 3.10412C19.8286 3.20798 19.8649 3.32976 19.8644 3.45417C19.8613 3.62279 19.7919 3.78341 19.6712 3.90114C19.5504 4.01887 19.3881 4.08423 19.2194 4.08301Z" fill="white"/>
</g>
<defs>
<clipPath id="clip0_1635_1408">
<rect width="33.0223" height="32" fill="white"/>
</clipPath>
</defs>
</svg>
