<svg width="31" height="21" viewBox="0 0 31 21" fill="none" xmlns="http://www.w3.org/2000/svg">
<g clip-path="url(#clip0_1194_9716)">
<path d="M0.00242601 8.37699C0.202984 7.58765 0.406777 6.79994 0.600866 6.00899C0.934051 4.6313 1.25591 3.25929 1.58667 1.88484C1.87296 0.694358 2.74635 0.00308341 3.96183 0.00308341H23.9691C24.05 -0.0021011 24.1311 -0.000745795 24.2117 0.00713568C24.4495 0.0468455 24.5967 0.188666 24.6064 0.433408C24.6177 0.692737 24.4754 0.853197 24.2255 0.901821C24.1053 0.916721 23.984 0.920249 23.8632 0.912357H4.03624C3.14666 0.912357 2.67276 1.27704 2.4625 2.1466C1.96596 4.19692 1.47265 6.24806 0.982573 8.3C0.722171 9.39324 1.35134 10.1882 2.47301 10.1891C11.1601 10.1891 19.8472 10.1891 28.5343 10.1891C29.6543 10.1891 30.2811 9.39161 30.0199 8.29757C29.5249 6.22564 29.0268 4.15451 28.5254 2.0842C28.3394 1.31513 27.8331 0.915598 27.0535 0.913167C26.8012 0.913167 26.5489 0.92046 26.2966 0.913167C26.0127 0.9002 25.8324 0.713807 25.834 0.456099C25.8356 0.19839 26.0176 0.00875594 26.3039 0.0103768C26.7357 0.0103768 27.1781 -0.010694 27.5978 0.0671048C28.4995 0.229186 29.1246 0.792417 29.3486 1.67495C29.9147 3.90599 30.4299 6.14919 30.9604 8.38915C30.9913 8.54763 31.0041 8.70914 30.9984 8.87052C30.9984 12.0965 30.9984 15.3224 30.9984 18.5484C30.9984 20.0217 30.0174 21.0031 28.5521 21.0031H2.46331C1.20416 21.0031 0.383325 20.3661 0.0493309 19.1392C0.0369039 19.1125 0.0208462 19.0877 0.00161713 19.0654V15.2346C0.163358 15.0474 0.333186 14.8732 0.615423 14.9858C0.89766 15.0985 0.918687 15.3327 0.911408 15.588C0.905747 15.7995 0.901704 16.0126 0.911408 16.2241C0.939713 16.7363 1.16211 17.1593 1.61902 17.3814C1.91034 17.5149 2.22709 17.5835 2.54741 17.5824C11.1827 17.5921 19.8178 17.5948 28.4526 17.5905C28.5229 17.5905 28.5941 17.5905 28.6645 17.5905C29.5193 17.5508 30.087 16.9624 30.0902 16.1034C30.0902 15.203 30.0902 14.3035 30.0902 13.4031C30.0902 13.3302 30.0757 13.2572 30.0643 13.1462C29.5176 13.5514 28.9281 13.6073 28.3111 13.6065C22.6501 13.5995 16.9908 13.5995 11.3332 13.6065C8.37816 13.6065 5.42262 13.6065 2.46654 13.6065C1.98132 13.6065 1.52602 13.5206 1.10792 13.2653C1.05293 13.2321 0.992278 13.2086 0.926773 13.177C0.887955 13.6 0.811938 13.7329 0.581457 13.8067C0.30569 13.8942 0.152845 13.7167 0 13.5385L0.00242601 8.37699ZM0.936478 10.634C0.936478 10.9703 0.895233 11.2653 0.944564 11.5449C1.07477 12.2823 1.64571 12.69 2.49161 12.69H28.514C28.5852 12.69 28.6556 12.69 28.7259 12.69C29.3033 12.6616 29.753 12.3934 29.9519 11.8569C30.0854 11.4962 30.0813 11.0837 30.1387 10.6939L30.0522 10.6477C29.4416 11.1137 28.7381 11.1048 28.0304 11.1048C19.6884 11.101 11.3469 11.101 3.00595 11.1048C2.28458 11.1032 1.56888 11.121 0.935668 10.634H0.936478ZM30.0797 18.0297C29.4238 18.5224 28.6976 18.503 27.969 18.503C19.6474 18.4987 11.3259 18.4987 3.00433 18.503C2.28539 18.503 1.5705 18.5143 0.949417 18.0467C0.706807 19.4431 1.5236 20.1076 2.61049 20.1043C11.2143 20.0776 19.8181 20.0898 28.4219 20.0898C28.5229 20.0898 28.624 20.0898 28.7251 20.0898C28.9635 20.0859 29.1968 20.02 29.4021 19.8986C29.6074 19.7771 29.7776 19.6042 29.8961 19.3969C30.1484 18.9836 30.0999 18.5314 30.0789 18.0297H30.0797Z" fill="white"/>
<path d="M10.4471 6.18613C10.1422 6.18509 9.84818 6.07265 9.6201 5.86991C9.39203 5.66716 9.24556 5.38801 9.20817 5.0848C9.17258 4.77198 9.32785 4.53615 9.59473 4.49725C9.84947 4.46078 10.0516 4.62286 10.105 4.93163C10.139 5.12612 10.2279 5.26308 10.4285 5.26876C10.6452 5.27443 10.7366 5.12775 10.7738 4.92271C10.8288 4.618 11.0366 4.45673 11.2906 4.49887C11.5445 4.54101 11.7006 4.77279 11.6707 5.06615C11.6378 5.37014 11.4954 5.65166 11.2701 5.85787C11.0448 6.06408 10.7522 6.1808 10.4471 6.18613Z" fill="white"/>
<path d="M10.6809 3.40456C10.3812 3.4046 10.0917 3.29585 9.86581 3.09844C9.63997 2.90103 9.49313 2.62832 9.45247 2.33078C9.41123 2.01391 9.55032 1.78132 9.81477 1.72622C10.0792 1.67111 10.2887 1.83562 10.3493 2.16302C10.3857 2.3559 10.4722 2.48719 10.6728 2.48719C10.8734 2.48719 10.968 2.35347 11.0076 2.16302C11.078 1.82833 11.2745 1.66868 11.5357 1.72054C11.8115 1.77565 11.953 2.02445 11.8948 2.35185C11.8516 2.64384 11.7054 2.91064 11.4826 3.1038C11.2599 3.29696 10.9754 3.40368 10.6809 3.40456Z" fill="white"/>
<path d="M21.0419 6.18644C20.7319 6.18634 20.433 6.07074 20.2033 5.86211C19.9736 5.65348 19.8294 5.36672 19.7989 5.05755C19.7771 4.75689 19.9291 4.53646 20.1847 4.49837C20.4402 4.46028 20.6465 4.62236 20.6982 4.92951C20.7314 5.12481 20.8187 5.26096 21.0169 5.26826C21.2352 5.27717 21.3258 5.12806 21.3646 4.92545C21.4236 4.61831 21.6266 4.45785 21.8789 4.49837C22.145 4.54213 22.2995 4.78444 22.2566 5.0924C22.219 5.39053 22.0755 5.66514 21.8525 5.86602C21.6295 6.06691 21.3417 6.18064 21.0419 6.18644Z" fill="white"/>
<path d="M6.12841 7.80484C6.10577 8.43209 5.55746 8.9548 4.91535 8.96291C4.60502 8.96378 4.30574 8.84753 4.07706 8.6373C3.84839 8.42706 3.70708 8.13825 3.68127 7.82834C3.66348 7.52606 3.79611 7.32508 4.04034 7.28294C4.30721 7.23756 4.50939 7.38181 4.57085 7.68814C4.61047 7.88912 4.68811 8.04472 4.90889 8.04148C5.12966 8.03824 5.20164 7.8794 5.23964 7.67923C5.29625 7.38343 5.48711 7.24566 5.74751 7.27808C6.00791 7.3105 6.13892 7.5058 6.12841 7.80484Z" fill="white"/>
<path d="M20.7853 3.40478C20.4912 3.40186 20.2078 3.2943 19.9856 3.10132C19.7634 2.90834 19.6169 2.64249 19.5722 2.35125C19.5221 2.02142 19.6692 1.77587 19.9458 1.72643C20.2062 1.68105 20.4003 1.84313 20.4682 2.17945C20.5071 2.37313 20.6122 2.52792 20.8047 2.48173C20.8748 2.45756 20.9388 2.41846 20.9925 2.36712C21.0461 2.31578 21.0879 2.25341 21.1152 2.18431C21.2308 1.83179 21.3983 1.66889 21.67 1.73211C21.9417 1.79532 22.08 2.05059 22.0064 2.40231C21.9536 2.68691 21.802 2.94363 21.5786 3.12708C21.3551 3.31053 21.0741 3.4089 20.7853 3.40478Z" fill="white"/>
<path d="M5.2787 6.18638C4.96366 6.18845 4.65977 6.06963 4.42938 5.85428C4.199 5.63893 4.05959 5.3434 4.03977 5.02831C4.02764 4.73738 4.1732 4.53559 4.42067 4.49831C4.66813 4.46103 4.8606 4.61582 4.93096 4.89865C5.01587 5.23821 5.23988 5.3776 5.4461 5.20417C5.51895 5.12537 5.56827 5.02765 5.58843 4.92215C5.6693 4.62068 5.86339 4.45779 6.11571 4.49831C6.36802 4.53883 6.50873 4.74872 6.48852 5.06559C6.4497 5.6742 5.90625 6.17909 5.2787 6.18638Z" fill="white"/>
<path d="M15.805 6.18874C15.4949 6.18939 15.1959 6.07302 14.9676 5.86279C14.7392 5.65256 14.5982 5.36387 14.5726 5.05417C14.5499 4.74946 14.6995 4.5347 14.9583 4.49905C15.2009 4.46582 15.4023 4.6198 15.4605 4.90425C15.5001 5.10037 15.5705 5.26569 15.7921 5.26731C16.0137 5.26893 16.0929 5.12306 16.1285 4.9164C16.1786 4.62385 16.3784 4.46906 16.6234 4.49499C16.8838 4.52174 17.0367 4.7292 17.0237 5.03716C16.9979 5.66198 16.4431 6.18469 15.805 6.18874Z" fill="white"/>
<path d="M10.1906 8.96443C9.88588 8.95747 9.59409 8.83953 9.3698 8.63267C9.14551 8.4258 9.00407 8.14416 8.97192 7.8404C8.94442 7.54298 9.09807 7.31688 9.35362 7.28122C9.62292 7.24394 9.81701 7.39225 9.87038 7.70263C9.90597 7.9109 10.0022 8.05029 10.2165 8.04381C10.4155 8.03814 10.5036 7.89956 10.54 7.70668C10.5974 7.38252 10.8069 7.22935 11.0826 7.28446C11.3317 7.3339 11.4732 7.5681 11.4352 7.86633C11.3965 8.16972 11.2487 8.44856 11.0197 8.65068C10.7906 8.8528 10.4959 8.96434 10.1906 8.96443Z" fill="white"/>
<path d="M27.7929 7.83799C27.7775 8.43202 27.2042 8.97255 26.5556 8.96364C25.907 8.95473 25.3466 8.415 25.336 7.77478C25.3312 7.5041 25.484 7.31042 25.725 7.28043C25.966 7.25045 26.169 7.38173 26.2232 7.65322C26.2636 7.85744 26.3235 8.04383 26.5637 8.04464C26.8038 8.04545 26.8669 7.87284 26.9041 7.66051C26.9543 7.3793 27.1758 7.23019 27.4306 7.28448C27.7015 7.34283 27.8074 7.53085 27.7929 7.83799Z" fill="white"/>
<path d="M26.2036 6.18633C25.8937 6.18304 25.5964 6.063 25.3708 5.85009C25.1451 5.63718 25.0077 5.34698 24.9857 5.03718C24.9688 4.74786 25.1111 4.54121 25.3577 4.49907C25.6044 4.45693 25.8147 4.6109 25.8713 4.8913C25.9125 5.09634 25.9804 5.27544 26.2206 5.26814C26.4382 5.26247 26.5093 5.10606 26.5441 4.90265C26.5942 4.6182 26.8077 4.46341 27.052 4.49745C27.2962 4.53148 27.445 4.73328 27.4369 5.02421C27.4167 5.65957 26.8506 6.19119 26.2036 6.18633Z" fill="white"/>
<path d="M17.0758 7.81506C17.0491 8.44879 16.4628 8.98447 15.8191 8.96259C15.1754 8.94071 14.606 8.38477 14.6174 7.75509C14.6214 7.50386 14.7354 7.3272 14.9958 7.28181C15.2562 7.23643 15.439 7.37825 15.5061 7.64001C15.5109 7.65976 15.5144 7.67979 15.5166 7.69998C15.5449 7.9042 15.6436 8.05251 15.8644 8.04278C16.0633 8.03387 16.1458 7.89772 16.179 7.69998C16.2315 7.38879 16.4337 7.24129 16.7022 7.28019C16.9505 7.31666 17.0879 7.5144 17.0758 7.81506Z" fill="white"/>
<path d="M5.63949 3.40807C5.32348 3.41254 5.01796 3.29446 4.78678 3.0785C4.5556 2.86254 4.41665 2.56541 4.39894 2.24919C4.38843 1.96312 4.54209 1.75809 4.79117 1.72324C5.02407 1.69164 5.22867 1.84237 5.28528 2.11061C5.32734 2.31159 5.3799 2.49637 5.62979 2.49312C5.87968 2.48988 5.92497 2.30754 5.9654 2.10413C6.01878 1.83913 6.23632 1.6811 6.4668 1.72648C6.73124 1.77916 6.8574 1.94934 6.85497 2.22326C6.84931 2.86267 6.29778 3.40321 5.63949 3.40807Z" fill="white"/>
<path d="M21.2768 8.96897C20.6299 8.97383 20.0597 8.43491 20.0395 7.80442C20.0298 7.51591 20.1818 7.31412 20.4301 7.28495C20.6784 7.25577 20.8927 7.40002 20.9364 7.69015C20.9679 7.89761 21.048 8.04754 21.2598 8.05159C21.496 8.05564 21.5704 7.88465 21.6076 7.67313C21.6577 7.39111 21.8639 7.24929 22.1235 7.28981C22.3572 7.32628 22.5117 7.53293 22.5028 7.79388C22.481 8.42519 21.9205 8.9641 21.2768 8.96897Z" fill="white"/>
<path d="M15.743 3.40119C15.4269 3.40452 15.1218 3.28513 14.8916 3.06804C14.6614 2.85095 14.524 2.55301 14.5081 2.23664C14.5 1.95137 14.6569 1.75039 14.906 1.71636C15.1397 1.68718 15.3386 1.83711 15.3953 2.1094C15.4381 2.31281 15.4947 2.49272 15.7438 2.48624C15.9719 2.48057 16.0317 2.32011 16.0673 2.12156C16.1215 1.8363 16.3382 1.67908 16.58 1.71636C16.8218 1.75363 16.9698 1.95462 16.9593 2.2496C16.9383 2.88253 16.3908 3.39876 15.743 3.40119Z" fill="white"/>
<path d="M25.8322 3.40782C25.5262 3.40661 25.2318 3.29036 25.0072 3.08208C24.7825 2.8738 24.6441 2.58863 24.6192 2.28298C24.5982 1.97422 24.7445 1.76189 25.0041 1.7238C25.2467 1.68814 25.4457 1.84293 25.5071 2.13549C25.5476 2.33079 25.6115 2.49449 25.8419 2.49287C26.0724 2.49125 26.1371 2.3389 26.1751 2.13711C26.2293 1.84698 26.4371 1.68976 26.6789 1.7238C26.9207 1.75784 27.0768 1.9572 27.0687 2.24975C27.0542 2.89159 26.4962 3.41268 25.8322 3.40782Z" fill="white"/>
<path d="M19.5404 16.0377V15.1633H11.4631V16.0409C11.6248 16.0409 11.7817 16.0296 11.9386 16.0409C12.2152 16.0644 12.402 16.2679 12.3891 16.5142C12.3761 16.7606 12.2006 16.9316 11.9281 16.9405C11.6151 16.951 11.3022 16.9518 10.99 16.9405C10.707 16.93 10.542 16.763 10.5379 16.4769C10.5298 15.8805 10.5282 15.284 10.5379 14.6876C10.5428 14.4161 10.6997 14.2629 10.9754 14.2394C11.0563 14.2329 11.1372 14.2346 11.2181 14.2346H19.7846C20.3459 14.2346 20.4648 14.3529 20.4648 14.9031C20.4648 15.3991 20.4648 15.8943 20.4648 16.3902C20.4648 16.7833 20.3079 16.9445 19.9165 16.9445C17.9993 16.9478 16.0821 16.9478 14.165 16.9445C13.797 16.9445 13.611 16.7825 13.6126 16.4899C13.6142 16.1974 13.8099 16.0369 14.1722 16.0369C15.8366 16.0337 17.5011 16.0337 19.166 16.0369L19.5404 16.0377Z" fill="white"/>
<path d="M27.5162 16.9449C27.308 16.9309 27.1068 16.8633 26.9323 16.7486C26.7578 16.6339 26.6157 16.476 26.5199 16.2901C26.4091 16.0892 26.2838 16.0146 26.0703 16.047C26.0102 16.0532 25.9495 16.0513 25.8899 16.0413C25.6473 16.0114 25.5017 15.8744 25.4856 15.6288C25.4702 15.3695 25.6036 15.2107 25.856 15.1556C26.3493 15.047 26.3493 15.0478 26.6558 14.7026C26.8573 14.4731 27.1302 14.3186 27.4303 14.264C27.7305 14.2094 28.0402 14.258 28.3093 14.4019C28.5784 14.5458 28.7912 14.7765 28.913 15.0568C29.0349 15.337 29.0588 15.6502 28.9808 15.9457C28.8223 16.5511 28.2707 16.9628 27.5162 16.9449ZM27.6723 16.0373C27.7592 16.0371 27.8441 16.0111 27.9163 15.9626C27.9885 15.914 28.0446 15.8451 28.0777 15.7645C28.1107 15.6839 28.1191 15.5954 28.1019 15.51C28.0847 15.4246 28.0425 15.3463 27.9808 15.2849C27.9192 15.2236 27.8407 15.1819 27.7554 15.1653C27.67 15.1487 27.5817 15.1578 27.5016 15.1915C27.4214 15.2252 27.3531 15.282 27.3051 15.3546C27.2572 15.4273 27.2319 15.5126 27.2324 15.5997C27.2308 15.6578 27.2411 15.7157 27.2627 15.7698C27.2843 15.8238 27.3167 15.8728 27.3579 15.9138C27.3991 15.9548 27.4483 15.9869 27.5024 16.0081C27.5564 16.0294 27.6143 16.0393 27.6723 16.0373Z" fill="white"/>
</g>
<defs>
<clipPath id="clip0_1194_9716">
<rect width="31" height="21" fill="white"/>
</clipPath>
</defs>
</svg>
