<svg width="21" height="31" viewBox="0 0 21 31" fill="none" xmlns="http://www.w3.org/2000/svg">
<g clip-path="url(#clip0_1194_9792)">
<path d="M3.4671 30.9992C2.66472 30.7224 2.33654 30.1495 2.37907 29.3038C2.41277 28.6515 2.38549 27.9952 2.38549 27.3397C1.20037 27.0451 0.410017 26.3434 0.189362 25.1417C-0.039318 23.9003 0.461369 22.9372 1.52052 22.2388C1.07519 21.767 1.02785 21.1949 1.03026 20.5952C1.03828 18.0309 1.03695 15.4665 1.02625 12.9022C1.02161 12.7164 0.966065 12.5354 0.865773 12.3794C0.396166 11.6936 0.143045 10.8806 0.139614 10.0471C0.133997 8.745 0.139614 7.44207 0.139614 6.13995C0.144117 6.07807 0.151885 6.01648 0.162884 5.95544H1.32794C1.20358 5.52733 1.09205 5.14616 0.973292 4.73748L1.82382 4.47204C1.95621 4.90338 2.08941 5.32097 2.20977 5.74179C2.25149 5.88908 2.31408 5.95382 2.47776 5.95301C3.65887 5.94654 4.83998 5.95301 6.02109 5.94815C6.06943 5.94394 6.11741 5.93637 6.16472 5.92549C6.13423 5.84457 6.11417 5.78468 6.08448 5.7248C5.53324 4.5384 4.97879 3.35363 4.43397 2.164C4.35935 2.00214 4.28072 1.94306 4.09617 1.96653C3.17343 2.08631 2.25069 2.18908 1.32473 2.29995C1.27757 2.31048 1.23139 2.3251 1.18673 2.34365L1.55662 3.59317L0.70369 3.86832L0 1.55138L3.91644 1.07229L3.42217 0H17.5634L17.082 1.07067L20.9944 1.54814C20.5499 3.01859 20.1174 4.45181 19.6704 5.93197H20.813C20.8328 5.989 20.847 6.0478 20.8556 6.10758C20.8556 7.49063 20.8556 8.87368 20.8403 10.2567C20.8307 11.0239 20.5547 11.7094 20.1495 12.3535C20.0355 12.536 19.9721 12.7458 19.9657 12.9613C19.9534 15.5154 19.9521 18.0694 19.9617 20.6235C19.9617 21.2135 19.9064 21.7743 19.4715 22.2421C20.5274 22.9421 21.0313 23.9043 20.8018 25.1457C20.5804 26.3467 19.7932 27.0507 18.6057 27.3429C18.6057 27.9992 18.5792 28.6547 18.6121 29.3078C18.6546 30.1535 18.3289 30.7265 17.5241 31.0032H15.6641V30.0904H17.1887C17.4671 30.0904 17.6837 29.9666 17.6918 29.6857C17.7142 28.9218 17.6998 28.1578 17.6998 27.3874H12.7651V30.096H14.7607V31.0016L3.4671 30.9992ZM11.6972 19.7333C11.6786 19.672 11.6641 19.6096 11.6538 19.5464C11.5468 18.6556 11.4399 17.7654 11.3329 16.8758C11.2928 16.5262 11.2005 16.1685 11.2366 15.8237C11.3168 15.0322 11.4725 14.2481 11.5864 13.4598C11.6137 13.2696 11.7004 13.217 11.8833 13.217C12.3535 13.2284 12.8245 13.2227 13.2947 13.217C14.5665 13.2098 15.8391 13.2389 17.1084 13.1814C18.5311 13.1175 19.8229 11.8696 19.9168 10.4461C19.9906 9.27993 19.9417 8.10568 19.9457 6.93466C19.9457 6.91847 19.9264 6.90229 19.912 6.88125C19.8862 6.87076 19.8593 6.86369 19.8317 6.8602C17.8498 6.8602 15.8663 6.83835 13.8853 6.87801C12.8349 6.89986 12.0277 7.4445 11.4484 8.32418C11.0753 8.89067 10.9421 9.52271 10.9477 10.1944C10.9533 10.8791 10.9477 11.5637 10.9477 12.2589H10.0458C10.0458 11.9254 10.0515 11.6114 10.0458 11.3015C10.0322 10.6864 10.0804 10.0601 9.98086 9.45878C9.72169 7.8985 8.42343 6.86263 6.797 6.85697C4.98521 6.85049 3.17263 6.85697 1.36084 6.85697C1.26375 6.85697 1.16667 6.8683 1.05754 6.87477C1.04775 6.92828 1.04105 6.98233 1.03748 7.03663C1.03748 8.0466 1.03748 9.05981 1.03748 10.0657C1.03361 10.6041 1.17507 11.1334 1.4467 11.5969C2.10786 12.7104 3.10121 13.2195 4.3738 13.2154C5.93604 13.2154 7.49828 13.2203 9.05972 13.2089C9.30525 13.2089 9.3911 13.2899 9.41518 13.5254C9.45048 13.8758 9.5235 14.2222 9.57084 14.5726C9.63824 15.0703 9.76903 15.5736 9.74415 16.0681C9.70403 16.8928 9.56282 17.7117 9.46091 18.5323C9.40956 18.9483 9.35259 19.3635 9.30044 19.7964C9.02522 19.7964 8.7845 19.7843 8.54539 19.7964C7.8746 19.8353 7.20701 19.8992 6.59399 20.214C5.91116 20.5652 5.63113 21.2046 5.85018 21.8827H15.1739C15.3207 21.0565 15.0455 20.507 14.3105 20.1695C14.1133 20.0715 13.9034 20.0018 13.6871 19.9623C13.0331 19.8774 12.3784 19.8126 11.6972 19.7333ZM10.4663 26.4551H18.0954C18.8047 26.4551 19.3575 26.1573 19.7154 25.5398C20.4167 24.3259 19.5549 22.8304 18.1411 22.8239C16.0188 22.8126 13.8965 22.8239 11.7734 22.8239C8.82007 22.8239 5.8665 22.8239 2.91265 22.8239C2.06534 22.8239 1.38813 23.2957 1.13136 24.0516C0.73017 25.2388 1.59514 26.4519 2.86692 26.4559C5.40004 26.4632 7.93317 26.4551 10.4663 26.4551ZM4.87208 0.90153C4.86824 0.925382 4.86824 0.949702 4.87208 0.973555C5.62097 2.58886 6.37254 4.20282 7.12678 5.81543C7.15553 5.85734 7.19251 5.89283 7.23544 5.9197C7.27837 5.94657 7.32633 5.96424 7.37632 5.97162C8.66013 6.15776 9.65161 6.80194 10.3508 7.90417C10.3957 7.97457 10.4446 8.04174 10.5048 8.12914C10.5778 8.00937 10.6284 7.92278 10.6829 7.83862C11.3802 6.77766 12.3527 6.15047 13.6044 5.98457C13.7922 5.95948 13.8548 5.86399 13.9206 5.72237C14.6219 4.20633 15.3247 2.69164 16.0292 1.1783C16.0693 1.0909 16.1095 1.00188 16.152 0.90153H4.87208ZM5.9898 14.1485H4.63297V17.2869H3.72547V14.1793L1.93535 13.5221V16.2486C1.93535 17.7927 1.93535 19.3376 1.93535 20.8825C1.93535 21.5542 2.29482 21.9086 2.95679 21.9102C3.51739 21.9102 4.07905 21.9102 4.64179 21.9102C4.72203 21.9102 4.80949 21.8965 4.89133 21.89C4.82634 20.6243 5.2492 19.8539 6.28989 19.3667C6.57899 19.2325 6.88203 19.1313 7.19337 19.0648C7.62024 18.9726 8.05754 18.9289 8.50367 18.8625C8.53737 18.6011 8.56786 18.3422 8.60477 18.084C8.78129 16.8555 8.96023 15.6271 8.62563 14.397C8.60076 14.3031 8.53335 14.1477 8.4812 14.1461C7.95644 14.1267 7.43168 14.1348 6.87643 14.1348V16.3748H5.9898V14.1485ZM14.1019 14.1299C13.5643 14.1299 13.074 14.1234 12.5846 14.1372C12.5412 14.1442 12.5002 14.1622 12.4655 14.1895C12.4309 14.2168 12.4036 14.2526 12.3864 14.2934C12.3126 14.9902 12.0751 15.6691 12.1786 16.3878C12.2973 17.214 12.3856 18.0452 12.4875 18.8739C12.859 18.92 13.2097 18.9548 13.5515 19.0066C15.3271 19.2914 16.148 20.2156 16.1087 21.8763C16.1255 21.8852 16.1432 21.9022 16.1608 21.9022C16.761 21.9062 17.3644 21.9102 17.9622 21.9102C18.726 21.9102 19.059 21.5768 19.0598 20.8056C19.0598 18.4743 19.0598 16.1423 19.0598 13.8094C19.0598 13.7058 19.0478 13.6014 19.0438 13.5318L17.2513 14.1833V17.2942H16.3478V14.1485H14.9934V16.3805H14.1003L14.1019 14.1299ZM19.8237 2.31452C18.8247 2.19637 17.8635 2.08792 16.9038 1.9641C16.7209 1.94064 16.6406 1.99567 16.5652 2.15995C16.0196 3.3601 15.4579 4.55297 14.9019 5.74584C14.8778 5.79682 14.8626 5.85185 14.8441 5.90203C14.8802 5.92226 14.8963 5.93925 14.9131 5.93925C16.1335 5.93925 17.354 5.94734 18.5736 5.93925C18.617 5.93021 18.6577 5.9108 18.6922 5.88263C18.7267 5.85447 18.754 5.81839 18.7718 5.7774C19.1232 4.64361 19.4634 3.50658 19.8221 2.31695L19.8237 2.31452ZM3.28737 27.3769C3.28737 28.1052 3.28737 28.802 3.28737 29.498C3.28737 29.9407 3.43982 30.0896 3.88916 30.0896C5.24037 30.0896 6.59159 30.0896 7.9428 30.0896C8.03748 30.0896 8.13297 30.0815 8.22283 30.0766V27.3769H3.28737ZM11.8312 27.3866H9.16323V30.0677H11.8312V27.3866Z" fill="white"/>
<path d="M11.8731 12.2791C11.8731 11.4415 11.837 10.6225 11.8819 9.8084C11.9405 8.74096 12.8344 7.84105 13.8935 7.79331C14.9133 7.74637 15.9356 7.77388 16.957 7.77146C17.6454 7.77146 18.3347 7.77146 19.0649 7.77146C19.0649 7.91065 19.0649 8.01828 19.0649 8.12592C19.0592 8.83241 19.0833 9.54053 19.0416 10.2446C18.9766 11.3331 18.0988 12.2516 17.0204 12.2832C15.3394 12.3333 13.6568 12.3066 11.975 12.3107C11.9399 12.3043 11.9057 12.2937 11.8731 12.2791ZM18.1485 8.67946H17.2892C16.2397 8.67946 15.1893 8.6738 14.139 8.67946C13.469 8.68513 12.8849 9.1019 12.8079 9.71533C12.7405 10.2584 12.7942 10.8167 12.7942 11.4035C13.331 11.4035 13.8694 11.4035 14.407 11.4035C15.2568 11.3986 16.1081 11.4172 16.9562 11.3768C17.2651 11.3597 17.5569 11.2283 17.7757 11.0078C17.9945 10.7872 18.125 10.493 18.1421 10.1815C18.175 9.70319 18.1485 9.21844 18.1485 8.67946Z" fill="white"/>
<path d="M9.14535 12.287C9.04264 12.2967 8.97524 12.3089 8.90463 12.3089C7.36245 12.3089 5.82027 12.3218 4.27889 12.3048C3.1058 12.2927 2.2304 11.6145 1.99932 10.5398C1.92469 10.1902 1.93994 9.81794 1.93432 9.45539C1.92389 8.90346 1.93432 8.35073 1.93432 7.76562H2.29861C3.77981 7.76562 5.26154 7.76562 6.74381 7.76562C8.19613 7.76562 9.13091 8.69953 9.14455 10.1619C9.15097 10.8659 9.14535 11.5708 9.14535 12.287ZM8.21378 11.4009C8.22706 11.3302 8.23643 11.2589 8.24187 11.1872C8.23786 10.7437 8.25631 10.297 8.2194 9.85679C8.16725 9.23122 7.65773 8.706 7.03508 8.69386C5.66621 8.66635 4.29574 8.68496 2.92607 8.68658C2.90922 8.68658 2.89157 8.70276 2.83701 8.73109C2.83701 9.0815 2.83701 9.45134 2.83701 9.82118C2.83701 10.8716 3.36016 11.3979 4.40647 11.4001C5.57635 11.4001 6.74702 11.4001 7.9169 11.4001L8.21378 11.4009Z" fill="white"/>
<path d="M4.20312 25.0658V24.2031H16.7941V25.0658H4.20312Z" fill="white"/>
<path d="M9.16406 2.68866V1.82031H10.0242V2.68866H9.16406Z" fill="white"/>
<path d="M10.9688 1.8125H11.8353V2.69784H10.9688V1.8125Z" fill="white"/>
</g>
<defs>
<clipPath id="clip0_1194_9792">
<rect width="21" height="31" fill="white"/>
</clipPath>
</defs>
</svg>
