<svg width="31" height="33" viewBox="0 0 31 33" fill="none" xmlns="http://www.w3.org/2000/svg">
<g clip-path="url(#clip0_1194_9800)">
<path d="M22.975 28.1268V32.0673C22.975 32.182 22.9794 32.2968 22.975 32.4106C22.9527 32.8936 22.5888 33.1341 22.1652 32.9266C21.5731 32.6374 20.9943 32.3198 20.4022 32.0287C20.2543 31.9554 20.0928 31.9159 19.9286 31.913C16.7914 31.9063 13.6544 31.9063 10.5177 31.913C10.3525 31.9136 10.1888 31.9447 10.0344 32.0049C9.28883 32.3023 8.54955 32.6163 7.80492 32.9174C7.28323 33.1286 6.95684 32.8954 6.95416 32.3124C6.95416 31.454 6.95416 30.5947 6.95416 29.7362C6.89629 29.7209 6.84033 29.6987 6.7874 29.6701C6.20952 29.2423 5.64235 29.2056 5.03059 29.6316C4.90396 29.7234 4.60165 29.6619 4.44826 29.5618C3.98008 29.2552 3.55024 29.1946 3.08741 29.5572C2.81988 29.7693 2.514 29.7454 2.24914 29.5434C1.82108 29.2166 1.40819 29.2111 0.984596 29.5434C0.929041 29.5815 0.869136 29.6123 0.806241 29.6353C0.38978 29.8134 0.0232569 29.5884 0.0152309 29.1248C-0.00973891 27.5916 -0.0641372 26.0574 0.433475 24.571C0.515255 24.2864 0.551698 23.99 0.541382 23.6933C0.547625 19.1561 0.536922 14.6189 0.553866 10.0817C0.553866 9.24896 0.492333 8.43828 0.247094 7.64596C0.0675825 7.04369 -0.0114191 6.41445 0.0134483 5.78498C0.0303921 5.16619 0.00631408 4.54739 0.0134483 3.9286C0.018799 3.41813 0.413856 3.13077 0.820507 3.39794C1.37163 3.76517 1.86032 3.79823 2.39093 3.39794C2.61566 3.22717 2.87249 3.29878 3.07849 3.45302C3.52438 3.78813 3.95333 3.80557 4.40367 3.45853C4.67121 3.25196 4.96282 3.28042 5.2464 3.45853C5.36858 3.53657 5.51394 3.58064 5.63076 3.66235C5.70427 3.7236 5.79622 3.75656 5.89078 3.75555C5.98535 3.75454 6.07662 3.71964 6.14888 3.65684C6.19258 3.62287 6.25233 3.61185 6.29692 3.5788C6.74281 3.24829 7.178 3.25655 7.61675 3.5788C7.87537 3.7716 8.12863 3.8019 8.40152 3.59257C8.85632 3.2437 9.32094 3.2492 9.7802 3.59257C10.0326 3.78078 10.276 3.79455 10.5347 3.59257C11.0037 3.22533 11.4701 3.26573 11.9463 3.59992C12.0997 3.70733 12.2602 3.81567 12.4939 3.69724C12.748 3.56778 12.8444 3.42181 12.8363 3.12526C12.8131 2.31183 12.8247 1.4984 12.8292 0.684966C12.8292 0.0882047 13.2162 -0.183551 13.7049 0.134109C14.2195 0.463705 14.6698 0.487576 15.1558 0.121256C15.4029 -0.0623628 15.6722 -0.0173751 15.904 0.152472C16.3499 0.48115 16.7798 0.505939 17.2292 0.152472C17.4843 -0.0476723 17.7643 -0.0311467 18.0408 0.145127C18.1736 0.228674 18.3252 0.27825 18.4554 0.363633C18.624 0.473804 18.78 0.496757 18.9432 0.363633C18.9602 0.349862 18.9851 0.348026 19.003 0.335172C19.5113 -0.0504274 20.0178 -0.0605257 20.5315 0.328746C20.7241 0.475642 20.9283 0.502266 21.1388 0.339763C21.2351 0.265397 21.3599 0.231428 21.4625 0.164407C21.755 -0.0247208 22.0431 -0.0421648 22.3373 0.157062C22.3926 0.194704 22.4622 0.211229 22.5157 0.248871C22.8305 0.497675 23.1399 0.482067 23.4512 0.248871C23.8507 -0.0550181 24.2538 -0.0403286 24.6488 0.248871C24.9529 0.474723 25.2499 0.498593 25.5549 0.261725C25.9883 -0.0742982 26.4217 -0.0329837 26.8417 0.279169C27.1208 0.486658 27.3866 0.486658 27.6577 0.279169C28.1107 -0.0715437 28.5611 -0.0320657 29.0061 0.292022C29.2602 0.475641 29.5019 0.495839 29.7632 0.29753C29.8937 0.210419 30.0331 0.138083 30.1787 0.0817787C30.6077 -0.112857 30.9813 0.118502 30.9813 0.602338C30.9813 2.28337 31.1044 3.97542 30.7022 5.62891C30.4035 6.85548 30.4953 8.08206 30.613 9.3123C30.918 12.5256 30.9698 15.739 30.5952 18.9523C30.4168 20.4773 30.5569 21.9673 30.8146 23.451C31.0821 24.9778 30.9564 26.5128 30.9787 28.0414C30.9849 28.4812 30.5702 28.7548 30.21 28.5216C29.6428 28.1544 29.1398 28.1241 28.57 28.5097C28.4255 28.6079 28.0938 28.5574 27.9279 28.4472C27.4642 28.1397 27.0468 28.1029 26.5965 28.4472C26.312 28.6667 26.0061 28.6309 25.7279 28.428C25.3239 28.1342 24.9351 28.0929 24.5222 28.4133C24.2127 28.6529 23.8881 28.6345 23.5609 28.4188C23.3707 28.3109 23.1751 28.2135 22.975 28.1268ZM16.5666 23.1076V22.6623C16.5666 18.5309 16.5756 14.3903 16.5595 10.2552C16.5595 9.29853 16.5961 8.3584 16.885 7.44214C16.9043 7.35495 16.9159 7.26615 16.9198 7.17682H1.2441C1.27175 7.30902 1.2878 7.42195 1.31901 7.53028C1.53698 8.33469 1.63855 9.1678 1.62043 10.0027C1.60081 14.3104 1.59754 18.6181 1.61062 22.9258C1.61062 23.8237 1.5812 24.7078 1.2985 25.5663C1.27669 25.6567 1.26236 25.7488 1.25569 25.8417H6.95327V25.5901C6.95327 24.605 6.94792 23.6199 6.95327 22.6348C6.95327 22.1399 7.28947 21.9095 7.73892 22.0766C7.98246 22.158 8.22075 22.2552 8.45235 22.3676C9.63752 22.9974 10.8869 23.1939 12.2174 23.1269C13.6523 23.0525 15.0854 23.1076 16.5666 23.1076ZM17.5833 9.28752L17.6787 9.31414C20.7384 6.70951 24.5454 7.58812 26.5073 9.70892C28.6574 12.0335 28.9249 15.5195 27.1244 18.1306C26.2811 19.3889 25.0243 20.2909 23.5858 20.6701C21.3921 21.2631 19.4203 20.7389 17.6519 19.2617V23.1048C18.4902 23.1048 19.3196 23.181 20.1275 23.0755C20.5966 23.014 21.03 22.6596 21.4786 22.4328C21.6783 22.3336 21.8763 22.2299 22.076 22.1298C22.6165 21.8599 22.9678 22.0867 22.975 22.7064C22.975 23.1957 22.975 23.6842 22.975 24.1753H29.8292C29.7989 23.9541 29.7783 23.7613 29.7462 23.5694C29.4939 22.0316 29.3485 20.4984 29.5295 18.9293C29.8969 15.7436 29.8479 12.5513 29.5483 9.36005C29.4386 8.18856 29.3119 7.01523 29.5839 5.84374C29.6918 5.38469 29.7373 4.90453 29.8122 4.42712H18.1665C18.1665 4.63645 18.1602 4.82007 18.1665 5.00185C18.2084 6.06041 18.1362 7.10245 17.8249 8.12337C17.7108 8.50254 17.6653 8.90008 17.5833 9.28752ZM21.8906 23.4601C21.5686 23.6254 21.2663 23.7622 20.98 23.932C20.631 24.1323 20.2352 24.2298 19.8359 24.2139C16.6879 24.202 13.5399 24.2139 10.392 24.202C10.1717 24.197 9.95395 24.1532 9.7481 24.0725C9.17826 23.8568 8.61643 23.6135 8.0448 23.3821V24.7739H9.07035V25.8674H8.0341V26.9599H9.06143V28.0616H8.04302V29.1633H9.07213V30.2559H8.0341V31.6284C8.6307 31.3851 9.20322 31.1418 9.78377 30.9206C9.96862 30.8473 10.1645 30.8078 10.3625 30.804C13.6104 30.7966 16.8585 30.7966 20.107 30.804C20.3263 30.8125 20.5418 30.8655 20.7411 30.9601C21.1245 31.1308 21.4928 31.3383 21.8914 31.5431V30.2513H20.865V29.1496H21.8852V28.0479H20.8579V26.948H21.8799V25.8463H20.8623V24.7537H21.8906V23.4601ZM17.635 14.9164C17.635 15.7638 17.635 16.6102 17.6403 17.4576C17.6493 17.5686 17.6917 17.6739 17.7616 17.7588C18.7684 19.023 20.0722 19.7235 21.6525 19.7933C25.0216 19.9429 27.6051 17.0179 27.1913 13.5631C26.9345 11.4239 25.4077 9.61528 23.3513 9.01484C21.3136 8.41992 19.0708 9.15072 17.7723 10.8373C17.7041 10.9097 17.6584 11.0014 17.6412 11.1008C17.6314 11.9656 17.6359 12.8314 17.6359 13.7899C18.1495 12.0106 19.1153 11.0723 20.428 11.0108C21.0096 10.9774 21.5861 11.1384 22.0716 11.4698C22.8688 12.0069 23.2898 12.8011 23.4797 13.7513H25.4363C26.0373 13.7513 26.2282 13.9744 26.1693 14.6005C26.1235 15.0923 25.9717 15.5674 25.7249 15.991C25.4781 16.4147 25.1426 16.7764 24.7428 17.0496C24.343 17.3228 23.889 17.5007 23.4139 17.5704C22.9388 17.64 22.4547 17.5996 21.9967 17.4521C21.8118 17.4019 21.6172 17.4051 21.434 17.4613C20.5939 17.7165 19.8056 17.622 19.0725 17.1299C18.294 16.6121 17.8642 15.8482 17.635 14.9164ZM29.9085 1.42771C29.4849 1.78209 29.122 1.63611 28.7876 1.40567C28.4763 1.19084 28.1865 1.1587 27.8797 1.39282C27.4481 1.72425 27.0156 1.69395 26.5929 1.37996C26.3173 1.17339 26.0534 1.16788 25.7778 1.37996C25.3417 1.71048 24.8985 1.71874 24.4607 1.38456C24.1869 1.17523 23.9211 1.16788 23.6456 1.37813C23.1997 1.7215 22.7422 1.70956 22.2972 1.3717C22.0297 1.16789 21.7737 1.18808 21.5133 1.37813C21.0674 1.71323 20.6109 1.71415 20.165 1.37813C19.8974 1.17615 19.6424 1.18257 19.3811 1.37813C18.9183 1.72792 18.4554 1.70038 18.0024 1.3616C17.7563 1.17798 17.5217 1.17798 17.2774 1.3616C16.7958 1.72884 16.316 1.70772 15.8398 1.34875C15.822 1.3359 15.7988 1.3313 15.7801 1.31753C15.6017 1.18625 15.4323 1.19818 15.2316 1.30743C14.8205 1.53053 14.4157 1.88492 13.9172 1.44239V3.28501H14.9739V2.22737H16.0441V3.29052H17.1053V2.23196H18.1754V3.28134H19.2455V2.22553H20.3068V3.29052H21.368V2.23012H22.4381V3.28409H23.5082V2.22277H24.5695V3.2795H25.6396V2.22828H26.7097V3.29052H27.7709V2.23287H28.8411V3.28134H29.8862L29.9085 1.42771ZM1.08804 6.03195H17.0776V4.71908C16.6647 5.1111 16.3036 4.92748 15.9709 4.70439C15.657 4.49506 15.369 4.45834 15.0631 4.69337C14.6306 5.02388 14.1981 4.9945 13.7763 4.6796C13.4998 4.47394 13.2367 4.46752 12.9603 4.6796C12.5251 5.01103 12.081 5.01929 11.6431 4.68511C11.3694 4.47578 11.1036 4.46843 10.828 4.67868C10.3822 5.02113 9.92467 5.01011 9.48057 4.67225C9.21303 4.46844 8.9562 4.48313 8.6958 4.67776C8.24546 5.01378 7.79332 5.0147 7.34743 4.67776C7.0799 4.47578 6.82485 4.48129 6.56356 4.67776C6.10073 5.02847 5.63789 5.00093 5.18487 4.66215C4.93874 4.47853 4.7042 4.47853 4.45986 4.66215C3.97919 5.02939 3.49941 5.00919 3.02231 4.65022C3.00447 4.63736 2.98129 4.63186 2.96345 4.619C2.7851 4.48772 2.61477 4.49965 2.41412 4.6089C2.00301 4.832 1.59814 5.18639 1.08804 4.73377V6.03195ZM28.8571 25.3119V26.3778H27.7718V25.3303H26.7017V26.3879H25.6405V25.3358H24.5704V26.3824H23.5091V25.3248H22.9946V26.9113C23.2398 27.0324 23.4895 27.1307 23.7142 27.2721C23.939 27.4135 24.1601 27.4447 24.384 27.2721C24.87 26.9002 25.3649 26.8911 25.8501 27.2666C26.0891 27.4502 26.3182 27.4254 26.5456 27.2555C27.0138 26.9058 27.4829 26.8947 27.9555 27.2464C27.9979 27.2843 28.0493 27.3099 28.1045 27.3207C28.2552 27.329 28.4246 27.3648 28.5566 27.3106C28.9945 27.127 29.3913 26.7322 29.9014 27.1582V25.3156L28.8571 25.3119ZM1.10409 26.9774V28.2324C1.65878 28.0185 1.65878 28.0185 2.18315 28.2902C2.265 28.3256 2.34428 28.3671 2.42036 28.4142C2.49375 28.4751 2.58517 28.5083 2.67942 28.5083C2.77367 28.5083 2.86509 28.4751 2.93848 28.4142C3.066 28.3224 3.22118 28.2801 3.35227 28.1957C3.62872 28.0176 3.90874 28.0121 4.162 28.2076C4.61235 28.551 5.03862 28.5418 5.48451 28.2076C5.74402 28.0102 6.01958 28.0368 6.29603 28.2012C6.494 28.3196 6.70624 28.4123 6.92651 28.5244V26.9774H1.10409ZM20.5779 16.5111C20.1578 16.0016 19.8858 15.3804 19.7931 14.719C19.6941 14.0029 19.8823 13.7651 20.577 13.7641H22.4497C22.2517 13.3969 22.1304 13.0866 21.9387 12.8314C21.2467 11.9133 20.0258 11.8756 19.2705 12.735C18.5152 13.5943 18.5116 15.0513 19.2848 15.9079C19.4484 16.0941 19.6478 16.2431 19.8705 16.3455C20.0931 16.448 20.334 16.5015 20.5779 16.5028V16.5111ZM25.0127 14.8815H20.9408C21.1299 15.8097 21.9967 16.5065 22.9553 16.5138C23.9292 16.5111 24.7995 15.8308 25.0127 14.8732V14.8815Z" fill="white"/>
<path d="M2.68251 17.2923C2.68251 16.5367 2.67805 15.7811 2.68251 15.0246C2.69321 13.6704 3.67149 12.6504 4.98597 12.6605C5.14757 12.6673 5.30872 12.6388 5.45888 12.5769C5.60903 12.515 5.74478 12.4212 5.85724 12.3016C6.74031 11.462 7.89895 10.9971 9.10094 11C10.3029 11.0029 11.4594 11.4734 12.3387 12.3172C12.5376 12.5081 12.7123 12.5816 12.954 12.4687C13.4891 12.2208 14.0241 11.9821 14.5512 11.7149C14.7679 11.6047 14.9623 11.4845 15.2049 11.6185C15.4474 11.7525 15.5018 11.9857 15.5009 12.2612C15.4956 13.5896 15.5009 14.9181 15.5009 16.2466C15.5009 17.6449 14.6341 18.5896 13.2768 18.7126C13.1333 18.745 13.0063 18.8306 12.9201 18.9532C12.5353 19.4741 12.0538 19.9112 11.5036 20.2392C10.9534 20.5671 10.3454 20.7792 9.71492 20.8634C9.08444 20.9475 8.44402 20.9019 7.83079 20.7292C7.21756 20.5565 6.64374 20.2602 6.14261 19.8575C5.90749 19.6653 5.68934 19.4521 5.49072 19.2203C5.37122 19.0844 5.26599 19.0496 5.12331 19.1441C4.64888 19.4581 4.16643 19.7602 3.70627 20.0971C3.49046 20.255 3.30497 20.4313 3.02049 20.3092C2.73602 20.1871 2.67627 19.9263 2.67983 19.6316C2.68251 18.8503 2.68251 18.0709 2.68251 17.2923ZM14.4281 13.0608C13.1449 13.7622 11.8134 13.7678 10.4731 13.7549C8.67169 13.7375 6.8703 13.7494 5.06891 13.7549C4.24758 13.7549 3.75443 14.2571 3.75175 15.0926C3.75175 16.1805 3.75175 17.2694 3.75175 18.3573C3.75175 18.4409 3.76424 18.5253 3.77405 18.6557C5.11885 17.7275 6.58672 17.565 8.11433 17.5962C9.80336 17.632 11.4942 17.6081 13.185 17.6026C13.8636 17.6026 14.404 17.128 14.4201 16.466C14.4451 15.3533 14.4254 14.2424 14.4254 13.0608H14.4281ZM6.56888 18.7356C8.01713 20.2504 10.548 20.0209 11.5985 18.7356H6.56888ZM7.30281 12.6229H10.8869C9.68921 11.9444 8.49423 11.9371 7.30014 12.6229H7.30281Z" fill="white"/>
<path d="M14.9631 30.2572C14.4338 30.2563 13.9166 30.0934 13.4774 29.7893C13.0381 29.4852 12.6965 29.0536 12.496 28.5492C12.2954 28.0449 12.245 27.4906 12.351 26.9567C12.4571 26.4228 12.7148 25.9333 13.0916 25.5505C13.4683 25.1677 13.947 24.9088 14.467 24.8066C14.987 24.7044 15.5247 24.7636 16.0119 24.9766C16.4991 25.1897 16.9138 25.547 17.2035 26.0031C17.4931 26.4593 17.6445 26.9938 17.6385 27.5387C17.6293 28.263 17.3434 28.9544 16.8427 29.4632C16.3419 29.972 15.6667 30.2573 14.9631 30.2572ZM14.9587 25.8604C14.6412 25.8604 14.3308 25.9574 14.0669 26.139C13.8029 26.3205 13.5971 26.5786 13.4757 26.8806C13.3542 27.1826 13.3224 27.5148 13.3843 27.8354C13.4462 28.156 13.5991 28.4504 13.8236 28.6816C14.0481 28.9127 14.3341 29.0701 14.6455 29.1338C14.9569 29.1976 15.2796 29.1649 15.5729 29.0398C15.8663 28.9147 16.117 28.7029 16.2933 28.4311C16.4697 28.1594 16.5639 27.8399 16.5639 27.513C16.5639 27.0747 16.3947 26.6544 16.0937 26.3445C15.7927 26.0346 15.3844 25.8604 14.9587 25.8604Z" fill="white"/>
</g>
<defs>
<clipPath id="clip0_1194_9800">
<rect width="31" height="33" fill="white"/>
</clipPath>
</defs>
</svg>
