<svg width="31" height="23" viewBox="0 0 31 23" fill="none" xmlns="http://www.w3.org/2000/svg">
<g clip-path="url(#clip0_1194_9805)">
<path d="M0 20.981C0.0927201 20.7355 0.206522 20.4988 0.340101 20.2734C0.489659 20.0551 0.689933 19.8772 0.923375 19.7552C1.15682 19.6333 1.4163 19.5711 1.67908 19.574C1.91072 19.574 2.14103 19.574 2.41552 19.574V5.09837C2.41552 3.99173 2.9819 3.41542 4.06781 3.41406H8.44761V4.39354H4.07986C3.53758 4.39354 3.39163 4.53829 3.39163 5.06997C3.39163 9.79055 3.39163 14.5111 3.39163 19.2317V19.5632H3.80136C12.2574 19.5632 20.7135 19.5632 29.1696 19.5632C30.1002 19.5632 30.7617 20.0583 30.9558 20.8957C31.0109 21.1372 31.0133 21.3878 30.9629 21.6303C30.9126 21.8728 30.8106 22.1013 30.6641 22.3C30.5176 22.4988 30.3301 22.6629 30.1146 22.7811C29.8991 22.8993 29.6607 22.9687 29.416 22.9846C29.2821 22.9927 29.1482 22.9846 29.0223 22.9846H2.07943C0.859623 22.9846 0.447218 22.7059 0 21.5776V20.981ZM15.5134 22.0213H29.0371C29.1481 22.0274 29.2594 22.0274 29.3705 22.0213C29.5496 22.0029 29.7156 21.9176 29.8359 21.7823C29.9563 21.6469 30.0224 21.4711 30.0214 21.2891C30.0204 21.1072 29.9523 20.9321 29.8305 20.7981C29.7087 20.6641 29.5418 20.5807 29.3624 20.5643C29.2526 20.5535 29.1415 20.5643 29.0304 20.5643H1.97633C1.87591 20.5643 1.77549 20.5643 1.67506 20.5643C1.48294 20.5652 1.29904 20.6432 1.16382 20.781C1.0286 20.9189 0.953133 21.1055 0.954021 21.2996C0.954909 21.4937 1.03208 21.6795 1.16856 21.8161C1.30503 21.9527 1.48964 22.029 1.68176 22.0281C1.78218 22.0281 1.88394 22.0281 1.98437 22.0281L15.5134 22.0213Z" fill="white"/>
<path d="M6.76758 17.6167V14.6797C6.53861 14.6797 6.31902 14.6797 6.09809 14.6797C5.77138 14.6702 5.5625 14.4673 5.5625 14.1791C5.5625 13.8909 5.7754 13.7164 6.08738 13.7042C6.22128 13.7042 6.34446 13.7042 6.45694 13.7042C6.31548 13.3755 6.19648 13.0374 6.10077 12.6923C6.02918 12.3442 6.03478 11.9844 6.11715 11.6387C6.19952 11.2931 6.35663 10.9701 6.57719 10.6931C6.79774 10.416 7.07628 10.1918 7.3928 10.0364C7.70931 9.88105 8.05596 9.79842 8.40783 9.79447C13.4009 9.7823 18.3953 9.79447 23.3883 9.79447C23.7458 9.79447 23.9627 9.98252 23.9667 10.2774C23.9708 10.5724 23.7525 10.7658 23.399 10.7726C23.1982 10.7726 22.9973 10.7726 22.7777 10.7726V13.6839C23.0107 13.7097 23.241 13.7205 23.4646 13.7638C24.0586 13.8646 24.5936 14.1865 24.9644 14.6661C25.3352 15.1456 25.5149 15.748 25.468 16.3547C25.4211 16.9614 25.1512 17.5284 24.7112 17.944C24.2713 18.3596 23.6933 18.5937 23.091 18.6002C22.7081 18.6124 22.3238 18.6002 21.9409 18.6002H6.30161C5.80351 18.6002 5.57589 18.4501 5.57053 18.1173C5.56518 17.7845 5.79816 17.6221 6.28823 17.6208L6.76758 17.6167ZM7.76378 15.6388H19.3513V14.6918H7.76378V15.6388ZM7.76378 17.5964H19.3526V16.6494H7.76378V17.5964ZM11.1259 10.7645C10.2596 10.7645 9.4067 10.7645 8.55377 10.7645C7.67808 10.7645 7.026 11.3936 7.02466 12.2283C7.02333 13.063 7.67407 13.6948 8.54708 13.6988C9.33172 13.6988 10.1177 13.6988 10.9037 13.6988C10.9781 13.6958 11.0523 13.6886 11.1259 13.6772V10.7645ZM20.3502 17.6167C21.2486 17.6167 22.1149 17.6167 22.9799 17.6167C23.3649 17.6153 23.7335 17.4594 24.0047 17.1834C24.2759 16.9073 24.4274 16.5337 24.426 16.1448C24.4246 15.7559 24.2703 15.3834 23.9971 15.1094C23.7239 14.8354 23.3542 14.6823 22.9692 14.6837C22.1658 14.677 21.3624 14.6837 20.5524 14.6837C20.4867 14.6837 20.4185 14.6986 20.3502 14.7067V17.6167ZM12.1208 10.778V11.725H21.7695V10.778H12.1208ZM21.7802 12.7478H12.1262V13.6826H21.7855L21.7802 12.7478Z" fill="white"/>
<path d="M10.4128 3.7892C10.4128 4.24376 10.4007 4.66991 10.4235 5.09335C10.4235 5.17588 10.5574 5.27058 10.6471 5.32605C10.8967 5.47358 11.0982 5.69166 11.2266 5.95344C11.3551 6.21522 11.405 6.50925 11.3701 6.79931C11.3291 7.08799 11.2041 7.35784 11.011 7.57462C10.8179 7.7914 10.5654 7.94533 10.2855 8.01689C9.94063 8.11396 9.57233 8.07817 9.25205 7.91646C8.93177 7.75475 8.68233 7.47864 8.55209 7.14166C8.42186 6.80469 8.4201 6.43085 8.54717 6.09264C8.67423 5.75443 8.92106 5.47594 9.23981 5.31116C9.30777 5.28441 9.36501 5.23562 9.40257 5.17246C9.44013 5.10929 9.45588 5.03531 9.44735 4.96213C9.43797 4.38175 9.44735 3.80002 9.44735 3.21964C9.44735 2.8449 9.54509 2.71502 9.90394 2.60274C11.8455 1.99395 13.7883 1.38787 15.7325 0.784489C15.8945 0.738504 16.0659 0.738504 16.2279 0.784489C18.1842 1.38516 20.1351 2.00206 22.0886 2.60679C22.3337 2.68255 22.5117 2.81378 22.5211 3.08571C22.5305 3.35763 22.3497 3.52133 22.0953 3.60521C21.5316 3.7892 20.9706 3.99077 20.4029 4.16394C20.3568 4.17016 20.3124 4.18573 20.2724 4.20971C20.2324 4.2337 20.1975 4.26559 20.17 4.30349C20.1425 4.34139 20.1229 4.38452 20.1123 4.43028C20.1017 4.47604 20.1003 4.52349 20.1083 4.5698C20.123 5.53709 20.1016 6.50574 20.1217 7.47304C20.1297 7.85184 19.9757 8.05612 19.645 8.19005C18.7289 8.5444 17.7612 8.74369 16.7809 8.7799C15.3308 8.86243 13.8981 8.76367 12.5163 8.26311C11.9044 8.04124 11.8562 7.96683 11.8562 7.3161C11.8562 6.38804 11.8562 5.46133 11.8562 4.53327C11.8562 4.33981 11.8066 4.24105 11.6138 4.18558C11.2228 4.06924 10.8426 3.92989 10.4128 3.7892ZM12.8229 4.59415C12.8229 5.49651 12.8229 6.34205 12.8309 7.18623C12.8437 7.23414 12.8679 7.27811 12.9016 7.31423C12.9352 7.35035 12.9772 7.37749 13.0238 7.39322C13.6932 7.53798 14.3627 7.71926 15.0322 7.78555C16.3296 7.93218 17.643 7.80362 18.8885 7.4081C18.9822 7.37698 19.1215 7.27282 19.1228 7.19976C19.1389 6.34611 19.1335 5.49245 19.1335 4.59956C18.3033 4.87013 17.5 5.11094 16.7234 5.41128C16.2492 5.60941 15.7166 5.60941 15.2424 5.41128C14.4712 5.11094 13.6678 4.87554 12.8256 4.59415H12.8229ZM11.6178 3.09788V3.16012C13.0224 3.62956 14.4297 4.10712 15.8329 4.56303C15.9587 4.59161 16.09 4.5822 16.2105 4.53598C16.9577 4.29517 17.7021 4.04353 18.448 3.79461L20.3734 3.14659C20.3416 3.11676 20.306 3.09129 20.2676 3.07083C18.8925 2.63926 17.5174 2.20635 16.1396 1.78561C16.0137 1.75709 15.8825 1.76458 15.7606 1.80725C14.7095 2.12653 13.6611 2.45663 12.6127 2.78267L11.6178 3.09788ZM10.4128 6.60044C10.4122 6.50383 10.3832 6.40957 10.3295 6.32965C10.2758 6.24972 10.1998 6.18774 10.1111 6.15159C10.0224 6.11544 9.92512 6.10675 9.83155 6.12663C9.73798 6.14651 9.65237 6.19405 9.58562 6.26322C9.51886 6.33239 9.47397 6.42005 9.45666 6.51506C9.43935 6.61008 9.4504 6.70814 9.4884 6.7968C9.5264 6.88545 9.58964 6.96068 9.67007 7.01292C9.7505 7.06516 9.84449 7.09205 9.94009 7.09018C10.066 7.08597 10.1853 7.03257 10.273 6.94121C10.3606 6.84986 10.4098 6.72769 10.4101 6.60044H10.4128Z" fill="white"/>
<path d="M26.4011 10.6197C26.4011 8.49978 26.4011 6.3785 26.4011 4.26127C26.4032 3.98747 26.4484 3.71576 26.535 3.45631C26.8738 2.45384 27.2393 1.4622 27.5874 0.463783C27.6745 0.213504 27.795 0.0119279 28.0842 0.00786936C28.3734 0.00381077 28.5113 0.217563 28.6024 0.477313C28.9505 1.47572 29.3147 2.46737 29.6535 3.46849C29.7394 3.71833 29.7846 3.98057 29.7874 4.24503C29.7954 8.49753 29.7954 12.7491 29.7874 16.9998C29.7874 17.9996 29.1915 18.6057 28.2061 18.5989C27.9248 18.6094 27.6436 18.5798 27.3705 18.511C26.768 18.327 26.3984 17.7601 26.3984 17.0783C26.3984 14.9236 26.3993 12.7708 26.4011 10.6197ZM27.3866 4.63466V14.5403H28.8126V4.63466H27.3866ZM28.822 15.5617H27.3705C27.3705 16.0907 27.3705 16.598 27.3705 17.104C27.3705 17.426 27.562 17.6045 27.8834 17.6181C28.0341 17.6269 28.1852 17.6269 28.3359 17.6181C28.3994 17.6196 28.4625 17.608 28.5214 17.5841C28.5803 17.5602 28.6338 17.5245 28.6787 17.479C28.7235 17.4336 28.7587 17.3795 28.7822 17.3199C28.8057 17.2603 28.8169 17.1965 28.8153 17.1324C28.83 16.6156 28.822 16.0975 28.822 15.5617ZM28.6881 3.6173C28.4926 3.06669 28.3105 2.55125 28.1271 2.03716L28.0601 2.04934C27.8807 2.56207 27.6999 3.07481 27.5098 3.6173H28.6881Z" fill="white"/>
<path d="M25.4737 3.42969C25.4536 3.75708 25.4349 4.05877 25.4148 4.37669H22.8828L23.5402 3.42969H25.4737Z" fill="white"/>
</g>
<defs>
<clipPath id="clip0_1194_9805">
<rect width="31" height="23" fill="white"/>
</clipPath>
</defs>
</svg>
