<svg width="31" height="31" viewBox="0 0 31 31" fill="none" xmlns="http://www.w3.org/2000/svg">
<g clip-path="url(#clip0_1194_9777)">
<path d="M15.5164 30.9991H3.05168C1.19496 30.9991 0 29.8076 0 27.9561C0 19.6457 0 11.3359 0 3.02666C0 1.19582 1.20014 0 3.03529 0C11.3451 0 19.6546 0 27.9638 0C29.7981 0 30.9991 1.19669 30.9991 3.02666C30.9991 11.3468 30.9991 19.667 30.9991 27.9871C30.9991 29.799 29.7912 30.9983 27.9794 30.9991H15.5164ZM1.03276 6.21122V6.56582C1.03276 13.6982 1.03276 20.8329 1.03276 27.9699C1.03276 29.2339 1.76958 29.9647 3.04133 29.9655H27.9647C29.2313 29.9655 29.9664 29.2296 29.9664 27.9613V6.21122H1.03276ZM29.9664 5.15603V4.74448C29.9664 4.15346 29.9664 3.56159 29.9664 2.96972C29.9664 1.79029 29.2071 1.03621 28.0251 1.03621H2.97662C2.91278 1.03621 2.84807 1.03621 2.78336 1.03621C2.38781 1.04834 2.00735 1.19087 1.7012 1.44162C1.39505 1.69238 1.18037 2.0373 1.09057 2.42271C1.05494 2.57957 1.03642 2.73984 1.03535 2.9007C1.03017 3.6496 1.03535 4.3985 1.03535 5.15775L29.9664 5.15603Z" fill="white"/>
<path d="M15.5016 8.26562H27.1578C27.7514 8.26562 27.9007 8.41575 27.9016 9.00848V27.1555C27.9016 27.7483 27.7506 27.8984 27.1578 27.8984H3.84356C3.25083 27.8984 3.10156 27.7491 3.10156 27.1555V9.00762C3.10156 8.41402 3.24996 8.26562 3.84443 8.26562H15.5016ZM4.14985 26.8432H26.8412V9.3165H4.14985V26.8432Z" fill="white"/>
<path d="M15.4931 4.65296C14.3427 4.65296 13.1923 4.65296 12.0419 4.65296C11.5536 4.65296 11.3767 4.4804 11.375 3.99724C11.375 3.39502 11.375 2.7925 11.375 2.1897C11.375 1.74278 11.5588 1.55555 11.9979 1.55469C14.3338 1.55469 16.6694 1.55469 19.0046 1.55469C19.4498 1.55469 19.6371 1.73846 19.6397 2.17676C19.6437 2.79049 19.6437 3.40422 19.6397 4.01795C19.6397 4.47436 19.4542 4.6521 18.9848 4.65296C17.8174 4.65469 16.6553 4.65296 15.4931 4.65296ZM12.4233 2.5909V3.59691H18.581V2.5909H12.4233Z" fill="white"/>
<path d="M4.6589 1.55469C4.9644 1.55657 5.26251 1.64881 5.51569 1.8198C5.76887 1.99078 5.96579 2.23287 6.08164 2.51556C6.19749 2.79825 6.22709 3.1089 6.16672 3.40838C6.10634 3.70787 5.95869 3.98279 5.74237 4.19852C5.52604 4.41424 5.25071 4.56113 4.95106 4.62067C4.65141 4.68021 4.34084 4.64975 4.05848 4.53311C3.77611 4.41648 3.53457 4.21889 3.36429 3.96524C3.194 3.71159 3.10259 3.41322 3.10156 3.10771C3.10156 2.9034 3.14187 2.7011 3.22019 2.5124C3.29851 2.3237 3.41329 2.1523 3.55795 2.00803C3.70262 1.86377 3.87434 1.74946 4.06326 1.67167C4.25217 1.59388 4.45459 1.55413 4.6589 1.55469ZM5.16363 3.08959C5.16164 2.98667 5.129 2.88667 5.06989 2.80238C5.01079 2.71809 4.92789 2.65334 4.8318 2.6164C4.7357 2.57946 4.63078 2.57202 4.53043 2.59501C4.43008 2.618 4.33887 2.67039 4.26845 2.74549C4.19802 2.82058 4.15159 2.91496 4.13508 3.01658C4.11857 3.11819 4.13273 3.22242 4.17575 3.31595C4.21878 3.40948 4.28871 3.48805 4.37661 3.54164C4.46452 3.59522 4.5664 3.62137 4.66925 3.61676C4.80428 3.61071 4.93158 3.55208 5.02396 3.45342C5.11634 3.35475 5.16647 3.22386 5.16363 3.08873V3.08959Z" fill="white"/>
<path d="M8.77186 4.65034C8.46639 4.64829 8.16836 4.55591 7.9153 4.38482C7.66224 4.21373 7.46545 3.97159 7.34973 3.68888C7.23402 3.40618 7.20454 3.09555 7.26501 2.79613C7.32548 2.4967 7.47319 2.22186 7.68955 2.00622C7.90591 1.79058 8.18124 1.64378 8.48086 1.58431C8.78049 1.52483 9.09102 1.55535 9.37334 1.67201C9.65565 1.78866 9.89714 1.98625 10.0674 2.23988C10.2376 2.49352 10.329 2.79185 10.3301 3.09732C10.3301 3.3017 10.2897 3.50407 10.2113 3.69283C10.133 3.88159 10.0181 4.05303 9.87335 4.19731C9.72859 4.34158 9.55678 4.45587 9.36776 4.53361C9.17874 4.61135 8.97624 4.65102 8.77186 4.65034ZM8.78911 3.61499C8.8921 3.61389 8.99242 3.58209 9.07723 3.52366C9.16205 3.46523 9.22751 3.38283 9.26524 3.287C9.30297 3.19116 9.31126 3.08625 9.28904 2.98568C9.26683 2.88512 9.21512 2.79346 9.14053 2.72244C9.06594 2.65142 8.97185 2.60426 8.87032 2.587C8.76878 2.56974 8.6644 2.58316 8.57053 2.62554C8.47667 2.66792 8.39757 2.73734 8.34337 2.82491C8.28917 2.91249 8.26232 3.01425 8.26626 3.11716C8.27098 3.2522 8.32831 3.38003 8.426 3.47337C8.52369 3.56671 8.65401 3.61815 8.78911 3.61672V3.61499Z" fill="white"/>
<path d="M23.7615 3.09999C23.7606 3.40684 23.6686 3.70652 23.4971 3.96099C23.3257 4.21546 23.0825 4.41327 22.7984 4.5293C22.5143 4.64533 22.2022 4.67436 21.9016 4.6127C21.601 4.55105 21.3255 4.40149 21.11 4.183C20.8946 3.96451 20.7489 3.68694 20.6914 3.38551C20.634 3.08409 20.6674 2.77239 20.7874 2.48997C20.9074 2.20755 21.1086 1.96715 21.3654 1.79925C21.6223 1.63136 21.9232 1.54355 22.23 1.54697C22.6382 1.55264 23.0277 1.71876 23.3143 2.0094C23.6009 2.30003 23.7615 2.69181 23.7615 3.09999ZM22.7261 3.09999C22.727 2.99699 22.6971 2.89608 22.6402 2.81017C22.5834 2.72426 22.5022 2.65726 22.4071 2.61773C22.312 2.57821 22.2072 2.56796 22.1063 2.5883C22.0053 2.60864 21.9127 2.65864 21.8403 2.7319C21.7679 2.80517 21.719 2.89837 21.6998 2.99958C21.6807 3.10079 21.6922 3.20541 21.7328 3.30006C21.7735 3.39471 21.8414 3.47508 21.928 3.53088C22.0146 3.58669 22.1158 3.61541 22.2188 3.61335C22.3536 3.61089 22.482 3.55597 22.5769 3.46026C22.6718 3.36456 22.7257 3.23562 22.727 3.10085L22.7261 3.09999Z" fill="white"/>
<path d="M27.8943 3.09483C27.896 3.40208 27.8062 3.70289 27.6365 3.959C27.4667 4.21511 27.2246 4.41494 26.941 4.53307C26.6574 4.6512 26.345 4.68228 26.0436 4.62238C25.7423 4.56247 25.4655 4.41428 25.2486 4.19665C25.0317 3.97902 24.8845 3.70179 24.8256 3.40023C24.7667 3.09867 24.7988 2.78641 24.9179 2.50317C25.037 2.21993 25.2376 1.97851 25.4943 1.80962C25.751 1.64073 26.0521 1.55201 26.3594 1.55475C26.7659 1.55948 27.1543 1.72342 27.4413 2.01136C27.7283 2.29931 27.8909 2.68831 27.8943 3.09483ZM26.3412 2.5901C26.2381 2.59015 26.1374 2.621 26.0519 2.67868C25.9665 2.73636 25.9002 2.81826 25.8616 2.91386C25.8229 3.00946 25.8137 3.11442 25.8351 3.21528C25.8566 3.31614 25.9076 3.40831 25.9817 3.47997C26.0559 3.55163 26.1497 3.59952 26.2512 3.61751C26.3528 3.63549 26.4574 3.62274 26.5516 3.5809C26.6458 3.53906 26.7254 3.47004 26.7802 3.38267C26.8349 3.2953 26.8624 3.19356 26.8589 3.09051C26.8544 2.95623 26.7979 2.82895 26.7013 2.73557C26.6047 2.64219 26.4756 2.59002 26.3412 2.5901Z" fill="white"/>
<path d="M9.30158 12.3872H21.7016C21.7016 11.9256 21.7016 11.4674 21.7016 11.0067C21.7016 10.502 21.8741 10.3329 22.3815 10.332C22.9854 10.332 23.5894 10.3277 24.1881 10.332C24.61 10.332 24.7921 10.5227 24.7999 10.9446C24.8076 11.3665 24.8093 11.8074 24.7999 12.2388C24.7909 12.3107 24.806 12.3836 24.8428 12.4461C24.8796 12.5085 24.9362 12.557 25.0035 12.5839C25.3142 12.7396 25.5617 12.9978 25.7039 13.3149C25.8462 13.632 25.8746 13.9885 25.7843 14.3241C25.7041 14.6628 25.5106 14.9638 25.2358 15.1774C24.961 15.391 24.6215 15.5042 24.2736 15.4984C18.4313 15.5018 12.5891 15.5018 6.74686 15.4984C6.39373 15.5069 6.04856 15.3928 5.77001 15.1756C5.49145 14.9584 5.29671 14.6514 5.21887 14.3069C5.13401 13.9755 5.16471 13.6252 5.30589 13.3136C5.44707 13.0021 5.69029 12.748 5.99538 12.5934C6.16793 12.5011 6.2128 12.3975 6.20935 12.2189C6.19899 11.7875 6.20158 11.3561 6.20935 10.9247C6.21539 10.5235 6.40434 10.3355 6.80812 10.332C7.44084 10.3268 8.07556 10.3268 8.7123 10.332C9.1135 10.332 9.30245 10.5261 9.30676 10.9291C9.30503 11.4053 9.30158 11.8781 9.30158 12.3872ZM15.4731 14.4674H24.0302C24.1376 14.4736 24.2452 14.4707 24.3521 14.4587C24.6299 14.4078 24.799 14.2353 24.7981 13.9505C24.7973 13.6658 24.6307 13.4933 24.3521 13.4424C24.2559 13.4304 24.1589 13.4275 24.0622 13.4337H6.94444C6.84775 13.4275 6.7507 13.4304 6.65455 13.4424C6.37587 13.4933 6.20848 13.6641 6.20848 13.9505C6.20848 14.237 6.37673 14.4078 6.65455 14.4587C6.76138 14.4707 6.86904 14.4736 6.97637 14.4674H15.4731ZM7.25591 11.3812V12.3803H8.24984V11.3812H7.25591ZM23.7481 12.3872V11.3829H22.7533V12.3872H23.7481Z" fill="white"/>
<path d="M15.4722 25.8334H11.0806C10.9839 25.8395 10.8869 25.8369 10.7907 25.8257C10.5137 25.773 10.3446 25.6031 10.3438 25.3175C10.3429 25.0319 10.5111 24.8593 10.789 24.8084C10.8961 24.7963 11.0041 24.7937 11.1116 24.8007H19.8905C19.9978 24.7937 20.1055 24.7963 20.2123 24.8084C20.491 24.8585 20.6593 25.0302 20.6601 25.3158C20.661 25.6013 20.4919 25.7722 20.2149 25.8248C20.1188 25.8368 20.0217 25.8396 19.925 25.8334H15.4722Z" fill="white"/>
<path d="M11.4298 20.1415C11.431 19.6629 11.6163 19.2031 11.9475 18.8576C12.1658 18.6152 12.334 18.3624 12.3539 18.0095C12.3685 17.7334 12.5791 17.5781 12.8646 17.5781C13.1321 17.5781 13.3935 17.7938 13.3538 18.0656C13.2891 18.4295 13.1858 18.7856 13.0458 19.1277C12.9923 19.2709 12.8551 19.3865 12.7525 19.5082C12.3573 19.9853 12.378 20.3089 12.7387 20.8024C12.9794 21.1328 13.1519 21.5159 13.3323 21.886C13.3756 22.008 13.3857 22.1393 13.3616 22.2665C13.3271 22.5469 13.1563 22.7195 12.8733 22.7316C12.5903 22.7436 12.3703 22.5823 12.3556 22.3071C12.3366 21.9404 12.1554 21.6833 11.932 21.4322C11.6041 21.083 11.4242 20.6204 11.4298 20.1415Z" fill="white"/>
<path d="M14.5314 20.1656C14.5245 19.6877 14.7029 19.2257 15.0293 18.8766C15.2545 18.6255 15.4339 18.3675 15.4538 18.0017C15.4684 17.7256 15.6841 17.5703 15.9714 17.5703C16.2389 17.5703 16.4977 17.7929 16.4537 18.0647C16.3825 18.4378 16.2717 18.8022 16.1233 19.1518C16.0638 19.3045 15.9145 19.4219 15.8067 19.5547C15.4719 19.9689 15.4667 20.3312 15.8118 20.7454C16.0974 21.0845 16.3744 21.4253 16.4391 21.8834C16.459 21.9996 16.4674 22.1175 16.4641 22.2354C16.4612 22.3661 16.4077 22.4905 16.3148 22.5824C16.2219 22.6743 16.0969 22.7265 15.9663 22.7281C15.6807 22.7281 15.4693 22.5702 15.4538 22.2967C15.4339 21.9438 15.2674 21.6927 15.0483 21.4477C14.718 21.1024 14.533 20.6434 14.5314 20.1656Z" fill="white"/>
<path d="M19.5628 18.1929C19.5404 18.6519 19.3454 19.0341 19.0546 19.3827C18.5068 20.0384 18.5068 20.2662 19.0503 20.9158C19.3488 21.273 19.5507 21.6639 19.5628 22.1367C19.5723 22.4818 19.3713 22.7208 19.0693 22.7329C18.7811 22.7441 18.6042 22.531 18.5231 22.21C18.4626 21.9542 18.3462 21.715 18.1823 21.5094C17.719 20.9633 17.4921 20.3576 17.7061 19.6657C17.8079 19.3404 18.0564 19.0617 18.2238 18.7554C18.3385 18.5449 18.4705 18.3301 18.5231 18.1014C18.5999 17.7624 18.7949 17.5458 19.0934 17.5725C19.392 17.5993 19.5749 17.8391 19.5628 18.1929Z" fill="white"/>
<path d="M22.4505 25.8318C22.3643 25.8365 22.2779 25.8365 22.1917 25.8318C22.0616 25.8244 21.939 25.7683 21.8485 25.6746C21.758 25.5809 21.7061 25.4565 21.7033 25.3262C21.6997 25.1952 21.7472 25.0679 21.8358 24.9713C21.9244 24.8747 22.047 24.8163 22.1778 24.8085C22.3711 24.793 22.5653 24.793 22.7585 24.8085C22.8892 24.8132 23.0129 24.8681 23.1041 24.9618C23.1952 25.0555 23.2467 25.1808 23.2477 25.3115C23.2481 25.4418 23.1994 25.5675 23.1113 25.6634C23.0232 25.7594 22.9022 25.8186 22.7723 25.8292C22.6652 25.8357 22.5577 25.8365 22.4505 25.8318Z" fill="white"/>
</g>
<defs>
<clipPath id="clip0_1194_9777">
<rect width="31" height="31" fill="white"/>
</clipPath>
</defs>
</svg>
