<svg width="107" height="107" viewBox="0 0 107 107" fill="none" xmlns="http://www.w3.org/2000/svg">
<circle cx="53.1157" cy="53.1157" r="53.1157" fill="#ED1D24"/>
<g clip-path="url(#clip0_1564_424)">
<path d="M55.1797 20.1172C56.3875 20.2848 57.6044 20.4046 58.7994 20.6328C60.1245 20.8906 61.4381 21.2142 62.74 21.5674C63.8319 21.8613 64.3436 22.7623 64.0446 23.7124C63.7597 24.6147 62.8509 25.0375 61.7861 24.7114C58.517 23.7003 55.094 23.2795 51.6773 23.4688C43.805 23.9083 37.0838 26.9389 31.6246 32.6211C26.8551 37.5969 23.9973 43.5781 23.5461 50.4424C22.7314 62.8818 27.7265 72.4957 38.4438 78.9178C44.3567 82.4614 50.8923 83.6396 57.6792 82.4601C68.7651 80.533 76.5382 74.272 80.7843 63.8461C83.3496 57.5477 83.4823 51.0482 81.5333 44.5359C81.0911 43.0625 82.0695 42.0777 83.0802 42.1266C83.8149 42.1627 84.3692 42.5727 84.627 43.3654C85.3508 45.6821 85.8113 48.0729 85.9999 50.4927C86.0205 50.7672 86.0785 51.0379 86.1185 51.3112V54.9206C86.0824 55.1075 86.0386 55.2931 86.0115 55.4813C85.7923 57.0089 85.6518 58.5519 85.3463 60.0601C82.7244 73.0087 71.8498 83.4617 58.7994 85.6093C57.5967 85.8078 56.3862 85.9496 55.1797 86.1172H51.0547C50.9129 86.0811 50.7724 86.0334 50.6267 86.0115C49.1018 85.7859 47.5588 85.6454 46.0518 85.3296C33.1251 82.6225 22.7997 71.8395 20.6238 58.8032C20.424 57.6005 20.2848 56.3875 20.1172 55.1797V51.0547C20.1559 50.8678 20.201 50.6809 20.2306 50.4927C20.4962 48.8169 20.656 47.1256 21.0376 45.4821C24.0024 32.7268 34.5882 22.7714 47.4324 20.6225C48.6351 20.4227 49.8468 20.2848 51.0547 20.1172H55.1797Z" fill="white"/>
<path d="M53.2548 76.1526C42.0232 76.0443 32.4183 67.9245 30.5389 56.8398C28.3707 44.0601 37.1879 32.006 50.0527 30.2258C51.5107 30.0247 53.0073 30.066 54.4858 30.066C55.4191 30.066 56.0533 30.5816 56.2815 31.3628C56.6063 32.4662 55.753 33.4704 54.5412 33.366C50.772 33.0386 47.2426 33.8623 43.9232 35.6115C36.8463 39.3395 32.7329 47.1615 33.6223 55.1383C34.6252 64.1462 41.4431 71.1974 50.451 72.547C61.0961 74.1403 71.2359 66.5619 72.7144 55.8601C72.9014 54.5118 72.8666 53.1247 72.8433 51.757C72.8305 50.7258 73.3667 49.9524 74.3258 49.8363C75.2552 49.7294 76.1305 50.3868 76.1305 51.4219C76.1305 53.3039 76.2168 55.2375 75.8353 57.0603C73.796 66.8172 67.8714 72.9699 58.2151 75.4513C56.6076 75.8638 54.9099 75.9347 53.2548 76.1526Z" fill="white"/>
<path d="M63.0807 37.7363C63.0807 36.8997 63.091 36.0606 63.0807 35.224C63.0693 34.9132 63.1248 34.6036 63.2433 34.316C63.3619 34.0285 63.5407 33.7697 63.7677 33.5572C66.9354 30.4067 70.0944 27.2481 73.2449 24.0813C73.8134 23.509 74.4502 23.246 75.2198 23.5489C75.9893 23.8519 76.251 24.5119 76.2407 25.3124C76.2278 26.6014 76.2407 27.8905 76.2407 29.1796C76.2407 29.9968 76.2407 29.9968 77.0915 29.9981C78.3805 29.9981 79.6696 30.0071 80.9587 29.9981C81.7321 29.9904 82.365 30.2404 82.6757 30.992C82.9864 31.7435 82.7479 32.4022 82.1755 32.9733C78.9959 36.1418 75.8226 39.3163 72.6558 42.4969C72.4467 42.714 72.194 42.8843 71.9142 42.9965C71.6344 43.1087 71.3341 43.1603 71.0329 43.1478C69.379 43.1375 67.7251 43.1607 66.0726 43.1349C65.862 43.1233 65.6515 43.1589 65.4563 43.2389C65.2612 43.319 65.0864 43.4415 64.9446 43.5977C61.5544 47.0112 58.1547 50.4147 54.7456 53.8084C54.569 53.996 54.379 54.1705 54.1771 54.3304C53.8615 54.5687 53.4699 54.6838 53.0755 54.6542C52.6812 54.6246 52.3111 54.4525 52.0345 54.1699C51.7579 53.8873 51.5937 53.5136 51.5726 53.1187C51.5515 52.7238 51.675 52.3348 51.92 52.0243C52.0838 51.8254 52.2599 51.6368 52.4472 51.4597C55.8168 48.0875 59.1903 44.7183 62.5676 41.3522C62.9298 40.9925 63.1193 40.6419 63.091 40.1198C63.0484 39.3283 63.0807 38.5317 63.0807 37.7363ZM72.9665 29.1641C72.8376 29.2092 72.7899 29.2131 72.7654 29.2376C70.7106 31.2846 68.6593 33.3338 66.6114 35.3851C66.501 35.4826 66.4273 35.615 66.4026 35.7602C66.3871 37.106 66.3935 38.4505 66.3935 39.8465C67.6903 39.8465 68.9111 39.871 70.1318 39.8285C70.4594 39.808 70.77 39.6761 71.0123 39.4547C72.9304 37.5752 74.8214 35.67 76.7176 33.7686C76.8466 33.6397 76.9497 33.4966 77.0644 33.3613C77 33.311 76.9845 33.2891 76.969 33.2891C76.2394 33.2826 75.5098 33.2813 74.7776 33.2697C73.6265 33.253 72.9819 32.6149 72.9729 31.4754C72.9523 30.7277 72.9665 29.9775 72.9665 29.1641Z" fill="white"/>
<path d="M53.2178 66.147C46.3974 66.147 40.6791 60.9005 40.1196 54.1432C39.8358 50.8776 40.7836 47.6239 42.7768 45.0216C44.7699 42.4192 47.6643 40.6564 50.8911 40.0796C51.6096 39.9531 52.3364 39.8798 53.0657 39.8604C54.0841 39.8295 54.8034 40.4818 54.8614 41.4073C54.9194 42.3329 54.231 43.0096 53.1856 43.1643C51.9842 43.3409 50.7364 43.4414 49.6123 43.8655C45.3494 45.4756 42.9234 49.7011 43.4545 54.3611C43.9314 58.5389 47.4286 62.0955 51.7135 62.7632C57.5001 63.6655 62.8136 59.3137 63.0675 53.4704C63.1281 52.082 63.7482 51.3292 64.7949 51.3718C65.8712 51.4169 66.4462 52.2496 66.3727 53.6534C66.2045 57.027 64.7444 60.2064 62.2952 62.5325C59.846 64.8585 56.5956 66.1528 53.2178 66.147Z" fill="white"/>
</g>
<defs>
<clipPath id="clip0_1564_424">
<rect width="66" height="66" fill="white" transform="translate(20.1172 20.1172)"/>
</clipPath>
</defs>
</svg>
