<svg width="107" height="107" viewBox="0 0 107 107" fill="none" xmlns="http://www.w3.org/2000/svg">
<circle cx="53.1157" cy="53.1157" r="53.1157" fill="#ED1D24"/>
<g clip-path="url(#clip0_1564_424)">
<path d="M53.0933 72.5092C39.0211 72.0637 28.0448 66.1301 20.4764 54.1293C20.2484 53.8271 20.125 53.4588 20.125 53.0802C20.125 52.7017 20.2484 52.3334 20.4764 52.0312C26.9579 41.6519 36.2102 35.3218 48.3758 34.0121C64.4437 32.2837 77.0013 38.4133 85.7948 52.0668C86.017 52.3579 86.1373 52.714 86.1373 53.0802C86.1373 53.4465 86.017 53.8025 85.7948 54.0937C79.4781 64.2324 70.4441 70.2551 58.6215 72.086C57.9177 72.1973 57.2094 72.2864 56.4966 72.3399C55.3562 72.4334 54.2248 72.4334 53.0933 72.5092ZM53.6323 70.2061C55.2404 70.0324 57.3608 69.9388 59.4233 69.5602C69.7002 67.6981 77.6473 62.3036 83.3358 53.5636C83.4555 53.4284 83.5215 53.2541 83.5215 53.0736C83.5215 52.893 83.4555 52.7187 83.3358 52.5835C82.2133 51.0912 81.2199 49.4876 79.9726 48.1066C71.5088 38.7519 60.88 34.8407 48.4159 36.3597C37.453 37.6961 28.9892 43.2644 22.922 52.49C22.7804 52.6523 22.7023 52.8604 22.7023 53.0758C22.7023 53.2912 22.7804 53.4993 22.922 53.6616C30.1073 64.4596 40.2684 69.7874 53.6323 70.2061Z" fill="white"/>
<path d="M53.1019 67.2144C50.2966 67.2125 47.5549 66.3778 45.2246 64.816C42.8942 63.2542 41.0801 61.0356 40.0121 58.4416C38.9441 55.8475 38.6703 52.9948 39.2255 50.2449C39.7808 47.4951 41.1399 44.9721 43.1308 42.9956C45.1216 41.0192 47.6545 39.6783 50.4082 39.1431C53.162 38.6078 56.0127 38.9022 58.599 39.989C61.1852 41.0758 63.3905 42.906 64.9354 45.2477C66.4803 47.5893 67.2951 50.3369 67.2765 53.1421C67.2577 56.8863 65.755 60.4701 63.0978 63.1081C60.4407 65.746 56.846 67.2227 53.1019 67.2144ZM53.1241 64.8578C55.4576 64.8543 57.7376 64.1593 59.6763 62.8607C61.6149 61.562 63.1252 59.7179 64.0164 57.5613C64.9075 55.4047 65.1395 53.0324 64.6831 50.744C64.2267 48.4557 63.1023 46.3539 61.452 44.7042C59.8017 43.0545 57.6995 41.931 55.411 41.4754C53.1224 41.0198 50.7502 41.2527 48.594 42.1447C46.4377 43.0366 44.5942 44.5476 43.2962 46.4868C41.9983 48.4259 41.3042 50.7062 41.3015 53.0397C41.2997 54.5925 41.6044 56.1305 42.198 57.5654C42.7915 59.0003 43.6624 60.3041 44.7606 61.4019C45.8589 62.4997 47.1629 63.3701 48.5981 63.9631C50.0332 64.5561 51.5713 64.8602 53.1241 64.8578Z" fill="white"/>
<path d="M53.1091 60.1345C51.7047 60.1335 50.3322 59.715 49.1662 58.9322C48.0002 58.1494 47.0932 57.0376 46.5605 55.7381C46.0278 54.4386 45.8935 53.01 46.1746 51.634C46.4557 50.258 47.1395 48.9966 48.1392 48.0101C49.1388 47.0237 50.4092 46.3566 51.7888 46.0938C53.1685 45.8311 54.5951 45.9844 55.8874 46.5343C57.1797 47.0842 58.2794 48.0058 59.0466 49.1822C59.8139 50.3585 60.2141 51.7364 60.1965 53.1407C60.1777 55.006 59.422 56.7881 58.0942 58.0983C56.7665 59.4085 54.9745 60.1405 53.1091 60.1345ZM53.0824 57.7736C54.0161 57.7788 54.9304 57.5072 55.7097 56.9929C56.489 56.4786 57.0984 55.7449 57.4608 54.8843C57.8232 54.0238 57.9223 53.0752 57.7457 52.1583C57.569 51.2415 57.1245 50.3976 56.4683 49.7333C55.8122 49.0691 54.9738 48.6142 54.0592 48.4264C53.1445 48.2385 52.1948 48.326 51.3299 48.6778C50.465 49.0296 49.7238 49.6299 49.2 50.4029C48.6762 51.1759 48.3934 52.0868 48.3872 53.0205C48.3819 53.6413 48.4993 54.257 48.7327 54.8322C48.9661 55.4075 49.3108 55.931 49.7471 56.3727C50.1834 56.8144 50.7026 57.1655 51.275 57.4059C51.8474 57.6463 52.4616 57.7712 53.0824 57.7736Z" fill="white"/>
</g>
<defs>
<clipPath id="clip0_1564_424">
<rect width="66" height="38.7821" fill="white" transform="translate(20.1172 33.7266)"/>
</clipPath>
</defs>
</svg>
