<svg width="61" height="61" viewBox="0 0 61 61" fill="none" xmlns="http://www.w3.org/2000/svg">
<circle cx="30.1656" cy="30.1656" r="30.1656" fill="#ED1D24"/>
<path d="M40.9074 17.9307C40.4577 17.6808 39.9632 17.5219 39.4522 17.4632C38.9411 17.4044 38.4235 17.4468 37.9288 17.5881C37.4342 17.7294 36.9722 17.9668 36.5693 18.2867C36.1664 18.6065 35.8305 19.0026 35.5807 19.4524L28.3094 32.5379L24.1479 28.3765C23.7866 28.0024 23.3545 27.704 22.8766 27.4987C22.3988 27.2935 21.8848 27.1854 21.3648 27.1809C20.8447 27.1764 20.329 27.2755 19.8476 27.4724C19.3663 27.6694 18.929 27.9602 18.5612 28.3279C18.1935 28.6957 17.9027 29.133 17.7057 29.6143C17.5088 30.0957 17.4097 30.6114 17.4142 31.1315C17.4187 31.6515 17.5268 32.1655 17.732 32.6433C17.9373 33.1212 18.2357 33.5533 18.6098 33.9146L26.4431 41.748C27.1834 42.4902 28.1821 42.8975 29.2122 42.8975L29.7547 42.8584C30.355 42.7744 30.9276 42.5522 31.4275 42.2093C31.9274 41.8664 32.3408 41.4122 32.6354 40.8824L42.427 23.2574C42.677 22.8079 42.836 22.3135 42.8949 21.8025C42.9539 21.2915 42.9116 20.7739 42.7704 20.2793C42.6293 19.7847 42.3922 19.3227 42.0725 18.9197C41.7528 18.5167 41.3569 18.1807 40.9074 17.9307Z" fill="white"/>
</svg>
