<svg width="107" height="107" viewBox="0 0 107 107" fill="none" xmlns="http://www.w3.org/2000/svg">
<circle cx="53.1157" cy="53.1157" r="53.1157" fill="#ED1D24"/>
<g clip-path="url(#clip0_1564_424)">
<path d="M53.1922 28.9519C59.6701 28.9519 66.148 28.9744 72.6238 28.9376C74.43 28.9274 75.7288 29.6208 76.7004 31.1385C79.5272 35.5628 82.401 39.9543 85.2503 44.3622C86.5082 46.3074 86.4039 47.9172 84.8719 49.6374C75.3374 60.3514 65.7969 71.0606 56.2501 81.765C54.3193 83.9311 51.9159 83.9393 49.9952 81.7855C40.4499 71.0824 30.9093 60.3732 21.3735 49.6579C19.8373 47.9295 19.7208 46.3054 20.9644 44.3827C23.828 39.9564 26.7325 35.5464 29.5818 31.1058C30.5329 29.6147 31.8215 28.9315 33.6011 28.9397C40.126 28.9724 46.6591 28.9519 53.1922 28.9519ZM56.3401 76.5083L56.4915 76.5921L81.3067 48.7292H64.8962C62.0408 57.9991 59.1888 67.2588 56.3401 76.5083ZM49.7457 76.6023L49.8929 76.5246L41.3328 48.7415H24.9325L49.7457 76.6023ZM44.7528 48.7435C47.5305 57.7435 50.2754 66.6718 53.0265 75.5899L53.2168 75.5592L61.4783 48.7435H44.7528ZM39.5553 45.4054L31.8952 33.5542L24.2023 45.3952L39.5553 45.4054ZM66.7371 45.3706H82.0083L74.3686 33.5685L66.7371 45.3706ZM71.3086 32.2798H56.1008L63.7098 44.039L71.3086 32.2798ZM50.1261 32.2798H34.9551L42.5478 44.0084L50.1261 32.2798ZM60.6887 45.3972L53.1145 33.6912L45.5464 45.3993L60.6887 45.3972Z" fill="white"/>
</g>
<defs>
<clipPath id="clip0_1564_424">
<rect width="66" height="54.4576" fill="white" transform="translate(20.1172 28.9375)"/>
</clipPath>
</defs>
</svg>
